<svg width="262" height="24" viewBox="0 0 262 24" fill="none" xmlns="http://www.w3.org/2000/svg">
<path d="M12.998 22C18.498 22 22.998 17.5 22.998 12C22.998 6.5 18.498 2 12.998 2C7.49805 2 2.99805 6.5 2.99805 12C2.99805 17.5 7.49805 22 12.998 22Z" fill="#F58220" fill-opacity="0.13"/>
<path d="M10.168 14.8299L15.828 9.16992" stroke="#F58220" stroke-width="1.5" stroke-linecap="round" stroke-linejoin="round"/>
<path d="M15.828 14.8299L10.168 9.16992" stroke="#F58220" stroke-width="1.5" stroke-linecap="round" stroke-linejoin="round"/>
<path d="M36.042 16V7.48H39.114C39.898 7.48 40.522 7.708 40.986 8.164C41.458 8.612 41.694 9.192 41.694 9.904C41.694 10.504 41.526 11 41.19 11.392C40.862 11.776 40.386 12.036 39.762 12.172L42.93 16H41.202L38.082 12.256H37.446V16H36.042ZM37.446 11.032H38.946C39.362 11.032 39.69 10.936 39.93 10.744C40.17 10.544 40.29 10.264 40.29 9.904C40.29 9.544 40.17 9.268 39.93 9.076C39.69 8.876 39.362 8.776 38.946 8.776H37.446V11.032ZM46.1098 16.12C45.1978 16.12 44.4458 15.828 43.8538 15.244C43.2698 14.66 42.9778 13.912 42.9778 13C42.9778 12.112 43.2738 11.372 43.8658 10.78C44.4578 10.18 45.2058 9.88 46.1098 9.88C46.9418 9.88 47.6298 10.144 48.1738 10.672C48.7258 11.2 49.0018 11.928 49.0018 12.856C49.0018 13.016 48.9978 13.16 48.9898 13.288H44.2738C44.3058 13.776 44.4938 14.172 44.8378 14.476C45.1818 14.772 45.6098 14.92 46.1218 14.92C46.8898 14.92 47.4618 14.616 47.8378 14.008L48.8458 14.728C48.2698 15.656 47.3578 16.12 46.1098 16.12ZM44.3338 12.328H47.6698C47.5978 11.912 47.4098 11.588 47.1058 11.356C46.8098 11.116 46.4618 10.996 46.0618 10.996C45.6458 10.996 45.2738 11.112 44.9458 11.344C44.6258 11.576 44.4218 11.904 44.3338 12.328ZM52.2667 16.12C51.7147 16.12 51.2267 16.016 50.8027 15.808C50.3787 15.592 50.0627 15.272 49.8547 14.848L50.8267 14.152C50.9467 14.408 51.1387 14.612 51.4027 14.764C51.6667 14.908 51.9547 14.98 52.2667 14.98C52.5147 14.98 52.7187 14.924 52.8787 14.812C53.0467 14.7 53.1307 14.544 53.1307 14.344C53.1307 14.168 53.0627 14.024 52.9267 13.912C52.7987 13.8 52.5587 13.688 52.2067 13.576L51.6787 13.432C50.6147 13.144 50.0907 12.532 50.1067 11.596C50.1067 11.076 50.3107 10.66 50.7187 10.348C51.1267 10.036 51.6387 9.88 52.2547 9.88C53.1827 9.88 53.8587 10.22 54.2827 10.9L53.3707 11.596C53.0667 11.188 52.6867 10.984 52.2307 10.984C52.0147 10.984 51.8267 11.036 51.6667 11.14C51.5067 11.236 51.4267 11.372 51.4267 11.548C51.4267 11.708 51.4787 11.844 51.5827 11.956C51.6867 12.068 51.8747 12.168 52.1467 12.256L52.7587 12.436C53.3187 12.604 53.7387 12.832 54.0187 13.12C54.2987 13.4 54.4387 13.78 54.4387 14.26C54.4387 14.828 54.2347 15.28 53.8267 15.616C53.4187 15.952 52.8987 16.12 52.2667 16.12ZM60.7519 15.22C60.1519 15.82 59.4079 16.12 58.5199 16.12C57.6319 16.12 56.8839 15.82 56.2759 15.22C55.6759 14.612 55.3759 13.872 55.3759 13C55.3759 12.128 55.6759 11.392 56.2759 10.792C56.8839 10.184 57.6319 9.88 58.5199 9.88C59.4079 9.88 60.1519 10.184 60.7519 10.792C61.3599 11.392 61.6639 12.128 61.6639 13C61.6639 13.872 61.3599 14.612 60.7519 15.22ZM58.5199 14.896C59.0399 14.896 59.4679 14.716 59.8039 14.356C60.1479 13.988 60.3199 13.536 60.3199 13C60.3199 12.464 60.1479 12.016 59.8039 11.656C59.4679 11.288 59.0399 11.104 58.5199 11.104C57.9919 11.104 57.5559 11.288 57.2119 11.656C56.8759 12.016 56.7079 12.464 56.7079 13C56.7079 13.536 56.8759 13.988 57.2119 14.356C57.5559 14.716 57.9919 14.896 58.5199 14.896ZM65.1395 16.12C64.4515 16.12 63.9075 15.892 63.5075 15.436C63.1075 14.972 62.9075 14.356 62.9075 13.588V10H64.2275V13.372C64.2275 13.852 64.3315 14.232 64.5395 14.512C64.7475 14.784 65.0435 14.92 65.4275 14.92C65.8755 14.92 66.2315 14.752 66.4955 14.416C66.7595 14.072 66.8915 13.584 66.8915 12.952V10H68.2115V16H66.8915V15.184C66.5395 15.808 65.9555 16.12 65.1395 16.12ZM69.9876 16V10H71.3076V11.068C71.4196 10.732 71.6236 10.46 71.9196 10.252C72.2236 10.044 72.5476 9.94 72.8916 9.94C73.0996 9.94 73.2716 9.956 73.4076 9.988V11.344C73.2156 11.272 72.9956 11.236 72.7476 11.236C72.3476 11.236 72.0076 11.4 71.7276 11.728C71.4476 12.048 71.3076 12.496 71.3076 13.072V16H69.9876ZM77.0713 16.12C76.1673 16.12 75.4113 15.824 74.8033 15.232C74.2033 14.632 73.9033 13.888 73.9033 13C73.9033 12.112 74.2033 11.372 74.8033 10.78C75.4113 10.18 76.1673 9.88 77.0713 9.88C77.6873 9.88 78.2393 10.028 78.7273 10.324C79.2233 10.62 79.6033 11.024 79.8673 11.536L78.7153 12.16C78.5633 11.84 78.3433 11.584 78.0553 11.392C77.7673 11.2 77.4393 11.104 77.0713 11.104C76.5433 11.104 76.1073 11.288 75.7633 11.656C75.4193 12.016 75.2473 12.464 75.2473 13C75.2473 13.536 75.4193 13.988 75.7633 14.356C76.1073 14.716 76.5433 14.896 77.0713 14.896C77.4393 14.896 77.7673 14.8 78.0553 14.608C78.3433 14.416 78.5633 14.16 78.7153 13.84L79.8673 14.464C79.6033 14.976 79.2233 15.38 78.7273 15.676C78.2393 15.972 77.6873 16.12 77.0713 16.12ZM83.7855 16.12C82.8735 16.12 82.1215 15.828 81.5295 15.244C80.9455 14.66 80.6535 13.912 80.6535 13C80.6535 12.112 80.9495 11.372 81.5415 10.78C82.1335 10.18 82.8815 9.88 83.7855 9.88C84.6175 9.88 85.3055 10.144 85.8495 10.672C86.4015 11.2 86.6775 11.928 86.6775 12.856C86.6775 13.016 86.6735 13.16 86.6655 13.288H81.9495C81.9815 13.776 82.1695 14.172 82.5135 14.476C82.8575 14.772 83.2855 14.92 83.7975 14.92C84.5655 14.92 85.1375 14.616 85.5135 14.008L86.5215 14.728C85.9455 15.656 85.0335 16.12 83.7855 16.12ZM82.0095 12.328H85.3455C85.2735 11.912 85.0855 11.588 84.7815 11.356C84.4855 11.116 84.1375 10.996 83.7375 10.996C83.3215 10.996 82.9495 11.112 82.6215 11.344C82.3015 11.576 82.0975 11.904 82.0095 12.328ZM89.9425 16.12C89.3905 16.12 88.9025 16.016 88.4785 15.808C88.0545 15.592 87.7385 15.272 87.5305 14.848L88.5025 14.152C88.6225 14.408 88.8145 14.612 89.0785 14.764C89.3425 14.908 89.6305 14.98 89.9425 14.98C90.1905 14.98 90.3945 14.924 90.5545 14.812C90.7225 14.7 90.8065 14.544 90.8065 14.344C90.8065 14.168 90.7385 14.024 90.6025 13.912C90.4745 13.8 90.2345 13.688 89.8825 13.576L89.3545 13.432C88.2905 13.144 87.7665 12.532 87.7825 11.596C87.7825 11.076 87.9865 10.66 88.3945 10.348C88.8025 10.036 89.3145 9.88 89.9305 9.88C90.8585 9.88 91.5345 10.22 91.9585 10.9L91.0465 11.596C90.7425 11.188 90.3625 10.984 89.9065 10.984C89.6905 10.984 89.5025 11.036 89.3425 11.14C89.1825 11.236 89.1025 11.372 89.1025 11.548C89.1025 11.708 89.1545 11.844 89.2585 11.956C89.3625 12.068 89.5505 12.168 89.8225 12.256L90.4345 12.436C90.9945 12.604 91.4145 12.832 91.6945 13.12C91.9745 13.4 92.1145 13.78 92.1145 14.26C92.1145 14.828 91.9105 15.28 91.5025 15.616C91.0945 15.952 90.5745 16.12 89.9425 16.12ZM98.5399 17.92H97.4719C96.4479 16.056 95.9359 14.136 95.9359 12.16C95.9359 10.184 96.4479 8.264 97.4719 6.4H98.5399C97.5719 8.28 97.0879 10.2 97.0879 12.16C97.0879 14.12 97.5719 16.04 98.5399 17.92ZM107.326 16H106.102L101.302 9.868V16H99.8975V7.48H101.122L105.91 13.6V7.48H107.326V16ZM111.852 16.12C110.94 16.12 110.188 15.828 109.596 15.244C109.012 14.66 108.72 13.912 108.72 13C108.72 12.112 109.016 11.372 109.608 10.78C110.2 10.18 110.948 9.88 111.852 9.88C112.684 9.88 113.372 10.144 113.916 10.672C114.468 11.2 114.744 11.928 114.744 12.856C114.744 13.016 114.74 13.16 114.732 13.288H110.016C110.048 13.776 110.236 14.172 110.58 14.476C110.924 14.772 111.352 14.92 111.864 14.92C112.632 14.92 113.204 14.616 113.58 14.008L114.588 14.728C114.012 15.656 113.1 16.12 111.852 16.12ZM110.076 12.328H113.412C113.34 11.912 113.152 11.588 112.848 11.356C112.552 11.116 112.204 10.996 111.804 10.996C111.388 10.996 111.016 11.112 110.688 11.344C110.368 11.576 110.164 11.904 110.076 12.328ZM121.178 16L119.858 12.124L118.55 16H117.302L115.286 10H116.678L117.974 14.14L119.354 10H120.362L121.718 14.14L123.038 10H124.442L122.426 16H121.178ZM127.302 16.12C126.75 16.12 126.262 16.016 125.838 15.808C125.414 15.592 125.098 15.272 124.89 14.848L125.862 14.152C125.982 14.408 126.174 14.612 126.438 14.764C126.702 14.908 126.99 14.98 127.302 14.98C127.55 14.98 127.754 14.924 127.914 14.812C128.082 14.7 128.166 14.544 128.166 14.344C128.166 14.168 128.098 14.024 127.962 13.912C127.834 13.8 127.594 13.688 127.242 13.576L126.714 13.432C125.65 13.144 125.126 12.532 125.142 11.596C125.142 11.076 125.346 10.66 125.754 10.348C126.162 10.036 126.674 9.88 127.29 9.88C128.218 9.88 128.894 10.22 129.318 10.9L128.406 11.596C128.102 11.188 127.722 10.984 127.266 10.984C127.05 10.984 126.862 11.036 126.702 11.14C126.542 11.236 126.462 11.372 126.462 11.548C126.462 11.708 126.514 11.844 126.618 11.956C126.722 12.068 126.91 12.168 127.182 12.256L127.794 12.436C128.354 12.604 128.774 12.832 129.054 13.12C129.334 13.4 129.474 13.78 129.474 14.26C129.474 14.828 129.27 15.28 128.862 15.616C128.454 15.952 127.934 16.12 127.302 16.12ZM130.843 16V7H132.163V16H130.843ZM136.649 16.12C135.737 16.12 134.985 15.828 134.393 15.244C133.809 14.66 133.517 13.912 133.517 13C133.517 12.112 133.813 11.372 134.405 10.78C134.997 10.18 135.745 9.88 136.649 9.88C137.481 9.88 138.169 10.144 138.713 10.672C139.265 11.2 139.541 11.928 139.541 12.856C139.541 13.016 139.537 13.16 139.529 13.288H134.813C134.845 13.776 135.033 14.172 135.377 14.476C135.721 14.772 136.149 14.92 136.661 14.92C137.429 14.92 138.001 14.616 138.377 14.008L139.385 14.728C138.809 15.656 137.897 16.12 136.649 16.12ZM134.873 12.328H138.209C138.137 11.912 137.949 11.588 137.645 11.356C137.349 11.116 137.001 10.996 136.601 10.996C136.185 10.996 135.813 11.112 135.485 11.344C135.165 11.576 134.961 11.904 134.873 12.328ZM147.872 16.06C147.264 16.06 146.768 15.892 146.384 15.556C146.008 15.212 145.82 14.716 145.82 14.068V11.176H144.764V10H145.82V8.332H147.14V10H148.856V11.176H147.14V13.852C147.14 14.22 147.22 14.48 147.38 14.632C147.54 14.784 147.796 14.86 148.148 14.86C148.452 14.86 148.688 14.824 148.856 14.752V15.928C148.568 16.016 148.24 16.06 147.872 16.06ZM143.408 16.06C142.8 16.06 142.304 15.892 141.92 15.556C141.544 15.212 141.356 14.716 141.356 14.068V11.176H140.108V10H141.356V8.332H142.676V10H144.128V11.176H142.676V13.852C142.676 14.22 142.756 14.48 142.916 14.632C143.076 14.784 143.332 14.86 143.684 14.86C143.988 14.86 144.224 14.824 144.392 14.752V15.928C144.104 16.016 143.776 16.06 143.408 16.06ZM152.739 16.12C151.827 16.12 151.075 15.828 150.483 15.244C149.899 14.66 149.607 13.912 149.607 13C149.607 12.112 149.903 11.372 150.495 10.78C151.087 10.18 151.835 9.88 152.739 9.88C153.571 9.88 154.259 10.144 154.803 10.672C155.355 11.2 155.631 11.928 155.631 12.856C155.631 13.016 155.627 13.16 155.619 13.288H150.903C150.935 13.776 151.123 14.172 151.467 14.476C151.811 14.772 152.239 14.92 152.751 14.92C153.519 14.92 154.091 14.616 154.467 14.008L155.475 14.728C154.899 15.656 153.987 16.12 152.739 16.12ZM150.963 12.328H154.299C154.227 11.912 154.039 11.588 153.735 11.356C153.439 11.116 153.091 10.996 152.691 10.996C152.275 10.996 151.903 11.112 151.575 11.344C151.255 11.576 151.051 11.904 150.963 12.328ZM156.988 16V10H158.308V11.068C158.42 10.732 158.624 10.46 158.92 10.252C159.224 10.044 159.548 9.94 159.892 9.94C160.1 9.94 160.272 9.956 160.408 9.988V11.344C160.216 11.272 159.996 11.236 159.748 11.236C159.348 11.236 159.008 11.4 158.728 11.728C158.448 12.048 158.308 12.496 158.308 13.072V16H156.988ZM163.337 16.12C162.785 16.12 162.297 16.016 161.873 15.808C161.449 15.592 161.133 15.272 160.925 14.848L161.897 14.152C162.017 14.408 162.209 14.612 162.473 14.764C162.737 14.908 163.025 14.98 163.337 14.98C163.585 14.98 163.789 14.924 163.949 14.812C164.117 14.7 164.201 14.544 164.201 14.344C164.201 14.168 164.133 14.024 163.997 13.912C163.869 13.8 163.629 13.688 163.277 13.576L162.749 13.432C161.685 13.144 161.161 12.532 161.177 11.596C161.177 11.076 161.381 10.66 161.789 10.348C162.197 10.036 162.709 9.88 163.325 9.88C164.253 9.88 164.929 10.22 165.353 10.9L164.441 11.596C164.137 11.188 163.757 10.984 163.301 10.984C163.085 10.984 162.897 11.036 162.737 11.14C162.577 11.236 162.497 11.372 162.497 11.548C162.497 11.708 162.549 11.844 162.653 11.956C162.757 12.068 162.945 12.168 163.217 12.256L163.829 12.436C164.389 12.604 164.809 12.832 165.089 13.12C165.369 13.4 165.509 13.78 165.509 14.26C165.509 14.828 165.305 15.28 164.897 15.616C164.489 15.952 163.969 16.12 163.337 16.12ZM168.426 15.7L167.142 17.764H166.326L167.154 16C166.986 15.928 166.846 15.808 166.734 15.64C166.622 15.464 166.566 15.268 166.566 15.052C166.566 14.764 166.666 14.52 166.866 14.32C167.066 14.112 167.31 14.008 167.598 14.008C167.886 14.008 168.13 14.112 168.33 14.32C168.53 14.52 168.63 14.764 168.63 15.052C168.63 15.284 168.562 15.5 168.426 15.7ZM175.298 16L171.722 7.48H173.258L175.91 13.852L178.55 7.48H180.098L176.522 16H175.298ZM181.718 8.692C181.478 8.692 181.27 8.608 181.094 8.44C180.918 8.264 180.83 8.052 180.83 7.804C180.83 7.564 180.918 7.36 181.094 7.192C181.27 7.016 181.478 6.928 181.718 6.928C181.966 6.928 182.174 7.016 182.342 7.192C182.51 7.36 182.594 7.564 182.594 7.804C182.594 8.052 182.51 8.264 182.342 8.44C182.174 8.608 181.966 8.692 181.718 8.692ZM181.058 16V10H182.378V16H181.058ZM186.612 16.12C185.796 16.12 185.108 15.816 184.548 15.208C183.996 14.6 183.72 13.864 183.72 13C183.72 12.136 183.996 11.4 184.548 10.792C185.108 10.184 185.796 9.88 186.612 9.88C187.02 9.88 187.396 9.972 187.74 10.156C188.084 10.332 188.348 10.548 188.532 10.804V7H189.852V16H188.532V15.196C188.348 15.452 188.084 15.672 187.74 15.856C187.396 16.032 187.02 16.12 186.612 16.12ZM185.568 14.368C185.904 14.736 186.332 14.92 186.852 14.92C187.372 14.92 187.8 14.736 188.136 14.368C188.472 14 188.64 13.544 188.64 13C188.64 12.456 188.472 12 188.136 11.632C187.8 11.264 187.372 11.08 186.852 11.08C186.332 11.08 185.904 11.264 185.568 11.632C185.232 12 185.064 12.456 185.064 13C185.064 13.544 185.232 14 185.568 14.368ZM194.352 16.12C193.44 16.12 192.688 15.828 192.096 15.244C191.512 14.66 191.22 13.912 191.22 13C191.22 12.112 191.516 11.372 192.108 10.78C192.7 10.18 193.448 9.88 194.352 9.88C195.184 9.88 195.872 10.144 196.416 10.672C196.968 11.2 197.244 11.928 197.244 12.856C197.244 13.016 197.24 13.16 197.232 13.288H192.516C192.548 13.776 192.736 14.172 193.08 14.476C193.424 14.772 193.852 14.92 194.364 14.92C195.132 14.92 195.704 14.616 196.08 14.008L197.088 14.728C196.512 15.656 195.6 16.12 194.352 16.12ZM192.576 12.328H195.912C195.84 11.912 195.652 11.588 195.348 11.356C195.052 11.116 194.704 10.996 194.304 10.996C193.888 10.996 193.516 11.112 193.188 11.344C192.868 11.576 192.664 11.904 192.576 12.328ZM203.545 15.22C202.945 15.82 202.201 16.12 201.313 16.12C200.425 16.12 199.677 15.82 199.069 15.22C198.469 14.612 198.169 13.872 198.169 13C198.169 12.128 198.469 11.392 199.069 10.792C199.677 10.184 200.425 9.88 201.313 9.88C202.201 9.88 202.945 10.184 203.545 10.792C204.153 11.392 204.457 12.128 204.457 13C204.457 13.872 204.153 14.612 203.545 15.22ZM201.313 14.896C201.833 14.896 202.261 14.716 202.597 14.356C202.941 13.988 203.113 13.536 203.113 13C203.113 12.464 202.941 12.016 202.597 11.656C202.261 11.288 201.833 11.104 201.313 11.104C200.785 11.104 200.349 11.288 200.005 11.656C199.669 12.016 199.501 12.464 199.501 13C199.501 13.536 199.669 13.988 200.005 14.356C200.349 14.716 200.785 14.896 201.313 14.896ZM207.669 16.12C207.117 16.12 206.629 16.016 206.205 15.808C205.781 15.592 205.465 15.272 205.257 14.848L206.229 14.152C206.349 14.408 206.541 14.612 206.805 14.764C207.069 14.908 207.357 14.98 207.669 14.98C207.917 14.98 208.121 14.924 208.281 14.812C208.449 14.7 208.533 14.544 208.533 14.344C208.533 14.168 208.465 14.024 208.329 13.912C208.201 13.8 207.961 13.688 207.609 13.576L207.081 13.432C206.017 13.144 205.493 12.532 205.509 11.596C205.509 11.076 205.713 10.66 206.121 10.348C206.529 10.036 207.041 9.88 207.657 9.88C208.585 9.88 209.261 10.22 209.685 10.9L208.773 11.596C208.469 11.188 208.089 10.984 207.633 10.984C207.417 10.984 207.229 11.036 207.069 11.14C206.909 11.236 206.829 11.372 206.829 11.548C206.829 11.708 206.881 11.844 206.985 11.956C207.089 12.068 207.277 12.168 207.549 12.256L208.161 12.436C208.721 12.604 209.141 12.832 209.421 13.12C209.701 13.4 209.841 13.78 209.841 14.26C209.841 14.828 209.637 15.28 209.229 15.616C208.821 15.952 208.301 16.12 207.669 16.12ZM216.638 16.12C215.814 16.12 215.154 15.884 214.658 15.412C214.17 14.94 213.926 14.348 213.926 13.636C213.926 13.092 214.074 12.636 214.37 12.268C214.674 11.9 215.09 11.556 215.618 11.236C214.97 10.588 214.646 9.964 214.646 9.364C214.646 8.796 214.862 8.316 215.294 7.924C215.734 7.532 216.278 7.336 216.926 7.336C217.582 7.336 218.118 7.536 218.534 7.936C218.95 8.336 219.158 8.816 219.158 9.376C219.158 9.856 219.018 10.26 218.738 10.588C218.458 10.908 218.078 11.196 217.598 11.452L219.218 13.036L220.13 11.896H221.69L220.082 13.864L222.29 16H220.55L219.302 14.788C218.862 15.252 218.434 15.592 218.018 15.808C217.61 16.016 217.15 16.12 216.638 16.12ZM216.65 14.944C217.25 14.944 217.85 14.62 218.45 13.972L216.482 12.064C215.65 12.512 215.234 13.044 215.234 13.66C215.234 14.068 215.374 14.384 215.654 14.608C215.934 14.832 216.266 14.944 216.65 14.944ZM215.918 9.376C215.918 9.448 215.922 9.516 215.93 9.58C215.946 9.644 215.97 9.712 216.002 9.784C216.042 9.848 216.074 9.904 216.098 9.952C216.122 9.992 216.166 10.048 216.23 10.12C216.302 10.192 216.354 10.248 216.386 10.288C216.426 10.32 216.49 10.384 216.578 10.48C216.674 10.568 216.742 10.632 216.782 10.672L216.818 10.648C217.17 10.464 217.43 10.288 217.598 10.12C217.766 9.944 217.85 9.72 217.85 9.448C217.85 9.16 217.762 8.924 217.586 8.74C217.41 8.556 217.182 8.464 216.902 8.464C216.63 8.464 216.398 8.548 216.206 8.716C216.014 8.884 215.918 9.104 215.918 9.376ZM225.968 16V7.48H228.908C229.652 7.48 230.26 7.708 230.732 8.164C231.212 8.62 231.452 9.176 231.452 9.832C231.452 10.536 231.188 11.084 230.66 11.476C231.572 11.852 232.028 12.528 232.028 13.504C232.028 14.216 231.768 14.812 231.248 15.292C230.736 15.764 230.08 16 229.28 16H225.968ZM227.372 14.716H229.244C229.692 14.716 230.04 14.604 230.288 14.38C230.536 14.156 230.66 13.86 230.66 13.492C230.66 13.132 230.536 12.84 230.288 12.616C230.04 12.384 229.692 12.268 229.244 12.268H227.372V14.716ZM227.372 11.068H228.836C229.212 11.068 229.512 10.96 229.736 10.744C229.96 10.528 230.072 10.252 230.072 9.916C230.072 9.596 229.96 9.324 229.736 9.1C229.512 8.876 229.212 8.764 228.836 8.764H227.372V11.068ZM238.326 15.22C237.726 15.82 236.982 16.12 236.094 16.12C235.206 16.12 234.458 15.82 233.85 15.22C233.25 14.612 232.95 13.872 232.95 13C232.95 12.128 233.25 11.392 233.85 10.792C234.458 10.184 235.206 9.88 236.094 9.88C236.982 9.88 237.726 10.184 238.326 10.792C238.934 11.392 239.238 12.128 239.238 13C239.238 13.872 238.934 14.612 238.326 15.22ZM236.094 14.896C236.614 14.896 237.042 14.716 237.378 14.356C237.722 13.988 237.894 13.536 237.894 13C237.894 12.464 237.722 12.016 237.378 11.656C237.042 11.288 236.614 11.104 236.094 11.104C235.566 11.104 235.13 11.288 234.786 11.656C234.45 12.016 234.282 12.464 234.282 13C234.282 13.536 234.45 13.988 234.786 14.356C235.13 14.716 235.566 14.896 236.094 14.896ZM245.51 15.22C244.91 15.82 244.166 16.12 243.278 16.12C242.39 16.12 241.642 15.82 241.034 15.22C240.434 14.612 240.134 13.872 240.134 13C240.134 12.128 240.434 11.392 241.034 10.792C241.642 10.184 242.39 9.88 243.278 9.88C244.166 9.88 244.91 10.184 245.51 10.792C246.118 11.392 246.422 12.128 246.422 13C246.422 13.872 246.118 14.612 245.51 15.22ZM243.278 14.896C243.798 14.896 244.226 14.716 244.562 14.356C244.906 13.988 245.078 13.536 245.078 13C245.078 12.464 244.906 12.016 244.562 11.656C244.226 11.288 243.798 11.104 243.278 11.104C242.75 11.104 242.314 11.288 241.97 11.656C241.634 12.016 241.466 12.464 241.466 13C241.466 13.536 241.634 13.988 241.97 14.356C242.314 14.716 242.75 14.896 243.278 14.896ZM251.937 16L249.069 13.108V16H247.749V7H249.069V12.28L251.361 10H253.029L250.353 12.676L253.629 16H251.937ZM256.114 16.12C255.562 16.12 255.074 16.016 254.65 15.808C254.226 15.592 253.91 15.272 253.702 14.848L254.674 14.152C254.794 14.408 254.986 14.612 255.25 14.764C255.514 14.908 255.802 14.98 256.114 14.98C256.362 14.98 256.566 14.924 256.726 14.812C256.894 14.7 256.978 14.544 256.978 14.344C256.978 14.168 256.91 14.024 256.774 13.912C256.646 13.8 256.406 13.688 256.054 13.576L255.526 13.432C254.462 13.144 253.938 12.532 253.954 11.596C253.954 11.076 254.158 10.66 254.566 10.348C254.974 10.036 255.486 9.88 256.102 9.88C257.03 9.88 257.706 10.22 258.13 10.9L257.218 11.596C256.914 11.188 256.534 10.984 256.078 10.984C255.862 10.984 255.674 11.036 255.514 11.14C255.354 11.236 255.274 11.372 255.274 11.548C255.274 11.708 255.326 11.844 255.43 11.956C255.534 12.068 255.722 12.168 255.994 12.256L256.606 12.436C257.166 12.604 257.586 12.832 257.866 13.12C258.146 13.4 258.286 13.78 258.286 14.26C258.286 14.828 258.082 15.28 257.674 15.616C257.266 15.952 256.746 16.12 256.114 16.12ZM259.843 17.92H258.775C259.743 16.04 260.227 14.12 260.227 12.16C260.227 10.2 259.743 8.28 258.775 6.4H259.843C260.867 8.264 261.379 10.184 261.379 12.16C261.379 14.136 260.867 16.056 259.843 17.92Z" fill="#00292C" fill-opacity="0.65"/>
</svg>
