<svg width="207" height="24" viewBox="0 0 207 24" fill="none" xmlns="http://www.w3.org/2000/svg">
<path d="M12.998 22C18.498 22 22.998 17.5 22.998 12C22.998 6.5 18.498 2 12.998 2C7.49805 2 2.99805 6.5 2.99805 12C2.99805 17.5 7.49805 22 12.998 22Z" fill="#F58220" fill-opacity="0.13"/>
<path d="M10.168 14.8299L15.828 9.16992" stroke="#F58220" stroke-width="1.5" stroke-linecap="round" stroke-linejoin="round"/>
<path d="M15.828 14.8299L10.168 9.16992" stroke="#F58220" stroke-width="1.5" stroke-linecap="round" stroke-linejoin="round"/>
<path d="M36.042 16V7.48H41.166V8.824H37.446V11.008H40.446V12.352H37.446V14.656H41.166V16H36.042ZM46.6443 16L45.0243 13.972L43.4043 16H41.7963L44.1843 13.012L41.9283 10H43.5003L45.0123 12.016L46.5243 10H48.1083L45.8523 13.012L48.2403 16H46.6443ZM51.6299 16.12C50.7259 16.12 49.9699 15.824 49.3619 15.232C48.7619 14.632 48.4619 13.888 48.4619 13C48.4619 12.112 48.7619 11.372 49.3619 10.78C49.9699 10.18 50.7259 9.88 51.6299 9.88C52.2459 9.88 52.7979 10.028 53.2859 10.324C53.7819 10.62 54.1619 11.024 54.4259 11.536L53.2739 12.16C53.1219 11.84 52.9019 11.584 52.6139 11.392C52.3259 11.2 51.9979 11.104 51.6299 11.104C51.1019 11.104 50.6659 11.288 50.3219 11.656C49.9779 12.016 49.8059 12.464 49.8059 13C49.8059 13.536 49.9779 13.988 50.3219 14.356C50.6659 14.716 51.1019 14.896 51.6299 14.896C51.9979 14.896 52.3259 14.8 52.6139 14.608C52.9019 14.416 53.1219 14.16 53.2739 13.84L54.4259 14.464C54.1619 14.976 53.7819 15.38 53.2859 15.676C52.7979 15.972 52.2459 16.12 51.6299 16.12ZM55.6321 16V7H56.9521V16H55.6321ZM60.8739 16.12C60.1859 16.12 59.6419 15.892 59.2419 15.436C58.8419 14.972 58.6419 14.356 58.6419 13.588V10H59.9619V13.372C59.9619 13.852 60.0659 14.232 60.2739 14.512C60.4819 14.784 60.7779 14.92 61.1619 14.92C61.6099 14.92 61.9659 14.752 62.2299 14.416C62.4939 14.072 62.6259 13.584 62.6259 12.952V10H63.9459V16H62.6259V15.184C62.2739 15.808 61.6899 16.12 60.8739 16.12ZM67.63 16.12C67.078 16.12 66.59 16.016 66.166 15.808C65.742 15.592 65.426 15.272 65.218 14.848L66.19 14.152C66.31 14.408 66.502 14.612 66.766 14.764C67.03 14.908 67.318 14.98 67.63 14.98C67.878 14.98 68.082 14.924 68.242 14.812C68.41 14.7 68.494 14.544 68.494 14.344C68.494 14.168 68.426 14.024 68.29 13.912C68.162 13.8 67.922 13.688 67.57 13.576L67.042 13.432C65.978 13.144 65.454 12.532 65.47 11.596C65.47 11.076 65.674 10.66 66.082 10.348C66.49 10.036 67.002 9.88 67.618 9.88C68.546 9.88 69.222 10.22 69.646 10.9L68.734 11.596C68.43 11.188 68.05 10.984 67.594 10.984C67.378 10.984 67.19 11.036 67.03 11.14C66.87 11.236 66.79 11.372 66.79 11.548C66.79 11.708 66.842 11.844 66.946 11.956C67.05 12.068 67.238 12.168 67.51 12.256L68.122 12.436C68.682 12.604 69.102 12.832 69.382 13.12C69.662 13.4 69.802 13.78 69.802 14.26C69.802 14.828 69.598 15.28 69.19 15.616C68.782 15.952 68.262 16.12 67.63 16.12ZM71.8312 8.692C71.5912 8.692 71.3832 8.608 71.2072 8.44C71.0312 8.264 70.9432 8.052 70.9432 7.804C70.9432 7.564 71.0312 7.36 71.2072 7.192C71.3832 7.016 71.5912 6.928 71.8312 6.928C72.0792 6.928 72.2872 7.016 72.4552 7.192C72.6232 7.36 72.7072 7.564 72.7072 7.804C72.7072 8.052 72.6232 8.264 72.4552 8.44C72.2872 8.608 72.0792 8.692 71.8312 8.692ZM71.1712 16V10H72.4912V16H71.1712ZM76.137 16L73.425 10H74.889L76.713 14.212L78.549 10H80.025L77.301 16H76.137ZM83.5043 16.12C82.5923 16.12 81.8403 15.828 81.2483 15.244C80.6643 14.66 80.3723 13.912 80.3723 13C80.3723 12.112 80.6683 11.372 81.2603 10.78C81.8523 10.18 82.6003 9.88 83.5043 9.88C84.3363 9.88 85.0243 10.144 85.5683 10.672C86.1203 11.2 86.3963 11.928 86.3963 12.856C86.3963 13.016 86.3923 13.16 86.3843 13.288H81.6683C81.7003 13.776 81.8883 14.172 82.2323 14.476C82.5763 14.772 83.0043 14.92 83.5163 14.92C84.2843 14.92 84.8563 14.616 85.2323 14.008L86.2403 14.728C85.6643 15.656 84.7523 16.12 83.5043 16.12ZM81.7283 12.328H85.0643C84.9923 11.912 84.8043 11.588 84.5003 11.356C84.2043 11.116 83.8563 10.996 83.4563 10.996C83.0403 10.996 82.6683 11.112 82.3403 11.344C82.0203 11.576 81.8163 11.904 81.7283 12.328ZM95.4785 16L94.1585 12.124L92.8505 16H91.6025L89.5865 10H90.9785L92.2745 14.14L93.6545 10H94.6625L96.0185 14.14L97.3385 10H98.7425L96.7265 16H95.4785ZM102.395 16.12C101.483 16.12 100.731 15.828 100.139 15.244C99.5549 14.66 99.2629 13.912 99.2629 13C99.2629 12.112 99.5589 11.372 100.151 10.78C100.743 10.18 101.491 9.88 102.395 9.88C103.227 9.88 103.915 10.144 104.459 10.672C105.011 11.2 105.287 11.928 105.287 12.856C105.287 13.016 105.283 13.16 105.275 13.288H100.559C100.591 13.776 100.779 14.172 101.123 14.476C101.467 14.772 101.895 14.92 102.407 14.92C103.175 14.92 103.747 14.616 104.123 14.008L105.131 14.728C104.555 15.656 103.643 16.12 102.395 16.12ZM100.619 12.328H103.955C103.883 11.912 103.695 11.588 103.391 11.356C103.095 11.116 102.747 10.996 102.347 10.996C101.931 10.996 101.559 11.112 101.231 11.344C100.911 11.576 100.707 11.904 100.619 12.328ZM109.896 16.12C109.488 16.12 109.108 16.032 108.756 15.856C108.412 15.672 108.148 15.452 107.964 15.196V16H106.644V7H107.964V10.804C108.148 10.548 108.412 10.332 108.756 10.156C109.108 9.972 109.488 9.88 109.896 9.88C110.712 9.88 111.396 10.184 111.948 10.792C112.508 11.4 112.788 12.136 112.788 13C112.788 13.864 112.508 14.6 111.948 15.208C111.396 15.816 110.712 16.12 109.896 16.12ZM109.656 14.92C110.176 14.92 110.604 14.736 110.94 14.368C111.276 14 111.444 13.544 111.444 13C111.444 12.456 111.276 12 110.94 11.632C110.604 11.264 110.176 11.08 109.656 11.08C109.128 11.08 108.696 11.264 108.36 11.632C108.024 12 107.856 12.456 107.856 13C107.856 13.544 108.024 14 108.36 14.368C108.696 14.736 109.128 14.92 109.656 14.92ZM114.792 8.692C114.552 8.692 114.344 8.608 114.168 8.44C113.992 8.264 113.904 8.052 113.904 7.804C113.904 7.564 113.992 7.36 114.168 7.192C114.344 7.016 114.552 6.928 114.792 6.928C115.04 6.928 115.248 7.016 115.416 7.192C115.584 7.36 115.668 7.564 115.668 7.804C115.668 8.052 115.584 8.264 115.416 8.44C115.248 8.608 115.04 8.692 114.792 8.692ZM114.132 16V10H115.452V16H114.132ZM117.226 16V10H118.546V10.816C118.922 10.192 119.53 9.88 120.37 9.88C121.066 9.88 121.622 10.108 122.038 10.564C122.454 11.02 122.662 11.628 122.662 12.388V16H121.342V12.604C121.342 12.124 121.23 11.752 121.006 11.488C120.782 11.216 120.478 11.08 120.094 11.08C119.638 11.08 119.266 11.252 118.978 11.596C118.69 11.94 118.546 12.424 118.546 13.048V16H117.226ZM126.811 16.12C125.995 16.12 125.307 15.816 124.747 15.208C124.195 14.6 123.919 13.864 123.919 13C123.919 12.136 124.195 11.4 124.747 10.792C125.307 10.184 125.995 9.88 126.811 9.88C127.219 9.88 127.595 9.972 127.939 10.156C128.283 10.332 128.547 10.548 128.731 10.804V10H130.051V16H128.731V15.196C128.547 15.452 128.283 15.672 127.939 15.856C127.595 16.032 127.219 16.12 126.811 16.12ZM125.767 14.368C126.103 14.736 126.531 14.92 127.051 14.92C127.571 14.92 127.999 14.736 128.335 14.368C128.671 14 128.839 13.544 128.839 13C128.839 12.456 128.671 12 128.335 11.632C127.999 11.264 127.571 11.08 127.051 11.08C126.531 11.08 126.103 11.264 125.767 11.632C125.431 12 125.263 12.456 125.263 13C125.263 13.544 125.431 14 125.767 14.368ZM131.839 16V10H133.159V11.068C133.271 10.732 133.475 10.46 133.771 10.252C134.075 10.044 134.399 9.94 134.743 9.94C134.951 9.94 135.123 9.956 135.259 9.988V11.344C135.067 11.272 134.847 11.236 134.599 11.236C134.199 11.236 133.859 11.4 133.579 11.728C133.299 12.048 133.159 12.496 133.159 13.072V16H131.839ZM138.189 16.12C137.637 16.12 137.149 16.016 136.725 15.808C136.301 15.592 135.985 15.272 135.777 14.848L136.749 14.152C136.869 14.408 137.061 14.612 137.325 14.764C137.589 14.908 137.877 14.98 138.189 14.98C138.437 14.98 138.641 14.924 138.801 14.812C138.969 14.7 139.053 14.544 139.053 14.344C139.053 14.168 138.985 14.024 138.849 13.912C138.721 13.8 138.481 13.688 138.129 13.576L137.601 13.432C136.537 13.144 136.013 12.532 136.029 11.596C136.029 11.076 136.233 10.66 136.641 10.348C137.049 10.036 137.561 9.88 138.177 9.88C139.105 9.88 139.781 10.22 140.205 10.9L139.293 11.596C138.989 11.188 138.609 10.984 138.153 10.984C137.937 10.984 137.749 11.036 137.589 11.14C137.429 11.236 137.349 11.372 137.349 11.548C137.349 11.708 137.401 11.844 137.505 11.956C137.609 12.068 137.797 12.168 138.069 12.256L138.681 12.436C139.241 12.604 139.661 12.832 139.941 13.12C140.221 13.4 140.361 13.78 140.361 14.26C140.361 14.828 140.157 15.28 139.749 15.616C139.341 15.952 138.821 16.12 138.189 16.12ZM147.014 16.12C146.198 16.12 145.51 15.816 144.95 15.208C144.398 14.6 144.122 13.864 144.122 13C144.122 12.136 144.398 11.4 144.95 10.792C145.51 10.184 146.198 9.88 147.014 9.88C147.422 9.88 147.798 9.972 148.142 10.156C148.486 10.332 148.75 10.548 148.934 10.804V10H150.254V16H148.934V15.196C148.75 15.452 148.486 15.672 148.142 15.856C147.798 16.032 147.422 16.12 147.014 16.12ZM145.97 14.368C146.306 14.736 146.734 14.92 147.254 14.92C147.774 14.92 148.202 14.736 148.538 14.368C148.874 14 149.042 13.544 149.042 13C149.042 12.456 148.874 12 148.538 11.632C148.202 11.264 147.774 11.08 147.254 11.08C146.734 11.08 146.306 11.264 145.97 11.632C145.634 12 145.466 12.456 145.466 13C145.466 13.544 145.634 14 145.97 14.368ZM152.042 16V10H153.362V10.816C153.738 10.192 154.346 9.88 155.186 9.88C155.882 9.88 156.438 10.108 156.854 10.564C157.27 11.02 157.478 11.628 157.478 12.388V16H156.158V12.604C156.158 12.124 156.046 11.752 155.822 11.488C155.598 11.216 155.294 11.08 154.91 11.08C154.454 11.08 154.082 11.252 153.794 11.596C153.506 11.94 153.362 12.424 153.362 13.048V16H152.042ZM161.627 16.12C160.811 16.12 160.123 15.816 159.563 15.208C159.011 14.6 158.735 13.864 158.735 13C158.735 12.136 159.011 11.4 159.563 10.792C160.123 10.184 160.811 9.88 161.627 9.88C162.035 9.88 162.411 9.972 162.755 10.156C163.099 10.332 163.363 10.548 163.547 10.804V7H164.867V16H163.547V15.196C163.363 15.452 163.099 15.672 162.755 15.856C162.411 16.032 162.035 16.12 161.627 16.12ZM160.583 14.368C160.919 14.736 161.347 14.92 161.867 14.92C162.387 14.92 162.815 14.736 163.151 14.368C163.487 14 163.655 13.544 163.655 13C163.655 12.456 163.487 12 163.151 11.632C162.815 11.264 162.387 11.08 161.867 11.08C161.347 11.08 160.919 11.264 160.583 11.632C160.247 12 160.079 12.456 160.079 13C160.079 13.544 160.247 14 160.583 14.368ZM172.192 16.12C171.28 16.12 170.528 15.828 169.936 15.244C169.352 14.66 169.06 13.912 169.06 13C169.06 12.112 169.356 11.372 169.948 10.78C170.54 10.18 171.288 9.88 172.192 9.88C173.024 9.88 173.712 10.144 174.256 10.672C174.808 11.2 175.084 11.928 175.084 12.856C175.084 13.016 175.08 13.16 175.072 13.288H170.356C170.388 13.776 170.576 14.172 170.92 14.476C171.264 14.772 171.692 14.92 172.204 14.92C172.972 14.92 173.544 14.616 173.92 14.008L174.928 14.728C174.352 15.656 173.44 16.12 172.192 16.12ZM170.416 12.328H173.752C173.68 11.912 173.492 11.588 173.188 11.356C172.892 11.116 172.544 10.996 172.144 10.996C171.728 10.996 171.356 11.112 171.028 11.344C170.708 11.576 170.504 11.904 170.416 12.328ZM178.196 16L175.484 10H176.948L178.772 14.212L180.608 10H182.084L179.36 16H178.196ZM185.563 16.12C184.651 16.12 183.899 15.828 183.307 15.244C182.723 14.66 182.431 13.912 182.431 13C182.431 12.112 182.727 11.372 183.319 10.78C183.911 10.18 184.659 9.88 185.563 9.88C186.395 9.88 187.083 10.144 187.627 10.672C188.179 11.2 188.455 11.928 188.455 12.856C188.455 13.016 188.451 13.16 188.443 13.288H183.727C183.759 13.776 183.947 14.172 184.291 14.476C184.635 14.772 185.063 14.92 185.575 14.92C186.343 14.92 186.915 14.616 187.291 14.008L188.299 14.728C187.723 15.656 186.811 16.12 185.563 16.12ZM183.787 12.328H187.123C187.051 11.912 186.863 11.588 186.559 11.356C186.263 11.116 185.915 10.996 185.515 10.996C185.099 10.996 184.727 11.112 184.399 11.344C184.079 11.576 183.875 11.904 183.787 12.328ZM189.812 16V10H191.132V10.816C191.508 10.192 192.116 9.88 192.956 9.88C193.652 9.88 194.208 10.108 194.624 10.564C195.04 11.02 195.248 11.628 195.248 12.388V16H193.928V12.604C193.928 12.124 193.816 11.752 193.592 11.488C193.368 11.216 193.064 11.08 192.68 11.08C192.224 11.08 191.852 11.252 191.564 11.596C191.276 11.94 191.132 12.424 191.132 13.048V16H189.812ZM199.471 16.06C198.863 16.06 198.367 15.892 197.983 15.556C197.607 15.212 197.419 14.716 197.419 14.068V11.176H196.171V10H197.419V8.332H198.739V10H200.455V11.176H198.739V13.852C198.739 14.22 198.819 14.484 198.979 14.644C199.139 14.796 199.395 14.872 199.747 14.872C200.035 14.872 200.271 14.832 200.455 14.752V15.928C200.167 16.016 199.839 16.06 199.471 16.06ZM203.614 16.12C203.062 16.12 202.574 16.016 202.15 15.808C201.726 15.592 201.41 15.272 201.202 14.848L202.174 14.152C202.294 14.408 202.486 14.612 202.75 14.764C203.014 14.908 203.302 14.98 203.614 14.98C203.862 14.98 204.066 14.924 204.226 14.812C204.394 14.7 204.478 14.544 204.478 14.344C204.478 14.168 204.41 14.024 204.274 13.912C204.146 13.8 203.906 13.688 203.554 13.576L203.026 13.432C201.962 13.144 201.438 12.532 201.454 11.596C201.454 11.076 201.658 10.66 202.066 10.348C202.474 10.036 202.986 9.88 203.602 9.88C204.53 9.88 205.206 10.22 205.63 10.9L204.718 11.596C204.414 11.188 204.034 10.984 203.578 10.984C203.362 10.984 203.174 11.036 203.014 11.14C202.854 11.236 202.774 11.372 202.774 11.548C202.774 11.708 202.826 11.844 202.93 11.956C203.034 12.068 203.222 12.168 203.494 12.256L204.106 12.436C204.666 12.604 205.086 12.832 205.366 13.12C205.646 13.4 205.786 13.78 205.786 14.26C205.786 14.828 205.582 15.28 205.174 15.616C204.766 15.952 204.246 16.12 203.614 16.12Z" fill="#00292C" fill-opacity="0.65"/>
</svg>
