<svg width="164" height="24" viewBox="0 0 164 24" fill="none" xmlns="http://www.w3.org/2000/svg">
<path d="M12.998 22C18.498 22 22.998 17.5 22.998 12C22.998 6.5 18.498 2 12.998 2C7.49805 2 2.99805 6.5 2.99805 12C2.99805 17.5 7.49805 22 12.998 22Z" fill="#F58220" fill-opacity="0.13"/>
<path d="M10.168 14.8299L15.828 9.16992" stroke="#F58220" stroke-width="1.5" stroke-linecap="round" stroke-linejoin="round"/>
<path d="M15.828 14.8299L10.168 9.16992" stroke="#F58220" stroke-width="1.5" stroke-linecap="round" stroke-linejoin="round"/>
<path d="M35.046 16L38.766 7.48H39.99L43.71 16H42.246L41.274 13.768H37.458L36.498 16H35.046ZM39.366 9.376L37.998 12.52H40.734L39.366 9.376ZM47.247 16.12C46.343 16.12 45.587 15.824 44.979 15.232C44.379 14.632 44.079 13.888 44.079 13C44.079 12.112 44.379 11.372 44.979 10.78C45.587 10.18 46.343 9.88 47.247 9.88C47.863 9.88 48.415 10.028 48.903 10.324C49.399 10.62 49.779 11.024 50.043 11.536L48.891 12.16C48.739 11.84 48.519 11.584 48.231 11.392C47.943 11.2 47.615 11.104 47.247 11.104C46.719 11.104 46.283 11.288 45.939 11.656C45.595 12.016 45.423 12.464 45.423 13C45.423 13.536 45.595 13.988 45.939 14.356C46.283 14.716 46.719 14.896 47.247 14.896C47.615 14.896 47.943 14.8 48.231 14.608C48.519 14.416 48.739 14.16 48.891 13.84L50.043 14.464C49.779 14.976 49.399 15.38 48.903 15.676C48.415 15.972 47.863 16.12 47.247 16.12ZM53.9853 16.12C53.0813 16.12 52.3253 15.824 51.7173 15.232C51.1173 14.632 50.8173 13.888 50.8173 13C50.8173 12.112 51.1173 11.372 51.7173 10.78C52.3253 10.18 53.0813 9.88 53.9853 9.88C54.6013 9.88 55.1533 10.028 55.6413 10.324C56.1373 10.62 56.5173 11.024 56.7813 11.536L55.6293 12.16C55.4773 11.84 55.2573 11.584 54.9693 11.392C54.6813 11.2 54.3533 11.104 53.9853 11.104C53.4573 11.104 53.0213 11.288 52.6773 11.656C52.3333 12.016 52.1613 12.464 52.1613 13C52.1613 13.536 52.3333 13.988 52.6773 14.356C53.0213 14.716 53.4573 14.896 53.9853 14.896C54.3533 14.896 54.6813 14.8 54.9693 14.608C55.2573 14.416 55.4773 14.16 55.6293 13.84L56.7813 14.464C56.5173 14.976 56.1373 15.38 55.6413 15.676C55.1533 15.972 54.6013 16.12 53.9853 16.12ZM60.6996 16.12C59.7876 16.12 59.0356 15.828 58.4436 15.244C57.8596 14.66 57.5676 13.912 57.5676 13C57.5676 12.112 57.8636 11.372 58.4556 10.78C59.0476 10.18 59.7956 9.88 60.6996 9.88C61.5316 9.88 62.2196 10.144 62.7636 10.672C63.3156 11.2 63.5916 11.928 63.5916 12.856C63.5916 13.016 63.5876 13.16 63.5796 13.288H58.8636C58.8956 13.776 59.0836 14.172 59.4276 14.476C59.7716 14.772 60.1996 14.92 60.7116 14.92C61.4796 14.92 62.0516 14.616 62.4276 14.008L63.4356 14.728C62.8596 15.656 61.9476 16.12 60.6996 16.12ZM58.9236 12.328H62.2596C62.1876 11.912 61.9996 11.588 61.6956 11.356C61.3996 11.116 61.0516 10.996 60.6516 10.996C60.2356 10.996 59.8636 11.112 59.5356 11.344C59.2156 11.576 59.0116 11.904 58.9236 12.328ZM66.8565 16.12C66.3045 16.12 65.8165 16.016 65.3925 15.808C64.9685 15.592 64.6525 15.272 64.4445 14.848L65.4165 14.152C65.5365 14.408 65.7285 14.612 65.9925 14.764C66.2565 14.908 66.5445 14.98 66.8565 14.98C67.1045 14.98 67.3085 14.924 67.4685 14.812C67.6365 14.7 67.7205 14.544 67.7205 14.344C67.7205 14.168 67.6525 14.024 67.5165 13.912C67.3885 13.8 67.1485 13.688 66.7965 13.576L66.2685 13.432C65.2045 13.144 64.6805 12.532 64.6965 11.596C64.6965 11.076 64.9005 10.66 65.3085 10.348C65.7165 10.036 66.2285 9.88 66.8445 9.88C67.7725 9.88 68.4485 10.22 68.8725 10.9L67.9605 11.596C67.6565 11.188 67.2765 10.984 66.8205 10.984C66.6045 10.984 66.4165 11.036 66.2565 11.14C66.0965 11.236 66.0165 11.372 66.0165 11.548C66.0165 11.708 66.0685 11.844 66.1725 11.956C66.2765 12.068 66.4645 12.168 66.7365 12.256L67.3485 12.436C67.9085 12.604 68.3285 12.832 68.6085 13.12C68.8885 13.4 69.0285 13.78 69.0285 14.26C69.0285 14.828 68.8245 15.28 68.4165 15.616C68.0085 15.952 67.4885 16.12 66.8565 16.12ZM72.3058 16.12C71.7538 16.12 71.2658 16.016 70.8418 15.808C70.4178 15.592 70.1018 15.272 69.8938 14.848L70.8658 14.152C70.9858 14.408 71.1778 14.612 71.4418 14.764C71.7058 14.908 71.9938 14.98 72.3058 14.98C72.5538 14.98 72.7578 14.924 72.9178 14.812C73.0858 14.7 73.1698 14.544 73.1698 14.344C73.1698 14.168 73.1018 14.024 72.9658 13.912C72.8378 13.8 72.5978 13.688 72.2458 13.576L71.7178 13.432C70.6538 13.144 70.1298 12.532 70.1458 11.596C70.1458 11.076 70.3498 10.66 70.7578 10.348C71.1658 10.036 71.6778 9.88 72.2938 9.88C73.2218 9.88 73.8978 10.22 74.3218 10.9L73.4098 11.596C73.1058 11.188 72.7258 10.984 72.2698 10.984C72.0538 10.984 71.8658 11.036 71.7058 11.14C71.5458 11.236 71.4658 11.372 71.4658 11.548C71.4658 11.708 71.5178 11.844 71.6218 11.956C71.7258 12.068 71.9138 12.168 72.1858 12.256L72.7978 12.436C73.3578 12.604 73.7778 12.832 74.0578 13.12C74.3378 13.4 74.4778 13.78 74.4778 14.26C74.4778 14.828 74.2738 15.28 73.8658 15.616C73.4578 15.952 72.9378 16.12 72.3058 16.12ZM81.076 16.06C80.468 16.06 79.972 15.892 79.588 15.556C79.212 15.212 79.024 14.716 79.024 14.068V11.176H77.776V10H79.024V8.332H80.344V10H82.06V11.176H80.344V13.852C80.344 14.22 80.424 14.484 80.584 14.644C80.744 14.796 81 14.872 81.352 14.872C81.64 14.872 81.876 14.832 82.06 14.752V15.928C81.772 16.016 81.444 16.06 81.076 16.06ZM88.1738 15.22C87.5738 15.82 86.8298 16.12 85.9418 16.12C85.0538 16.12 84.3058 15.82 83.6978 15.22C83.0978 14.612 82.7978 13.872 82.7978 13C82.7978 12.128 83.0978 11.392 83.6978 10.792C84.3058 10.184 85.0538 9.88 85.9418 9.88C86.8298 9.88 87.5738 10.184 88.1738 10.792C88.7818 11.392 89.0858 12.128 89.0858 13C89.0858 13.872 88.7818 14.612 88.1738 15.22ZM85.9418 14.896C86.4618 14.896 86.8898 14.716 87.2258 14.356C87.5698 13.988 87.7418 13.536 87.7418 13C87.7418 12.464 87.5698 12.016 87.2258 11.656C86.8898 11.288 86.4618 11.104 85.9418 11.104C85.4138 11.104 84.9778 11.288 84.6338 11.656C84.2978 12.016 84.1298 12.464 84.1298 13C84.1298 13.536 84.2978 13.988 84.6338 14.356C84.9778 14.716 85.4138 14.896 85.9418 14.896ZM94.5576 18.508H93.2376V10H94.5576V10.804C94.7416 10.548 95.0056 10.332 95.3496 10.156C95.7016 9.972 96.0816 9.88 96.4896 9.88C97.3056 9.88 97.9896 10.184 98.5416 10.792C99.1016 11.4 99.3816 12.136 99.3816 13C99.3816 13.864 99.1016 14.6 98.5416 15.208C97.9896 15.816 97.3056 16.12 96.4896 16.12C96.0816 16.12 95.7016 16.032 95.3496 15.856C95.0056 15.672 94.7416 15.452 94.5576 15.196V18.508ZM96.2496 14.92C96.7696 14.92 97.1976 14.736 97.5336 14.368C97.8696 14 98.0376 13.544 98.0376 13C98.0376 12.456 97.8696 12 97.5336 11.632C97.1976 11.264 96.7696 11.08 96.2496 11.08C95.7216 11.08 95.2896 11.264 94.9536 11.632C94.6176 12 94.4496 12.456 94.4496 13C94.4496 13.544 94.6176 14 94.9536 14.368C95.2896 14.736 95.7216 14.92 96.2496 14.92ZM103.186 16.12C102.37 16.12 101.682 15.816 101.122 15.208C100.57 14.6 100.294 13.864 100.294 13C100.294 12.136 100.57 11.4 101.122 10.792C101.682 10.184 102.37 9.88 103.186 9.88C103.594 9.88 103.97 9.972 104.314 10.156C104.658 10.332 104.922 10.548 105.106 10.804V10H106.426V16H105.106V15.196C104.922 15.452 104.658 15.672 104.314 15.856C103.97 16.032 103.594 16.12 103.186 16.12ZM102.142 14.368C102.478 14.736 102.906 14.92 103.426 14.92C103.946 14.92 104.374 14.736 104.71 14.368C105.046 14 105.214 13.544 105.214 13C105.214 12.456 105.046 12 104.71 11.632C104.374 11.264 103.946 11.08 103.426 11.08C102.906 11.08 102.478 11.264 102.142 11.632C101.806 12 101.638 12.456 101.638 13C101.638 13.544 101.806 14 102.142 14.368ZM108.874 8.692C108.634 8.692 108.426 8.608 108.25 8.44C108.074 8.264 107.986 8.052 107.986 7.804C107.986 7.564 108.074 7.36 108.25 7.192C108.426 7.016 108.634 6.928 108.874 6.928C109.122 6.928 109.33 7.016 109.498 7.192C109.666 7.36 109.75 7.564 109.75 7.804C109.75 8.052 109.666 8.264 109.498 8.44C109.33 8.608 109.122 8.692 108.874 8.692ZM108.214 16V10H109.534V16H108.214ZM113.768 16.12C112.952 16.12 112.264 15.816 111.704 15.208C111.152 14.6 110.876 13.864 110.876 13C110.876 12.136 111.152 11.4 111.704 10.792C112.264 10.184 112.952 9.88 113.768 9.88C114.176 9.88 114.552 9.972 114.896 10.156C115.24 10.332 115.504 10.548 115.688 10.804V7H117.008V16H115.688V15.196C115.504 15.452 115.24 15.672 114.896 15.856C114.552 16.032 114.176 16.12 113.768 16.12ZM112.724 14.368C113.06 14.736 113.488 14.92 114.008 14.92C114.528 14.92 114.956 14.736 115.292 14.368C115.628 14 115.796 13.544 115.796 13C115.796 12.456 115.628 12 115.292 11.632C114.956 11.264 114.528 11.08 114.008 11.08C113.488 11.08 113.06 11.264 112.724 11.632C112.388 12 112.22 12.456 112.22 13C112.22 13.544 112.388 14 112.724 14.368ZM124.356 16.12C123.452 16.12 122.696 15.824 122.088 15.232C121.488 14.632 121.188 13.888 121.188 13C121.188 12.112 121.488 11.372 122.088 10.78C122.696 10.18 123.452 9.88 124.356 9.88C124.972 9.88 125.524 10.028 126.012 10.324C126.508 10.62 126.888 11.024 127.152 11.536L126 12.16C125.848 11.84 125.628 11.584 125.34 11.392C125.052 11.2 124.724 11.104 124.356 11.104C123.828 11.104 123.392 11.288 123.048 11.656C122.704 12.016 122.532 12.464 122.532 13C122.532 13.536 122.704 13.988 123.048 14.356C123.392 14.716 123.828 14.896 124.356 14.896C124.724 14.896 125.052 14.8 125.34 14.608C125.628 14.416 125.848 14.16 126 13.84L127.152 14.464C126.888 14.976 126.508 15.38 126.012 15.676C125.524 15.972 124.972 16.12 124.356 16.12ZM133.303 15.22C132.703 15.82 131.959 16.12 131.071 16.12C130.183 16.12 129.435 15.82 128.827 15.22C128.227 14.612 127.927 13.872 127.927 13C127.927 12.128 128.227 11.392 128.827 10.792C129.435 10.184 130.183 9.88 131.071 9.88C131.959 9.88 132.703 10.184 133.303 10.792C133.911 11.392 134.215 12.128 134.215 13C134.215 13.872 133.911 14.612 133.303 15.22ZM131.071 14.896C131.591 14.896 132.019 14.716 132.355 14.356C132.699 13.988 132.871 13.536 132.871 13C132.871 12.464 132.699 12.016 132.355 11.656C132.019 11.288 131.591 11.104 131.071 11.104C130.543 11.104 130.107 11.288 129.763 11.656C129.427 12.016 129.259 12.464 129.259 13C129.259 13.536 129.427 13.988 129.763 14.356C130.107 14.716 130.543 14.896 131.071 14.896ZM137.69 16.12C137.002 16.12 136.458 15.892 136.058 15.436C135.658 14.972 135.458 14.356 135.458 13.588V10H136.778V13.372C136.778 13.852 136.882 14.232 137.09 14.512C137.298 14.784 137.594 14.92 137.978 14.92C138.426 14.92 138.782 14.752 139.046 14.416C139.31 14.072 139.442 13.584 139.442 12.952V10H140.762V16H139.442V15.184C139.09 15.808 138.506 16.12 137.69 16.12ZM142.538 16V10H143.858V11.068C143.97 10.732 144.174 10.46 144.47 10.252C144.774 10.044 145.098 9.94 145.442 9.94C145.65 9.94 145.822 9.956 145.958 9.988V11.344C145.766 11.272 145.546 11.236 145.298 11.236C144.898 11.236 144.558 11.4 144.278 11.728C143.998 12.048 143.858 12.496 143.858 13.072V16H142.538ZM148.888 16.12C148.336 16.12 147.848 16.016 147.424 15.808C147 15.592 146.684 15.272 146.476 14.848L147.448 14.152C147.568 14.408 147.76 14.612 148.024 14.764C148.288 14.908 148.576 14.98 148.888 14.98C149.136 14.98 149.34 14.924 149.5 14.812C149.668 14.7 149.752 14.544 149.752 14.344C149.752 14.168 149.684 14.024 149.548 13.912C149.42 13.8 149.18 13.688 148.828 13.576L148.3 13.432C147.236 13.144 146.712 12.532 146.728 11.596C146.728 11.076 146.932 10.66 147.34 10.348C147.748 10.036 148.26 9.88 148.876 9.88C149.804 9.88 150.48 10.22 150.904 10.9L149.992 11.596C149.688 11.188 149.308 10.984 148.852 10.984C148.636 10.984 148.448 11.036 148.288 11.14C148.128 11.236 148.048 11.372 148.048 11.548C148.048 11.708 148.1 11.844 148.204 11.956C148.308 12.068 148.496 12.168 148.768 12.256L149.38 12.436C149.94 12.604 150.36 12.832 150.64 13.12C150.92 13.4 151.06 13.78 151.06 14.26C151.06 14.828 150.856 15.28 150.448 15.616C150.04 15.952 149.52 16.12 148.888 16.12ZM155.141 16.12C154.229 16.12 153.477 15.828 152.885 15.244C152.301 14.66 152.009 13.912 152.009 13C152.009 12.112 152.305 11.372 152.897 10.78C153.489 10.18 154.237 9.88 155.141 9.88C155.973 9.88 156.661 10.144 157.205 10.672C157.757 11.2 158.033 11.928 158.033 12.856C158.033 13.016 158.029 13.16 158.021 13.288H153.305C153.337 13.776 153.525 14.172 153.869 14.476C154.213 14.772 154.641 14.92 155.153 14.92C155.921 14.92 156.493 14.616 156.869 14.008L157.877 14.728C157.301 15.656 156.389 16.12 155.141 16.12ZM153.365 12.328H156.701C156.629 11.912 156.441 11.588 156.137 11.356C155.841 11.116 155.493 10.996 155.093 10.996C154.677 10.996 154.305 11.112 153.977 11.344C153.657 11.576 153.453 11.904 153.365 12.328ZM161.298 16.12C160.746 16.12 160.258 16.016 159.834 15.808C159.41 15.592 159.094 15.272 158.886 14.848L159.858 14.152C159.978 14.408 160.17 14.612 160.434 14.764C160.698 14.908 160.986 14.98 161.298 14.98C161.546 14.98 161.75 14.924 161.91 14.812C162.078 14.7 162.162 14.544 162.162 14.344C162.162 14.168 162.094 14.024 161.958 13.912C161.83 13.8 161.59 13.688 161.238 13.576L160.71 13.432C159.646 13.144 159.122 12.532 159.138 11.596C159.138 11.076 159.342 10.66 159.75 10.348C160.158 10.036 160.67 9.88 161.286 9.88C162.214 9.88 162.89 10.22 163.314 10.9L162.402 11.596C162.098 11.188 161.718 10.984 161.262 10.984C161.046 10.984 160.858 11.036 160.698 11.14C160.538 11.236 160.458 11.372 160.458 11.548C160.458 11.708 160.51 11.844 160.614 11.956C160.718 12.068 160.906 12.168 161.178 12.256L161.79 12.436C162.35 12.604 162.77 12.832 163.05 13.12C163.33 13.4 163.47 13.78 163.47 14.26C163.47 14.828 163.266 15.28 162.858 15.616C162.45 15.952 161.93 16.12 161.298 16.12Z" fill="#00292C" fill-opacity="0.65"/>
</svg>
