<svg width="162" height="24" viewBox="0 0 162 24" fill="none" xmlns="http://www.w3.org/2000/svg">
<path d="M12.998 22C18.498 22 22.998 17.5 22.998 12C22.998 6.5 18.498 2 12.998 2C7.49805 2 2.99805 6.5 2.99805 12C2.99805 17.5 7.49805 22 12.998 22Z" fill="#008E97" fill-opacity="0.13"/>
<path d="M8.74805 11.9999L11.578 14.8299L17.248 9.16992" stroke="#008E97" stroke-width="1.5" stroke-linecap="round" stroke-linejoin="round"/>
<path d="M35.046 16L38.766 7.48H39.99L43.71 16H42.246L41.274 13.768H37.458L36.498 16H35.046ZM39.366 9.376L37.998 12.52H40.734L39.366 9.376ZM47.247 16.12C46.343 16.12 45.587 15.824 44.979 15.232C44.379 14.632 44.079 13.888 44.079 13C44.079 12.112 44.379 11.372 44.979 10.78C45.587 10.18 46.343 9.88 47.247 9.88C47.863 9.88 48.415 10.028 48.903 10.324C49.399 10.62 49.779 11.024 50.043 11.536L48.891 12.16C48.739 11.84 48.519 11.584 48.231 11.392C47.943 11.2 47.615 11.104 47.247 11.104C46.719 11.104 46.283 11.288 45.939 11.656C45.595 12.016 45.423 12.464 45.423 13C45.423 13.536 45.595 13.988 45.939 14.356C46.283 14.716 46.719 14.896 47.247 14.896C47.615 14.896 47.943 14.8 48.231 14.608C48.519 14.416 48.739 14.16 48.891 13.84L50.043 14.464C49.779 14.976 49.399 15.38 48.903 15.676C48.415 15.972 47.863 16.12 47.247 16.12ZM53.9853 16.12C53.0813 16.12 52.3253 15.824 51.7173 15.232C51.1173 14.632 50.8173 13.888 50.8173 13C50.8173 12.112 51.1173 11.372 51.7173 10.78C52.3253 10.18 53.0813 9.88 53.9853 9.88C54.6013 9.88 55.1533 10.028 55.6413 10.324C56.1373 10.62 56.5173 11.024 56.7813 11.536L55.6293 12.16C55.4773 11.84 55.2573 11.584 54.9693 11.392C54.6813 11.2 54.3533 11.104 53.9853 11.104C53.4573 11.104 53.0213 11.288 52.6773 11.656C52.3333 12.016 52.1613 12.464 52.1613 13C52.1613 13.536 52.3333 13.988 52.6773 14.356C53.0213 14.716 53.4573 14.896 53.9853 14.896C54.3533 14.896 54.6813 14.8 54.9693 14.608C55.2573 14.416 55.4773 14.16 55.6293 13.84L56.7813 14.464C56.5173 14.976 56.1373 15.38 55.6413 15.676C55.1533 15.972 54.6013 16.12 53.9853 16.12ZM60.6996 16.12C59.7876 16.12 59.0356 15.828 58.4436 15.244C57.8596 14.66 57.5676 13.912 57.5676 13C57.5676 12.112 57.8636 11.372 58.4556 10.78C59.0476 10.18 59.7956 9.88 60.6996 9.88C61.5316 9.88 62.2196 10.144 62.7636 10.672C63.3156 11.2 63.5916 11.928 63.5916 12.856C63.5916 13.016 63.5876 13.16 63.5796 13.288H58.8636C58.8956 13.776 59.0836 14.172 59.4276 14.476C59.7716 14.772 60.1996 14.92 60.7116 14.92C61.4796 14.92 62.0516 14.616 62.4276 14.008L63.4356 14.728C62.8596 15.656 61.9476 16.12 60.6996 16.12ZM58.9236 12.328H62.2596C62.1876 11.912 61.9996 11.588 61.6956 11.356C61.3996 11.116 61.0516 10.996 60.6516 10.996C60.2356 10.996 59.8636 11.112 59.5356 11.344C59.2156 11.576 59.0116 11.904 58.9236 12.328ZM66.8565 16.12C66.3045 16.12 65.8165 16.016 65.3925 15.808C64.9685 15.592 64.6525 15.272 64.4445 14.848L65.4165 14.152C65.5365 14.408 65.7285 14.612 65.9925 14.764C66.2565 14.908 66.5445 14.98 66.8565 14.98C67.1045 14.98 67.3085 14.924 67.4685 14.812C67.6365 14.7 67.7205 14.544 67.7205 14.344C67.7205 14.168 67.6525 14.024 67.5165 13.912C67.3885 13.8 67.1485 13.688 66.7965 13.576L66.2685 13.432C65.2045 13.144 64.6805 12.532 64.6965 11.596C64.6965 11.076 64.9005 10.66 65.3085 10.348C65.7165 10.036 66.2285 9.88 66.8445 9.88C67.7725 9.88 68.4485 10.22 68.8725 10.9L67.9605 11.596C67.6565 11.188 67.2765 10.984 66.8205 10.984C66.6045 10.984 66.4165 11.036 66.2565 11.14C66.0965 11.236 66.0165 11.372 66.0165 11.548C66.0165 11.708 66.0685 11.844 66.1725 11.956C66.2765 12.068 66.4645 12.168 66.7365 12.256L67.3485 12.436C67.9085 12.604 68.3285 12.832 68.6085 13.12C68.8885 13.4 69.0285 13.78 69.0285 14.26C69.0285 14.828 68.8245 15.28 68.4165 15.616C68.0085 15.952 67.4885 16.12 66.8565 16.12ZM72.3058 16.12C71.7538 16.12 71.2658 16.016 70.8418 15.808C70.4178 15.592 70.1018 15.272 69.8938 14.848L70.8658 14.152C70.9858 14.408 71.1778 14.612 71.4418 14.764C71.7058 14.908 71.9938 14.98 72.3058 14.98C72.5538 14.98 72.7578 14.924 72.9178 14.812C73.0858 14.7 73.1698 14.544 73.1698 14.344C73.1698 14.168 73.1018 14.024 72.9658 13.912C72.8378 13.8 72.5978 13.688 72.2458 13.576L71.7178 13.432C70.6538 13.144 70.1298 12.532 70.1458 11.596C70.1458 11.076 70.3498 10.66 70.7578 10.348C71.1658 10.036 71.6778 9.88 72.2938 9.88C73.2218 9.88 73.8978 10.22 74.3218 10.9L73.4098 11.596C73.1058 11.188 72.7258 10.984 72.2698 10.984C72.0538 10.984 71.8658 11.036 71.7058 11.14C71.5458 11.236 71.4658 11.372 71.4658 11.548C71.4658 11.708 71.5178 11.844 71.6218 11.956C71.7258 12.068 71.9138 12.168 72.1858 12.256L72.7978 12.436C73.3578 12.604 73.7778 12.832 74.0578 13.12C74.3378 13.4 74.4778 13.78 74.4778 14.26C74.4778 14.828 74.2738 15.28 73.8658 15.616C73.4578 15.952 72.9378 16.12 72.3058 16.12ZM81.076 16.06C80.468 16.06 79.972 15.892 79.588 15.556C79.212 15.212 79.024 14.716 79.024 14.068V11.176H77.776V10H79.024V8.332H80.344V10H82.06V11.176H80.344V13.852C80.344 14.22 80.424 14.484 80.584 14.644C80.744 14.796 81 14.872 81.352 14.872C81.64 14.872 81.876 14.832 82.06 14.752V15.928C81.772 16.016 81.444 16.06 81.076 16.06ZM88.1738 15.22C87.5738 15.82 86.8298 16.12 85.9418 16.12C85.0538 16.12 84.3058 15.82 83.6978 15.22C83.0978 14.612 82.7978 13.872 82.7978 13C82.7978 12.128 83.0978 11.392 83.6978 10.792C84.3058 10.184 85.0538 9.88 85.9418 9.88C86.8298 9.88 87.5738 10.184 88.1738 10.792C88.7818 11.392 89.0858 12.128 89.0858 13C89.0858 13.872 88.7818 14.612 88.1738 15.22ZM85.9418 14.896C86.4618 14.896 86.8898 14.716 87.2258 14.356C87.5698 13.988 87.7418 13.536 87.7418 13C87.7418 12.464 87.5698 12.016 87.2258 11.656C86.8898 11.288 86.4618 11.104 85.9418 11.104C85.4138 11.104 84.9778 11.288 84.6338 11.656C84.2978 12.016 84.1298 12.464 84.1298 13C84.1298 13.536 84.2978 13.988 84.6338 14.356C84.9778 14.716 85.4138 14.896 85.9418 14.896ZM93.7079 16V11.176H92.4599V10H93.7079V8.992C93.7079 8.344 93.8999 7.84 94.2839 7.48C94.6679 7.112 95.1599 6.928 95.7599 6.928C96.1279 6.928 96.4559 6.976 96.7439 7.072V8.248C96.5599 8.168 96.3239 8.128 96.0359 8.128C95.6839 8.128 95.4279 8.208 95.2679 8.368C95.1079 8.52 95.0279 8.78 95.0279 9.148V10H96.7439V11.176H95.0279V16H93.7079ZM97.7962 16V10H99.1162V11.068C99.2282 10.732 99.4322 10.46 99.7282 10.252C100.032 10.044 100.356 9.94 100.7 9.94C100.908 9.94 101.08 9.956 101.216 9.988V11.344C101.024 11.272 100.804 11.236 100.556 11.236C100.156 11.236 99.8162 11.4 99.5362 11.728C99.2562 12.048 99.1162 12.496 99.1162 13.072V16H97.7962ZM104.856 16.12C103.944 16.12 103.192 15.828 102.6 15.244C102.016 14.66 101.724 13.912 101.724 13C101.724 12.112 102.02 11.372 102.612 10.78C103.204 10.18 103.952 9.88 104.856 9.88C105.688 9.88 106.376 10.144 106.92 10.672C107.472 11.2 107.748 11.928 107.748 12.856C107.748 13.016 107.744 13.16 107.736 13.288H103.02C103.052 13.776 103.24 14.172 103.584 14.476C103.928 14.772 104.356 14.92 104.868 14.92C105.636 14.92 106.208 14.616 106.584 14.008L107.592 14.728C107.016 15.656 106.104 16.12 104.856 16.12ZM103.08 12.328H106.416C106.344 11.912 106.156 11.588 105.852 11.356C105.556 11.116 105.208 10.996 104.808 10.996C104.392 10.996 104.02 11.112 103.692 11.344C103.372 11.576 103.168 11.904 103.08 12.328ZM111.817 16.12C110.905 16.12 110.153 15.828 109.561 15.244C108.977 14.66 108.685 13.912 108.685 13C108.685 12.112 108.981 11.372 109.573 10.78C110.165 10.18 110.913 9.88 111.817 9.88C112.649 9.88 113.337 10.144 113.881 10.672C114.433 11.2 114.709 11.928 114.709 12.856C114.709 13.016 114.705 13.16 114.697 13.288H109.981C110.013 13.776 110.201 14.172 110.545 14.476C110.889 14.772 111.317 14.92 111.829 14.92C112.597 14.92 113.169 14.616 113.545 14.008L114.553 14.728C113.977 15.656 113.065 16.12 111.817 16.12ZM110.041 12.328H113.377C113.305 11.912 113.117 11.588 112.813 11.356C112.517 11.116 112.169 10.996 111.769 10.996C111.353 10.996 110.981 11.112 110.653 11.344C110.333 11.576 110.129 11.904 110.041 12.328ZM121.626 16.12C120.722 16.12 119.966 15.824 119.358 15.232C118.758 14.632 118.458 13.888 118.458 13C118.458 12.112 118.758 11.372 119.358 10.78C119.966 10.18 120.722 9.88 121.626 9.88C122.242 9.88 122.794 10.028 123.282 10.324C123.778 10.62 124.158 11.024 124.422 11.536L123.27 12.16C123.118 11.84 122.898 11.584 122.61 11.392C122.322 11.2 121.994 11.104 121.626 11.104C121.098 11.104 120.662 11.288 120.318 11.656C119.974 12.016 119.802 12.464 119.802 13C119.802 13.536 119.974 13.988 120.318 14.356C120.662 14.716 121.098 14.896 121.626 14.896C121.994 14.896 122.322 14.8 122.61 14.608C122.898 14.416 123.118 14.16 123.27 13.84L124.422 14.464C124.158 14.976 123.778 15.38 123.282 15.676C122.794 15.972 122.242 16.12 121.626 16.12ZM130.572 15.22C129.972 15.82 129.228 16.12 128.34 16.12C127.452 16.12 126.704 15.82 126.096 15.22C125.496 14.612 125.196 13.872 125.196 13C125.196 12.128 125.496 11.392 126.096 10.792C126.704 10.184 127.452 9.88 128.34 9.88C129.228 9.88 129.972 10.184 130.572 10.792C131.18 11.392 131.484 12.128 131.484 13C131.484 13.872 131.18 14.612 130.572 15.22ZM128.34 14.896C128.86 14.896 129.288 14.716 129.624 14.356C129.968 13.988 130.14 13.536 130.14 13C130.14 12.464 129.968 12.016 129.624 11.656C129.288 11.288 128.86 11.104 128.34 11.104C127.812 11.104 127.376 11.288 127.032 11.656C126.696 12.016 126.528 12.464 126.528 13C126.528 13.536 126.696 13.988 127.032 14.356C127.376 14.716 127.812 14.896 128.34 14.896ZM134.96 16.12C134.272 16.12 133.728 15.892 133.328 15.436C132.928 14.972 132.728 14.356 132.728 13.588V10H134.048V13.372C134.048 13.852 134.152 14.232 134.36 14.512C134.568 14.784 134.864 14.92 135.248 14.92C135.696 14.92 136.052 14.752 136.316 14.416C136.58 14.072 136.712 13.584 136.712 12.952V10H138.032V16H136.712V15.184C136.36 15.808 135.776 16.12 134.96 16.12ZM139.808 16V10H141.128V11.068C141.24 10.732 141.444 10.46 141.74 10.252C142.044 10.044 142.368 9.94 142.712 9.94C142.92 9.94 143.092 9.956 143.228 9.988V11.344C143.036 11.272 142.816 11.236 142.568 11.236C142.168 11.236 141.828 11.4 141.548 11.728C141.268 12.048 141.128 12.496 141.128 13.072V16H139.808ZM146.157 16.12C145.605 16.12 145.117 16.016 144.693 15.808C144.269 15.592 143.953 15.272 143.745 14.848L144.717 14.152C144.837 14.408 145.029 14.612 145.293 14.764C145.557 14.908 145.845 14.98 146.157 14.98C146.405 14.98 146.609 14.924 146.769 14.812C146.937 14.7 147.021 14.544 147.021 14.344C147.021 14.168 146.953 14.024 146.817 13.912C146.689 13.8 146.449 13.688 146.097 13.576L145.569 13.432C144.505 13.144 143.981 12.532 143.997 11.596C143.997 11.076 144.201 10.66 144.609 10.348C145.017 10.036 145.529 9.88 146.145 9.88C147.073 9.88 147.749 10.22 148.173 10.9L147.261 11.596C146.957 11.188 146.577 10.984 146.121 10.984C145.905 10.984 145.717 11.036 145.557 11.14C145.397 11.236 145.317 11.372 145.317 11.548C145.317 11.708 145.369 11.844 145.473 11.956C145.577 12.068 145.765 12.168 146.037 12.256L146.649 12.436C147.209 12.604 147.629 12.832 147.909 13.12C148.189 13.4 148.329 13.78 148.329 14.26C148.329 14.828 148.125 15.28 147.717 15.616C147.309 15.952 146.789 16.12 146.157 16.12ZM152.411 16.12C151.499 16.12 150.747 15.828 150.155 15.244C149.571 14.66 149.279 13.912 149.279 13C149.279 12.112 149.575 11.372 150.167 10.78C150.759 10.18 151.507 9.88 152.411 9.88C153.243 9.88 153.931 10.144 154.475 10.672C155.027 11.2 155.303 11.928 155.303 12.856C155.303 13.016 155.299 13.16 155.291 13.288H150.575C150.607 13.776 150.795 14.172 151.139 14.476C151.483 14.772 151.911 14.92 152.423 14.92C153.191 14.92 153.763 14.616 154.139 14.008L155.147 14.728C154.571 15.656 153.659 16.12 152.411 16.12ZM150.635 12.328H153.971C153.899 11.912 153.711 11.588 153.407 11.356C153.111 11.116 152.763 10.996 152.363 10.996C151.947 10.996 151.575 11.112 151.247 11.344C150.927 11.576 150.723 11.904 150.635 12.328ZM158.567 16.12C158.015 16.12 157.527 16.016 157.103 15.808C156.679 15.592 156.363 15.272 156.155 14.848L157.127 14.152C157.247 14.408 157.439 14.612 157.703 14.764C157.967 14.908 158.255 14.98 158.567 14.98C158.815 14.98 159.019 14.924 159.179 14.812C159.347 14.7 159.431 14.544 159.431 14.344C159.431 14.168 159.363 14.024 159.227 13.912C159.099 13.8 158.859 13.688 158.507 13.576L157.979 13.432C156.915 13.144 156.391 12.532 156.407 11.596C156.407 11.076 156.611 10.66 157.019 10.348C157.427 10.036 157.939 9.88 158.555 9.88C159.483 9.88 160.159 10.22 160.583 10.9L159.671 11.596C159.367 11.188 158.987 10.984 158.531 10.984C158.315 10.984 158.127 11.036 157.967 11.14C157.807 11.236 157.727 11.372 157.727 11.548C157.727 11.708 157.779 11.844 157.883 11.956C157.987 12.068 158.175 12.168 158.447 12.256L159.059 12.436C159.619 12.604 160.039 12.832 160.319 13.12C160.599 13.4 160.739 13.78 160.739 14.26C160.739 14.828 160.535 15.28 160.127 15.616C159.719 15.952 159.199 16.12 158.567 16.12Z" fill="#00292C" fill-opacity="0.65"/>
</svg>
