<svg width="206" height="24" viewBox="0 0 206 24" fill="none" xmlns="http://www.w3.org/2000/svg">
<path d="M12 22C17.5 22 22 17.5 22 12C22 6.5 17.5 2 12 2C6.5 2 2 6.5 2 12C2 17.5 6.5 22 12 22Z" fill="#008E97" fill-opacity="0.13"/>
<path d="M7.75 11.9999L10.58 14.8299L16.25 9.16992" stroke="#008E97" stroke-width="1.5" stroke-linecap="round" stroke-linejoin="round"/>
<path d="M35.044 16V7.48H40.168V8.824H36.448V11.008H39.448V12.352H36.448V14.656H40.168V16H35.044ZM45.6463 16L44.0263 13.972L42.4063 16H40.7983L43.1863 13.012L40.9303 10H42.5023L44.0143 12.016L45.5263 10H47.1103L44.8543 13.012L47.2423 16H45.6463ZM50.6318 16.12C49.7278 16.12 48.9718 15.824 48.3638 15.232C47.7638 14.632 47.4638 13.888 47.4638 13C47.4638 12.112 47.7638 11.372 48.3638 10.78C48.9718 10.18 49.7278 9.88 50.6318 9.88C51.2478 9.88 51.7998 10.028 52.2878 10.324C52.7838 10.62 53.1638 11.024 53.4278 11.536L52.2758 12.16C52.1238 11.84 51.9038 11.584 51.6158 11.392C51.3278 11.2 50.9998 11.104 50.6318 11.104C50.1038 11.104 49.6678 11.288 49.3238 11.656C48.9798 12.016 48.8078 12.464 48.8078 13C48.8078 13.536 48.9798 13.988 49.3238 14.356C49.6678 14.716 50.1038 14.896 50.6318 14.896C50.9998 14.896 51.3278 14.8 51.6158 14.608C51.9038 14.416 52.1238 14.16 52.2758 13.84L53.4278 14.464C53.1638 14.976 52.7838 15.38 52.2878 15.676C51.7998 15.972 51.2478 16.12 50.6318 16.12ZM54.6341 16V7H55.9541V16H54.6341ZM59.8758 16.12C59.1878 16.12 58.6438 15.892 58.2438 15.436C57.8438 14.972 57.6438 14.356 57.6438 13.588V10H58.9638V13.372C58.9638 13.852 59.0678 14.232 59.2758 14.512C59.4838 14.784 59.7798 14.92 60.1638 14.92C60.6118 14.92 60.9678 14.752 61.2318 14.416C61.4958 14.072 61.6278 13.584 61.6278 12.952V10H62.9478V16H61.6278V15.184C61.2758 15.808 60.6918 16.12 59.8758 16.12ZM66.6319 16.12C66.0799 16.12 65.5919 16.016 65.1679 15.808C64.7439 15.592 64.4279 15.272 64.2199 14.848L65.1919 14.152C65.3119 14.408 65.5039 14.612 65.7679 14.764C66.0319 14.908 66.3199 14.98 66.6319 14.98C66.8799 14.98 67.0839 14.924 67.2439 14.812C67.4119 14.7 67.4959 14.544 67.4959 14.344C67.4959 14.168 67.4279 14.024 67.2919 13.912C67.1639 13.8 66.9239 13.688 66.5719 13.576L66.0439 13.432C64.9799 13.144 64.4559 12.532 64.4719 11.596C64.4719 11.076 64.6759 10.66 65.0839 10.348C65.4919 10.036 66.0039 9.88 66.6199 9.88C67.5479 9.88 68.2239 10.22 68.6479 10.9L67.7359 11.596C67.4319 11.188 67.0519 10.984 66.5959 10.984C66.3799 10.984 66.1919 11.036 66.0319 11.14C65.8719 11.236 65.7919 11.372 65.7919 11.548C65.7919 11.708 65.8439 11.844 65.9479 11.956C66.0519 12.068 66.2399 12.168 66.5119 12.256L67.1239 12.436C67.6839 12.604 68.1039 12.832 68.3839 13.12C68.6639 13.4 68.8039 13.78 68.8039 14.26C68.8039 14.828 68.5999 15.28 68.1919 15.616C67.7839 15.952 67.2639 16.12 66.6319 16.12ZM70.8332 8.692C70.5932 8.692 70.3852 8.608 70.2092 8.44C70.0332 8.264 69.9452 8.052 69.9452 7.804C69.9452 7.564 70.0332 7.36 70.2092 7.192C70.3852 7.016 70.5932 6.928 70.8332 6.928C71.0812 6.928 71.2892 7.016 71.4572 7.192C71.6252 7.36 71.7092 7.564 71.7092 7.804C71.7092 8.052 71.6252 8.264 71.4572 8.44C71.2892 8.608 71.0812 8.692 70.8332 8.692ZM70.1732 16V10H71.4932V16H70.1732ZM75.1389 16L72.4269 10H73.8909L75.7149 14.212L77.5509 10H79.0269L76.3029 16H75.1389ZM82.5063 16.12C81.5943 16.12 80.8423 15.828 80.2503 15.244C79.6663 14.66 79.3743 13.912 79.3743 13C79.3743 12.112 79.6703 11.372 80.2623 10.78C80.8543 10.18 81.6023 9.88 82.5063 9.88C83.3383 9.88 84.0263 10.144 84.5703 10.672C85.1223 11.2 85.3983 11.928 85.3983 12.856C85.3983 13.016 85.3943 13.16 85.3863 13.288H80.6702C80.7023 13.776 80.8903 14.172 81.2343 14.476C81.5783 14.772 82.0063 14.92 82.5183 14.92C83.2863 14.92 83.8583 14.616 84.2343 14.008L85.2422 14.728C84.6663 15.656 83.7543 16.12 82.5063 16.12ZM80.7303 12.328H84.0663C83.9943 11.912 83.8063 11.588 83.5023 11.356C83.2063 11.116 82.8583 10.996 82.4583 10.996C82.0423 10.996 81.6703 11.112 81.3423 11.344C81.0223 11.576 80.8183 11.904 80.7303 12.328ZM94.4805 16L93.1605 12.124L91.8525 16H90.6045L88.5885 10H89.9805L91.2765 14.14L92.6565 10H93.6645L95.0205 14.14L96.3405 10H97.7445L95.7285 16H94.4805ZM101.397 16.12C100.485 16.12 99.7329 15.828 99.1409 15.244C98.5569 14.66 98.2649 13.912 98.2649 13C98.2649 12.112 98.5609 11.372 99.1529 10.78C99.7449 10.18 100.493 9.88 101.397 9.88C102.229 9.88 102.917 10.144 103.461 10.672C104.013 11.2 104.289 11.928 104.289 12.856C104.289 13.016 104.285 13.16 104.277 13.288H99.5609C99.5929 13.776 99.7809 14.172 100.125 14.476C100.469 14.772 100.897 14.92 101.409 14.92C102.177 14.92 102.749 14.616 103.125 14.008L104.133 14.728C103.557 15.656 102.645 16.12 101.397 16.12ZM99.6209 12.328H102.957C102.885 11.912 102.697 11.588 102.393 11.356C102.097 11.116 101.749 10.996 101.349 10.996C100.933 10.996 100.561 11.112 100.233 11.344C99.9129 11.576 99.7089 11.904 99.6209 12.328ZM108.898 16.12C108.49 16.12 108.11 16.032 107.758 15.856C107.414 15.672 107.15 15.452 106.966 15.196V16H105.646V7H106.966V10.804C107.15 10.548 107.414 10.332 107.758 10.156C108.11 9.972 108.49 9.88 108.898 9.88C109.714 9.88 110.398 10.184 110.95 10.792C111.51 11.4 111.79 12.136 111.79 13C111.79 13.864 111.51 14.6 110.95 15.208C110.398 15.816 109.714 16.12 108.898 16.12ZM108.658 14.92C109.178 14.92 109.606 14.736 109.942 14.368C110.278 14 110.446 13.544 110.446 13C110.446 12.456 110.278 12 109.942 11.632C109.606 11.264 109.178 11.08 108.658 11.08C108.13 11.08 107.698 11.264 107.362 11.632C107.026 12 106.858 12.456 106.858 13C106.858 13.544 107.026 14 107.362 14.368C107.698 14.736 108.13 14.92 108.658 14.92ZM113.794 8.692C113.554 8.692 113.346 8.608 113.17 8.44C112.994 8.264 112.906 8.052 112.906 7.804C112.906 7.564 112.994 7.36 113.17 7.192C113.346 7.016 113.554 6.928 113.794 6.928C114.042 6.928 114.25 7.016 114.418 7.192C114.586 7.36 114.67 7.564 114.67 7.804C114.67 8.052 114.586 8.264 114.418 8.44C114.25 8.608 114.042 8.692 113.794 8.692ZM113.134 16V10H114.454V16H113.134ZM116.228 16V10H117.548V10.816C117.924 10.192 118.532 9.88 119.372 9.88C120.068 9.88 120.624 10.108 121.04 10.564C121.456 11.02 121.664 11.628 121.664 12.388V16H120.344V12.604C120.344 12.124 120.232 11.752 120.008 11.488C119.784 11.216 119.48 11.08 119.096 11.08C118.64 11.08 118.268 11.252 117.98 11.596C117.692 11.94 117.548 12.424 117.548 13.048V16H116.228ZM125.813 16.12C124.997 16.12 124.309 15.816 123.749 15.208C123.197 14.6 122.921 13.864 122.921 13C122.921 12.136 123.197 11.4 123.749 10.792C124.309 10.184 124.997 9.88 125.813 9.88C126.221 9.88 126.597 9.972 126.941 10.156C127.285 10.332 127.549 10.548 127.733 10.804V10H129.053V16H127.733V15.196C127.549 15.452 127.285 15.672 126.941 15.856C126.597 16.032 126.221 16.12 125.813 16.12ZM124.769 14.368C125.105 14.736 125.533 14.92 126.053 14.92C126.573 14.92 127.001 14.736 127.337 14.368C127.673 14 127.841 13.544 127.841 13C127.841 12.456 127.673 12 127.337 11.632C127.001 11.264 126.573 11.08 126.053 11.08C125.533 11.08 125.105 11.264 124.769 11.632C124.433 12 124.265 12.456 124.265 13C124.265 13.544 124.433 14 124.769 14.368ZM130.841 16V10H132.161V11.068C132.273 10.732 132.477 10.46 132.773 10.252C133.077 10.044 133.401 9.94 133.745 9.94C133.953 9.94 134.125 9.956 134.261 9.988V11.344C134.069 11.272 133.849 11.236 133.601 11.236C133.201 11.236 132.861 11.4 132.581 11.728C132.301 12.048 132.161 12.496 132.161 13.072V16H130.841ZM137.191 16.12C136.639 16.12 136.151 16.016 135.727 15.808C135.303 15.592 134.987 15.272 134.779 14.848L135.751 14.152C135.871 14.408 136.063 14.612 136.327 14.764C136.591 14.908 136.879 14.98 137.191 14.98C137.439 14.98 137.643 14.924 137.803 14.812C137.971 14.7 138.055 14.544 138.055 14.344C138.055 14.168 137.987 14.024 137.851 13.912C137.723 13.8 137.483 13.688 137.131 13.576L136.603 13.432C135.539 13.144 135.015 12.532 135.031 11.596C135.031 11.076 135.235 10.66 135.643 10.348C136.051 10.036 136.563 9.88 137.179 9.88C138.107 9.88 138.783 10.22 139.207 10.9L138.295 11.596C137.991 11.188 137.611 10.984 137.155 10.984C136.939 10.984 136.751 11.036 136.591 11.14C136.431 11.236 136.351 11.372 136.351 11.548C136.351 11.708 136.403 11.844 136.507 11.956C136.611 12.068 136.799 12.168 137.071 12.256L137.683 12.436C138.243 12.604 138.663 12.832 138.943 13.12C139.223 13.4 139.363 13.78 139.363 14.26C139.363 14.828 139.159 15.28 138.751 15.616C138.343 15.952 137.823 16.12 137.191 16.12ZM146.016 16.12C145.2 16.12 144.512 15.816 143.952 15.208C143.4 14.6 143.124 13.864 143.124 13C143.124 12.136 143.4 11.4 143.952 10.792C144.512 10.184 145.2 9.88 146.016 9.88C146.424 9.88 146.8 9.972 147.144 10.156C147.488 10.332 147.752 10.548 147.936 10.804V10H149.256V16H147.936V15.196C147.752 15.452 147.488 15.672 147.144 15.856C146.8 16.032 146.424 16.12 146.016 16.12ZM144.972 14.368C145.308 14.736 145.736 14.92 146.256 14.92C146.776 14.92 147.204 14.736 147.54 14.368C147.876 14 148.044 13.544 148.044 13C148.044 12.456 147.876 12 147.54 11.632C147.204 11.264 146.776 11.08 146.256 11.08C145.736 11.08 145.308 11.264 144.972 11.632C144.636 12 144.468 12.456 144.468 13C144.468 13.544 144.636 14 144.972 14.368ZM151.044 16V10H152.364V10.816C152.74 10.192 153.348 9.88 154.188 9.88C154.884 9.88 155.44 10.108 155.856 10.564C156.272 11.02 156.48 11.628 156.48 12.388V16H155.16V12.604C155.16 12.124 155.048 11.752 154.824 11.488C154.6 11.216 154.296 11.08 153.912 11.08C153.456 11.08 153.084 11.252 152.796 11.596C152.508 11.94 152.364 12.424 152.364 13.048V16H151.044ZM160.629 16.12C159.813 16.12 159.125 15.816 158.565 15.208C158.013 14.6 157.737 13.864 157.737 13C157.737 12.136 158.013 11.4 158.565 10.792C159.125 10.184 159.813 9.88 160.629 9.88C161.037 9.88 161.413 9.972 161.757 10.156C162.101 10.332 162.365 10.548 162.549 10.804V7H163.869V16H162.549V15.196C162.365 15.452 162.101 15.672 161.757 15.856C161.413 16.032 161.037 16.12 160.629 16.12ZM159.585 14.368C159.921 14.736 160.349 14.92 160.869 14.92C161.389 14.92 161.817 14.736 162.153 14.368C162.489 14 162.657 13.544 162.657 13C162.657 12.456 162.489 12 162.153 11.632C161.817 11.264 161.389 11.08 160.869 11.08C160.349 11.08 159.921 11.264 159.585 11.632C159.249 12 159.081 12.456 159.081 13C159.081 13.544 159.249 14 159.585 14.368ZM171.194 16.12C170.282 16.12 169.53 15.828 168.938 15.244C168.354 14.66 168.062 13.912 168.062 13C168.062 12.112 168.358 11.372 168.95 10.78C169.542 10.18 170.29 9.88 171.194 9.88C172.026 9.88 172.714 10.144 173.258 10.672C173.81 11.2 174.086 11.928 174.086 12.856C174.086 13.016 174.082 13.16 174.074 13.288H169.358C169.39 13.776 169.578 14.172 169.922 14.476C170.266 14.772 170.694 14.92 171.206 14.92C171.974 14.92 172.546 14.616 172.922 14.008L173.93 14.728C173.354 15.656 172.442 16.12 171.194 16.12ZM169.418 12.328H172.754C172.682 11.912 172.494 11.588 172.19 11.356C171.894 11.116 171.546 10.996 171.146 10.996C170.73 10.996 170.358 11.112 170.03 11.344C169.71 11.576 169.506 11.904 169.418 12.328ZM177.198 16L174.486 10H175.95L177.774 14.212L179.61 10H181.086L178.362 16H177.198ZM184.565 16.12C183.653 16.12 182.901 15.828 182.309 15.244C181.725 14.66 181.433 13.912 181.433 13C181.433 12.112 181.729 11.372 182.321 10.78C182.913 10.18 183.661 9.88 184.565 9.88C185.397 9.88 186.085 10.144 186.629 10.672C187.181 11.2 187.457 11.928 187.457 12.856C187.457 13.016 187.453 13.16 187.445 13.288H182.729C182.761 13.776 182.949 14.172 183.293 14.476C183.637 14.772 184.065 14.92 184.577 14.92C185.345 14.92 185.917 14.616 186.293 14.008L187.301 14.728C186.725 15.656 185.813 16.12 184.565 16.12ZM182.789 12.328H186.125C186.053 11.912 185.865 11.588 185.561 11.356C185.265 11.116 184.917 10.996 184.517 10.996C184.101 10.996 183.729 11.112 183.401 11.344C183.081 11.576 182.877 11.904 182.789 12.328ZM188.814 16V10H190.134V10.816C190.51 10.192 191.118 9.88 191.958 9.88C192.654 9.88 193.21 10.108 193.626 10.564C194.042 11.02 194.25 11.628 194.25 12.388V16H192.93V12.604C192.93 12.124 192.818 11.752 192.594 11.488C192.37 11.216 192.066 11.08 191.682 11.08C191.226 11.08 190.854 11.252 190.566 11.596C190.278 11.94 190.134 12.424 190.134 13.048V16H188.814ZM198.472 16.06C197.864 16.06 197.368 15.892 196.984 15.556C196.608 15.212 196.42 14.716 196.42 14.068V11.176H195.172V10H196.42V8.332H197.74V10H199.456V11.176H197.74V13.852C197.74 14.22 197.82 14.484 197.98 14.644C198.14 14.796 198.396 14.872 198.748 14.872C199.036 14.872 199.272 14.832 199.456 14.752V15.928C199.168 16.016 198.84 16.06 198.472 16.06ZM202.616 16.12C202.064 16.12 201.576 16.016 201.152 15.808C200.728 15.592 200.412 15.272 200.204 14.848L201.176 14.152C201.296 14.408 201.488 14.612 201.752 14.764C202.016 14.908 202.304 14.98 202.616 14.98C202.864 14.98 203.068 14.924 203.228 14.812C203.396 14.7 203.48 14.544 203.48 14.344C203.48 14.168 203.412 14.024 203.276 13.912C203.148 13.8 202.908 13.688 202.556 13.576L202.028 13.432C200.964 13.144 200.44 12.532 200.456 11.596C200.456 11.076 200.66 10.66 201.068 10.348C201.476 10.036 201.988 9.88 202.604 9.88C203.532 9.88 204.208 10.22 204.632 10.9L203.72 11.596C203.416 11.188 203.036 10.984 202.58 10.984C202.364 10.984 202.176 11.036 202.016 11.14C201.856 11.236 201.776 11.372 201.776 11.548C201.776 11.708 201.828 11.844 201.932 11.956C202.036 12.068 202.224 12.168 202.496 12.256L203.108 12.436C203.668 12.604 204.088 12.832 204.368 13.12C204.648 13.4 204.788 13.78 204.788 14.26C204.788 14.828 204.584 15.28 204.176 15.616C203.768 15.952 203.248 16.12 202.616 16.12Z" fill="#00292C" fill-opacity="0.65"/>
</svg>
