<svg width="163" height="24" viewBox="0 0 163 24" fill="none" xmlns="http://www.w3.org/2000/svg">
<path d="M12 22C17.5 22 22 17.5 22 12C22 6.5 17.5 2 12 2C6.5 2 2 6.5 2 12C2 17.5 6.5 22 12 22Z" fill="#008E97" fill-opacity="0.13"/>
<path d="M7.75 11.9999L10.58 14.8299L16.25 9.16992" stroke="#008E97" stroke-width="1.5" stroke-linecap="round" stroke-linejoin="round"/>
<path d="M34.048 16L37.768 7.48H38.992L42.712 16H41.248L40.276 13.768H36.46L35.5 16H34.048ZM38.368 9.376L37 12.52H39.736L38.368 9.376ZM46.249 16.12C45.345 16.12 44.589 15.824 43.981 15.232C43.381 14.632 43.081 13.888 43.081 13C43.081 12.112 43.381 11.372 43.981 10.78C44.589 10.18 45.345 9.88 46.249 9.88C46.865 9.88 47.417 10.028 47.905 10.324C48.401 10.62 48.781 11.024 49.045 11.536L47.893 12.16C47.741 11.84 47.521 11.584 47.233 11.392C46.945 11.2 46.617 11.104 46.249 11.104C45.721 11.104 45.285 11.288 44.941 11.656C44.597 12.016 44.425 12.464 44.425 13C44.425 13.536 44.597 13.988 44.941 14.356C45.285 14.716 45.721 14.896 46.249 14.896C46.617 14.896 46.945 14.8 47.233 14.608C47.521 14.416 47.741 14.16 47.893 13.84L49.045 14.464C48.781 14.976 48.401 15.38 47.905 15.676C47.417 15.972 46.865 16.12 46.249 16.12ZM52.9873 16.12C52.0833 16.12 51.3273 15.824 50.7193 15.232C50.1193 14.632 49.8193 13.888 49.8193 13C49.8193 12.112 50.1193 11.372 50.7193 10.78C51.3273 10.18 52.0833 9.88 52.9873 9.88C53.6033 9.88 54.1553 10.028 54.6433 10.324C55.1393 10.62 55.5193 11.024 55.7833 11.536L54.6313 12.16C54.4793 11.84 54.2593 11.584 53.9713 11.392C53.6833 11.2 53.3553 11.104 52.9873 11.104C52.4593 11.104 52.0233 11.288 51.6793 11.656C51.3353 12.016 51.1633 12.464 51.1633 13C51.1633 13.536 51.3353 13.988 51.6793 14.356C52.0233 14.716 52.4593 14.896 52.9873 14.896C53.3553 14.896 53.6833 14.8 53.9713 14.608C54.2593 14.416 54.4793 14.16 54.6313 13.84L55.7833 14.464C55.5193 14.976 55.1393 15.38 54.6433 15.676C54.1553 15.972 53.6033 16.12 52.9873 16.12ZM59.7016 16.12C58.7896 16.12 58.0376 15.828 57.4456 15.244C56.8616 14.66 56.5696 13.912 56.5696 13C56.5696 12.112 56.8656 11.372 57.4576 10.78C58.0496 10.18 58.7976 9.88 59.7016 9.88C60.5336 9.88 61.2216 10.144 61.7656 10.672C62.3176 11.2 62.5936 11.928 62.5936 12.856C62.5936 13.016 62.5896 13.16 62.5816 13.288H57.8656C57.8976 13.776 58.0856 14.172 58.4296 14.476C58.7736 14.772 59.2016 14.92 59.7136 14.92C60.4816 14.92 61.0536 14.616 61.4296 14.008L62.4376 14.728C61.8616 15.656 60.9496 16.12 59.7016 16.12ZM57.9256 12.328H61.2616C61.1896 11.912 61.0016 11.588 60.6976 11.356C60.4016 11.116 60.0536 10.996 59.6536 10.996C59.2376 10.996 58.8656 11.112 58.5376 11.344C58.2176 11.576 58.0136 11.904 57.9256 12.328ZM65.8585 16.12C65.3065 16.12 64.8185 16.016 64.3945 15.808C63.9705 15.592 63.6545 15.272 63.4465 14.848L64.4185 14.152C64.5385 14.408 64.7305 14.612 64.9945 14.764C65.2585 14.908 65.5465 14.98 65.8585 14.98C66.1065 14.98 66.3105 14.924 66.4705 14.812C66.6385 14.7 66.7225 14.544 66.7225 14.344C66.7225 14.168 66.6545 14.024 66.5185 13.912C66.3905 13.8 66.1505 13.688 65.7985 13.576L65.2705 13.432C64.2065 13.144 63.6825 12.532 63.6985 11.596C63.6985 11.076 63.9025 10.66 64.3105 10.348C64.7185 10.036 65.2305 9.88 65.8465 9.88C66.7745 9.88 67.4505 10.22 67.8745 10.9L66.9625 11.596C66.6585 11.188 66.2785 10.984 65.8225 10.984C65.6065 10.984 65.4185 11.036 65.2585 11.14C65.0985 11.236 65.0185 11.372 65.0185 11.548C65.0185 11.708 65.0705 11.844 65.1745 11.956C65.2785 12.068 65.4665 12.168 65.7385 12.256L66.3505 12.436C66.9105 12.604 67.3305 12.832 67.6105 13.12C67.8905 13.4 68.0305 13.78 68.0305 14.26C68.0305 14.828 67.8265 15.28 67.4185 15.616C67.0105 15.952 66.4905 16.12 65.8585 16.12ZM71.3077 16.12C70.7557 16.12 70.2677 16.016 69.8437 15.808C69.4197 15.592 69.1037 15.272 68.8957 14.848L69.8677 14.152C69.9877 14.408 70.1797 14.612 70.4437 14.764C70.7077 14.908 70.9957 14.98 71.3077 14.98C71.5557 14.98 71.7597 14.924 71.9197 14.812C72.0877 14.7 72.1717 14.544 72.1717 14.344C72.1717 14.168 72.1037 14.024 71.9677 13.912C71.8397 13.8 71.5997 13.688 71.2477 13.576L70.7197 13.432C69.6557 13.144 69.1317 12.532 69.1477 11.596C69.1477 11.076 69.3517 10.66 69.7597 10.348C70.1677 10.036 70.6797 9.88 71.2957 9.88C72.2237 9.88 72.8997 10.22 73.3237 10.9L72.4117 11.596C72.1077 11.188 71.7277 10.984 71.2717 10.984C71.0557 10.984 70.8677 11.036 70.7077 11.14C70.5477 11.236 70.4677 11.372 70.4677 11.548C70.4677 11.708 70.5197 11.844 70.6237 11.956C70.7277 12.068 70.9157 12.168 71.1877 12.256L71.7997 12.436C72.3597 12.604 72.7797 12.832 73.0597 13.12C73.3397 13.4 73.4797 13.78 73.4797 14.26C73.4797 14.828 73.2757 15.28 72.8677 15.616C72.4597 15.952 71.9397 16.12 71.3077 16.12ZM80.0779 16.06C79.4699 16.06 78.9739 15.892 78.5899 15.556C78.2139 15.212 78.0259 14.716 78.0259 14.068V11.176H76.7779V10H78.0259V8.332H79.3459V10H81.0619V11.176H79.3459V13.852C79.3459 14.22 79.4259 14.484 79.5859 14.644C79.7459 14.796 80.0019 14.872 80.3539 14.872C80.6419 14.872 80.8779 14.832 81.0619 14.752V15.928C80.7739 16.016 80.4459 16.06 80.0779 16.06ZM87.1758 15.22C86.5758 15.82 85.8318 16.12 84.9438 16.12C84.0558 16.12 83.3078 15.82 82.6998 15.22C82.0998 14.612 81.7998 13.872 81.7998 13C81.7998 12.128 82.0998 11.392 82.6998 10.792C83.3078 10.184 84.0558 9.88 84.9438 9.88C85.8318 9.88 86.5758 10.184 87.1758 10.792C87.7838 11.392 88.0878 12.128 88.0878 13C88.0878 13.872 87.7838 14.612 87.1758 15.22ZM84.9438 14.896C85.4638 14.896 85.8918 14.716 86.2278 14.356C86.5718 13.988 86.7438 13.536 86.7438 13C86.7438 12.464 86.5718 12.016 86.2278 11.656C85.8918 11.288 85.4638 11.104 84.9438 11.104C84.4158 11.104 83.9798 11.288 83.6358 11.656C83.2998 12.016 83.1318 12.464 83.1318 13C83.1318 13.536 83.2998 13.988 83.6358 14.356C83.9798 14.716 84.4158 14.896 84.9438 14.896ZM93.5596 18.508H92.2396V10H93.5596V10.804C93.7436 10.548 94.0076 10.332 94.3516 10.156C94.7036 9.972 95.0836 9.88 95.4916 9.88C96.3076 9.88 96.9916 10.184 97.5436 10.792C98.1036 11.4 98.3836 12.136 98.3836 13C98.3836 13.864 98.1036 14.6 97.5436 15.208C96.9916 15.816 96.3076 16.12 95.4916 16.12C95.0836 16.12 94.7036 16.032 94.3516 15.856C94.0076 15.672 93.7436 15.452 93.5596 15.196V18.508ZM95.2516 14.92C95.7716 14.92 96.1996 14.736 96.5356 14.368C96.8716 14 97.0396 13.544 97.0396 13C97.0396 12.456 96.8716 12 96.5356 11.632C96.1996 11.264 95.7716 11.08 95.2516 11.08C94.7236 11.08 94.2916 11.264 93.9556 11.632C93.6196 12 93.4516 12.456 93.4516 13C93.4516 13.544 93.6196 14 93.9556 14.368C94.2916 14.736 94.7236 14.92 95.2516 14.92ZM102.188 16.12C101.372 16.12 100.684 15.816 100.124 15.208C99.5718 14.6 99.2958 13.864 99.2958 13C99.2958 12.136 99.5718 11.4 100.124 10.792C100.684 10.184 101.372 9.88 102.188 9.88C102.596 9.88 102.972 9.972 103.316 10.156C103.66 10.332 103.924 10.548 104.108 10.804V10H105.428V16H104.108V15.196C103.924 15.452 103.66 15.672 103.316 15.856C102.972 16.032 102.596 16.12 102.188 16.12ZM101.144 14.368C101.48 14.736 101.908 14.92 102.428 14.92C102.948 14.92 103.376 14.736 103.712 14.368C104.048 14 104.216 13.544 104.216 13C104.216 12.456 104.048 12 103.712 11.632C103.376 11.264 102.948 11.08 102.428 11.08C101.908 11.08 101.48 11.264 101.144 11.632C100.808 12 100.64 12.456 100.64 13C100.64 13.544 100.808 14 101.144 14.368ZM107.876 8.692C107.636 8.692 107.428 8.608 107.252 8.44C107.076 8.264 106.988 8.052 106.988 7.804C106.988 7.564 107.076 7.36 107.252 7.192C107.428 7.016 107.636 6.928 107.876 6.928C108.124 6.928 108.332 7.016 108.5 7.192C108.668 7.36 108.752 7.564 108.752 7.804C108.752 8.052 108.668 8.264 108.5 8.44C108.332 8.608 108.124 8.692 107.876 8.692ZM107.216 16V10H108.536V16H107.216ZM112.77 16.12C111.954 16.12 111.266 15.816 110.706 15.208C110.154 14.6 109.878 13.864 109.878 13C109.878 12.136 110.154 11.4 110.706 10.792C111.266 10.184 111.954 9.88 112.77 9.88C113.178 9.88 113.554 9.972 113.898 10.156C114.242 10.332 114.506 10.548 114.69 10.804V7H116.01V16H114.69V15.196C114.506 15.452 114.242 15.672 113.898 15.856C113.554 16.032 113.178 16.12 112.77 16.12ZM111.726 14.368C112.062 14.736 112.49 14.92 113.01 14.92C113.53 14.92 113.958 14.736 114.294 14.368C114.63 14 114.798 13.544 114.798 13C114.798 12.456 114.63 12 114.294 11.632C113.958 11.264 113.53 11.08 113.01 11.08C112.49 11.08 112.062 11.264 111.726 11.632C111.39 12 111.222 12.456 111.222 13C111.222 13.544 111.39 14 111.726 14.368ZM123.358 16.12C122.454 16.12 121.698 15.824 121.09 15.232C120.49 14.632 120.19 13.888 120.19 13C120.19 12.112 120.49 11.372 121.09 10.78C121.698 10.18 122.454 9.88 123.358 9.88C123.974 9.88 124.526 10.028 125.014 10.324C125.51 10.62 125.89 11.024 126.154 11.536L125.002 12.16C124.85 11.84 124.63 11.584 124.342 11.392C124.054 11.2 123.726 11.104 123.358 11.104C122.83 11.104 122.394 11.288 122.05 11.656C121.706 12.016 121.534 12.464 121.534 13C121.534 13.536 121.706 13.988 122.05 14.356C122.394 14.716 122.83 14.896 123.358 14.896C123.726 14.896 124.054 14.8 124.342 14.608C124.63 14.416 124.85 14.16 125.002 13.84L126.154 14.464C125.89 14.976 125.51 15.38 125.014 15.676C124.526 15.972 123.974 16.12 123.358 16.12ZM132.305 15.22C131.705 15.82 130.961 16.12 130.073 16.12C129.185 16.12 128.437 15.82 127.829 15.22C127.229 14.612 126.929 13.872 126.929 13C126.929 12.128 127.229 11.392 127.829 10.792C128.437 10.184 129.185 9.88 130.073 9.88C130.961 9.88 131.705 10.184 132.305 10.792C132.913 11.392 133.217 12.128 133.217 13C133.217 13.872 132.913 14.612 132.305 15.22ZM130.073 14.896C130.593 14.896 131.021 14.716 131.357 14.356C131.701 13.988 131.873 13.536 131.873 13C131.873 12.464 131.701 12.016 131.357 11.656C131.021 11.288 130.593 11.104 130.073 11.104C129.545 11.104 129.109 11.288 128.765 11.656C128.429 12.016 128.261 12.464 128.261 13C128.261 13.536 128.429 13.988 128.765 14.356C129.109 14.716 129.545 14.896 130.073 14.896ZM136.692 16.12C136.004 16.12 135.46 15.892 135.06 15.436C134.66 14.972 134.46 14.356 134.46 13.588V10H135.78V13.372C135.78 13.852 135.884 14.232 136.092 14.512C136.3 14.784 136.596 14.92 136.98 14.92C137.428 14.92 137.784 14.752 138.048 14.416C138.312 14.072 138.444 13.584 138.444 12.952V10H139.764V16H138.444V15.184C138.092 15.808 137.508 16.12 136.692 16.12ZM141.54 16V10H142.86V11.068C142.972 10.732 143.176 10.46 143.472 10.252C143.776 10.044 144.1 9.94 144.444 9.94C144.652 9.94 144.824 9.956 144.96 9.988V11.344C144.768 11.272 144.548 11.236 144.3 11.236C143.9 11.236 143.56 11.4 143.28 11.728C143 12.048 142.86 12.496 142.86 13.072V16H141.54ZM147.89 16.12C147.338 16.12 146.85 16.016 146.426 15.808C146.002 15.592 145.686 15.272 145.478 14.848L146.45 14.152C146.57 14.408 146.762 14.612 147.026 14.764C147.29 14.908 147.578 14.98 147.89 14.98C148.138 14.98 148.342 14.924 148.502 14.812C148.67 14.7 148.754 14.544 148.754 14.344C148.754 14.168 148.686 14.024 148.55 13.912C148.422 13.8 148.182 13.688 147.83 13.576L147.302 13.432C146.238 13.144 145.714 12.532 145.73 11.596C145.73 11.076 145.934 10.66 146.342 10.348C146.75 10.036 147.262 9.88 147.878 9.88C148.806 9.88 149.482 10.22 149.906 10.9L148.994 11.596C148.69 11.188 148.31 10.984 147.854 10.984C147.638 10.984 147.45 11.036 147.29 11.14C147.13 11.236 147.05 11.372 147.05 11.548C147.05 11.708 147.102 11.844 147.206 11.956C147.31 12.068 147.498 12.168 147.77 12.256L148.382 12.436C148.942 12.604 149.362 12.832 149.642 13.12C149.922 13.4 150.062 13.78 150.062 14.26C150.062 14.828 149.858 15.28 149.45 15.616C149.042 15.952 148.522 16.12 147.89 16.12ZM154.143 16.12C153.231 16.12 152.479 15.828 151.887 15.244C151.303 14.66 151.011 13.912 151.011 13C151.011 12.112 151.307 11.372 151.899 10.78C152.491 10.18 153.239 9.88 154.143 9.88C154.975 9.88 155.663 10.144 156.207 10.672C156.759 11.2 157.035 11.928 157.035 12.856C157.035 13.016 157.031 13.16 157.023 13.288H152.307C152.339 13.776 152.527 14.172 152.871 14.476C153.215 14.772 153.643 14.92 154.155 14.92C154.923 14.92 155.495 14.616 155.871 14.008L156.879 14.728C156.303 15.656 155.391 16.12 154.143 16.12ZM152.367 12.328H155.703C155.631 11.912 155.443 11.588 155.139 11.356C154.843 11.116 154.495 10.996 154.095 10.996C153.679 10.996 153.307 11.112 152.979 11.344C152.659 11.576 152.455 11.904 152.367 12.328ZM160.3 16.12C159.748 16.12 159.26 16.016 158.836 15.808C158.412 15.592 158.096 15.272 157.888 14.848L158.86 14.152C158.98 14.408 159.172 14.612 159.436 14.764C159.7 14.908 159.988 14.98 160.3 14.98C160.548 14.98 160.752 14.924 160.912 14.812C161.08 14.7 161.164 14.544 161.164 14.344C161.164 14.168 161.096 14.024 160.96 13.912C160.832 13.8 160.592 13.688 160.24 13.576L159.712 13.432C158.648 13.144 158.124 12.532 158.14 11.596C158.14 11.076 158.344 10.66 158.752 10.348C159.16 10.036 159.672 9.88 160.288 9.88C161.216 9.88 161.892 10.22 162.316 10.9L161.404 11.596C161.1 11.188 160.72 10.984 160.264 10.984C160.048 10.984 159.86 11.036 159.7 11.14C159.54 11.236 159.46 11.372 159.46 11.548C159.46 11.708 159.512 11.844 159.616 11.956C159.72 12.068 159.908 12.168 160.18 12.256L160.792 12.436C161.352 12.604 161.772 12.832 162.052 13.12C162.332 13.4 162.472 13.78 162.472 14.26C162.472 14.828 162.268 15.28 161.86 15.616C161.452 15.952 160.932 16.12 160.3 16.12Z" fill="#00292C" fill-opacity="0.65"/>
</svg>
