<svg width="261" height="24" viewBox="0 0 261 24" fill="none" xmlns="http://www.w3.org/2000/svg">
<path d="M12 22C17.5 22 22 17.5 22 12C22 6.5 17.5 2 12 2C6.5 2 2 6.5 2 12C2 17.5 6.5 22 12 22Z" fill="#008E97" fill-opacity="0.13"/>
<path d="M7.75 11.9999L10.58 14.8299L16.25 9.16992" stroke="#008E97" stroke-width="1.5" stroke-linecap="round" stroke-linejoin="round"/>
<path d="M35.044 16V7.48H38.116C38.9 7.48 39.524 7.708 39.988 8.164C40.46 8.612 40.696 9.192 40.696 9.904C40.696 10.504 40.528 11 40.192 11.392C39.864 11.776 39.388 12.036 38.764 12.172L41.932 16H40.204L37.084 12.256H36.448V16H35.044ZM36.448 11.032H37.948C38.364 11.032 38.692 10.936 38.932 10.744C39.172 10.544 39.292 10.264 39.292 9.904C39.292 9.544 39.172 9.268 38.932 9.076C38.692 8.876 38.364 8.776 37.948 8.776H36.448V11.032ZM45.1117 16.12C44.1997 16.12 43.4477 15.828 42.8557 15.244C42.2717 14.66 41.9797 13.912 41.9797 13C41.9797 12.112 42.2757 11.372 42.8677 10.78C43.4597 10.18 44.2077 9.88 45.1117 9.88C45.9437 9.88 46.6317 10.144 47.1757 10.672C47.7277 11.2 48.0037 11.928 48.0037 12.856C48.0037 13.016 47.9997 13.16 47.9917 13.288H43.2757C43.3077 13.776 43.4957 14.172 43.8397 14.476C44.1837 14.772 44.6117 14.92 45.1237 14.92C45.8917 14.92 46.4637 14.616 46.8397 14.008L47.8477 14.728C47.2717 15.656 46.3597 16.12 45.1117 16.12ZM43.3357 12.328H46.6717C46.5997 11.912 46.4117 11.588 46.1077 11.356C45.8117 11.116 45.4637 10.996 45.0637 10.996C44.6477 10.996 44.2757 11.112 43.9477 11.344C43.6277 11.576 43.4237 11.904 43.3357 12.328ZM51.2687 16.12C50.7167 16.12 50.2287 16.016 49.8047 15.808C49.3807 15.592 49.0647 15.272 48.8567 14.848L49.8287 14.152C49.9487 14.408 50.1407 14.612 50.4047 14.764C50.6687 14.908 50.9567 14.98 51.2687 14.98C51.5167 14.98 51.7207 14.924 51.8807 14.812C52.0487 14.7 52.1327 14.544 52.1327 14.344C52.1327 14.168 52.0647 14.024 51.9287 13.912C51.8007 13.8 51.5607 13.688 51.2087 13.576L50.6807 13.432C49.6167 13.144 49.0927 12.532 49.1087 11.596C49.1087 11.076 49.3127 10.66 49.7207 10.348C50.1287 10.036 50.6407 9.88 51.2567 9.88C52.1847 9.88 52.8607 10.22 53.2847 10.9L52.3727 11.596C52.0687 11.188 51.6887 10.984 51.2327 10.984C51.0167 10.984 50.8287 11.036 50.6687 11.14C50.5087 11.236 50.4287 11.372 50.4287 11.548C50.4287 11.708 50.4807 11.844 50.5847 11.956C50.6887 12.068 50.8767 12.168 51.1487 12.256L51.7607 12.436C52.3207 12.604 52.7407 12.832 53.0207 13.12C53.3007 13.4 53.4407 13.78 53.4407 14.26C53.4407 14.828 53.2367 15.28 52.8287 15.616C52.4207 15.952 51.9007 16.12 51.2687 16.12ZM59.7539 15.22C59.1539 15.82 58.4099 16.12 57.5219 16.12C56.6339 16.12 55.8859 15.82 55.2779 15.22C54.6779 14.612 54.3779 13.872 54.3779 13C54.3779 12.128 54.6779 11.392 55.2779 10.792C55.8859 10.184 56.6339 9.88 57.5219 9.88C58.4099 9.88 59.1539 10.184 59.7539 10.792C60.3619 11.392 60.6659 12.128 60.6659 13C60.6659 13.872 60.3619 14.612 59.7539 15.22ZM57.5219 14.896C58.0419 14.896 58.4699 14.716 58.8059 14.356C59.1499 13.988 59.3219 13.536 59.3219 13C59.3219 12.464 59.1499 12.016 58.8059 11.656C58.4699 11.288 58.0419 11.104 57.5219 11.104C56.9939 11.104 56.5579 11.288 56.2139 11.656C55.8779 12.016 55.7099 12.464 55.7099 13C55.7099 13.536 55.8779 13.988 56.2139 14.356C56.5579 14.716 56.9939 14.896 57.5219 14.896ZM64.1415 16.12C63.4535 16.12 62.9095 15.892 62.5095 15.436C62.1095 14.972 61.9095 14.356 61.9095 13.588V10H63.2295V13.372C63.2295 13.852 63.3335 14.232 63.5415 14.512C63.7495 14.784 64.0455 14.92 64.4295 14.92C64.8775 14.92 65.2335 14.752 65.4975 14.416C65.7615 14.072 65.8935 13.584 65.8935 12.952V10H67.2135V16H65.8935V15.184C65.5415 15.808 64.9575 16.12 64.1415 16.12ZM68.9896 16V10H70.3096V11.068C70.4216 10.732 70.6256 10.46 70.9216 10.252C71.2256 10.044 71.5496 9.94 71.8936 9.94C72.1016 9.94 72.2736 9.956 72.4096 9.988V11.344C72.2176 11.272 71.9976 11.236 71.7496 11.236C71.3496 11.236 71.0096 11.4 70.7296 11.728C70.4496 12.048 70.3096 12.496 70.3096 13.072V16H68.9896ZM76.0732 16.12C75.1692 16.12 74.4132 15.824 73.8052 15.232C73.2052 14.632 72.9052 13.888 72.9052 13C72.9052 12.112 73.2052 11.372 73.8052 10.78C74.4132 10.18 75.1692 9.88 76.0732 9.88C76.6892 9.88 77.2412 10.028 77.7292 10.324C78.2252 10.62 78.6052 11.024 78.8692 11.536L77.7172 12.16C77.5652 11.84 77.3452 11.584 77.0572 11.392C76.7692 11.2 76.4412 11.104 76.0732 11.104C75.5452 11.104 75.1092 11.288 74.7652 11.656C74.4212 12.016 74.2492 12.464 74.2492 13C74.2492 13.536 74.4212 13.988 74.7652 14.356C75.1092 14.716 75.5452 14.896 76.0732 14.896C76.4412 14.896 76.7692 14.8 77.0572 14.608C77.3452 14.416 77.5652 14.16 77.7172 13.84L78.8692 14.464C78.6052 14.976 78.2252 15.38 77.7292 15.676C77.2412 15.972 76.6892 16.12 76.0732 16.12ZM82.7875 16.12C81.8755 16.12 81.1235 15.828 80.5315 15.244C79.9475 14.66 79.6555 13.912 79.6555 13C79.6555 12.112 79.9515 11.372 80.5435 10.78C81.1355 10.18 81.8835 9.88 82.7875 9.88C83.6195 9.88 84.3075 10.144 84.8515 10.672C85.4035 11.2 85.6795 11.928 85.6795 12.856C85.6795 13.016 85.6755 13.16 85.6675 13.288H80.9515C80.9835 13.776 81.1715 14.172 81.5155 14.476C81.8595 14.772 82.2875 14.92 82.7995 14.92C83.5675 14.92 84.1395 14.616 84.5155 14.008L85.5235 14.728C84.9475 15.656 84.0355 16.12 82.7875 16.12ZM81.0115 12.328H84.3475C84.2755 11.912 84.0875 11.588 83.7835 11.356C83.4875 11.116 83.1395 10.996 82.7395 10.996C82.3235 10.996 81.9515 11.112 81.6235 11.344C81.3035 11.576 81.0995 11.904 81.0115 12.328ZM88.9444 16.12C88.3924 16.12 87.9044 16.016 87.4804 15.808C87.0564 15.592 86.7404 15.272 86.5324 14.848L87.5044 14.152C87.6244 14.408 87.8164 14.612 88.0804 14.764C88.3444 14.908 88.6324 14.98 88.9444 14.98C89.1924 14.98 89.3964 14.924 89.5564 14.812C89.7244 14.7 89.8084 14.544 89.8084 14.344C89.8084 14.168 89.7404 14.024 89.6044 13.912C89.4764 13.8 89.2364 13.688 88.8844 13.576L88.3564 13.432C87.2924 13.144 86.7684 12.532 86.7844 11.596C86.7844 11.076 86.9884 10.66 87.3964 10.348C87.8044 10.036 88.3164 9.88 88.9324 9.88C89.8604 9.88 90.5364 10.22 90.9604 10.9L90.0484 11.596C89.7444 11.188 89.3644 10.984 88.9084 10.984C88.6924 10.984 88.5044 11.036 88.3444 11.14C88.1844 11.236 88.1044 11.372 88.1044 11.548C88.1044 11.708 88.1564 11.844 88.2604 11.956C88.3644 12.068 88.5524 12.168 88.8244 12.256L89.4364 12.436C89.9964 12.604 90.4164 12.832 90.6964 13.12C90.9764 13.4 91.1164 13.78 91.1164 14.26C91.1164 14.828 90.9124 15.28 90.5044 15.616C90.0964 15.952 89.5764 16.12 88.9444 16.12ZM97.5419 17.92H96.4739C95.4499 16.056 94.9379 14.136 94.9379 12.16C94.9379 10.184 95.4499 8.264 96.4739 6.4H97.5419C96.5739 8.28 96.0899 10.2 96.0899 12.16C96.0899 14.12 96.5739 16.04 97.5419 17.92ZM106.327 16H105.103L100.303 9.868V16H98.8995V7.48H100.123L104.911 13.6V7.48H106.327V16ZM110.854 16.12C109.942 16.12 109.19 15.828 108.598 15.244C108.014 14.66 107.722 13.912 107.722 13C107.722 12.112 108.018 11.372 108.61 10.78C109.202 10.18 109.95 9.88 110.854 9.88C111.686 9.88 112.374 10.144 112.918 10.672C113.47 11.2 113.746 11.928 113.746 12.856C113.746 13.016 113.742 13.16 113.734 13.288H109.018C109.05 13.776 109.238 14.172 109.582 14.476C109.926 14.772 110.354 14.92 110.866 14.92C111.634 14.92 112.206 14.616 112.582 14.008L113.59 14.728C113.014 15.656 112.102 16.12 110.854 16.12ZM109.078 12.328H112.414C112.342 11.912 112.154 11.588 111.85 11.356C111.554 11.116 111.206 10.996 110.806 10.996C110.39 10.996 110.018 11.112 109.69 11.344C109.37 11.576 109.166 11.904 109.078 12.328ZM120.18 16L118.86 12.124L117.552 16H116.304L114.288 10H115.68L116.976 14.14L118.356 10H119.364L120.72 14.14L122.04 10H123.444L121.428 16H120.18ZM126.304 16.12C125.752 16.12 125.264 16.016 124.84 15.808C124.416 15.592 124.1 15.272 123.892 14.848L124.864 14.152C124.984 14.408 125.176 14.612 125.44 14.764C125.704 14.908 125.992 14.98 126.304 14.98C126.552 14.98 126.756 14.924 126.916 14.812C127.084 14.7 127.168 14.544 127.168 14.344C127.168 14.168 127.1 14.024 126.964 13.912C126.836 13.8 126.596 13.688 126.244 13.576L125.716 13.432C124.652 13.144 124.128 12.532 124.144 11.596C124.144 11.076 124.348 10.66 124.756 10.348C125.164 10.036 125.676 9.88 126.292 9.88C127.22 9.88 127.896 10.22 128.32 10.9L127.408 11.596C127.104 11.188 126.724 10.984 126.268 10.984C126.052 10.984 125.864 11.036 125.704 11.14C125.544 11.236 125.464 11.372 125.464 11.548C125.464 11.708 125.516 11.844 125.62 11.956C125.724 12.068 125.912 12.168 126.184 12.256L126.796 12.436C127.356 12.604 127.776 12.832 128.056 13.12C128.336 13.4 128.476 13.78 128.476 14.26C128.476 14.828 128.272 15.28 127.864 15.616C127.456 15.952 126.936 16.12 126.304 16.12ZM129.845 16V7H131.165V16H129.845ZM135.651 16.12C134.739 16.12 133.987 15.828 133.395 15.244C132.811 14.66 132.519 13.912 132.519 13C132.519 12.112 132.815 11.372 133.407 10.78C133.999 10.18 134.747 9.88 135.651 9.88C136.483 9.88 137.171 10.144 137.715 10.672C138.267 11.2 138.543 11.928 138.543 12.856C138.543 13.016 138.539 13.16 138.531 13.288H133.815C133.847 13.776 134.035 14.172 134.379 14.476C134.723 14.772 135.151 14.92 135.663 14.92C136.431 14.92 137.003 14.616 137.379 14.008L138.387 14.728C137.811 15.656 136.899 16.12 135.651 16.12ZM133.875 12.328H137.211C137.139 11.912 136.951 11.588 136.647 11.356C136.351 11.116 136.003 10.996 135.603 10.996C135.187 10.996 134.815 11.112 134.487 11.344C134.167 11.576 133.963 11.904 133.875 12.328ZM146.874 16.06C146.266 16.06 145.77 15.892 145.386 15.556C145.01 15.212 144.822 14.716 144.822 14.068V11.176H143.766V10H144.822V8.332H146.142V10H147.858V11.176H146.142V13.852C146.142 14.22 146.222 14.48 146.382 14.632C146.542 14.784 146.798 14.86 147.15 14.86C147.454 14.86 147.69 14.824 147.858 14.752V15.928C147.57 16.016 147.242 16.06 146.874 16.06ZM142.41 16.06C141.802 16.06 141.306 15.892 140.922 15.556C140.546 15.212 140.358 14.716 140.358 14.068V11.176H139.11V10H140.358V8.332H141.678V10H143.13V11.176H141.678V13.852C141.678 14.22 141.758 14.48 141.918 14.632C142.078 14.784 142.334 14.86 142.686 14.86C142.99 14.86 143.226 14.824 143.394 14.752V15.928C143.106 16.016 142.778 16.06 142.41 16.06ZM151.741 16.12C150.829 16.12 150.077 15.828 149.485 15.244C148.901 14.66 148.609 13.912 148.609 13C148.609 12.112 148.905 11.372 149.497 10.78C150.089 10.18 150.837 9.88 151.741 9.88C152.573 9.88 153.261 10.144 153.805 10.672C154.357 11.2 154.633 11.928 154.633 12.856C154.633 13.016 154.629 13.16 154.621 13.288H149.905C149.937 13.776 150.125 14.172 150.469 14.476C150.813 14.772 151.241 14.92 151.753 14.92C152.521 14.92 153.093 14.616 153.469 14.008L154.477 14.728C153.901 15.656 152.989 16.12 151.741 16.12ZM149.965 12.328H153.301C153.229 11.912 153.041 11.588 152.737 11.356C152.441 11.116 152.093 10.996 151.693 10.996C151.277 10.996 150.905 11.112 150.577 11.344C150.257 11.576 150.053 11.904 149.965 12.328ZM155.99 16V10H157.31V11.068C157.422 10.732 157.626 10.46 157.922 10.252C158.226 10.044 158.55 9.94 158.894 9.94C159.102 9.94 159.274 9.956 159.41 9.988V11.344C159.218 11.272 158.998 11.236 158.75 11.236C158.35 11.236 158.01 11.4 157.73 11.728C157.45 12.048 157.31 12.496 157.31 13.072V16H155.99ZM162.339 16.12C161.787 16.12 161.299 16.016 160.875 15.808C160.451 15.592 160.135 15.272 159.927 14.848L160.899 14.152C161.019 14.408 161.211 14.612 161.475 14.764C161.739 14.908 162.027 14.98 162.339 14.98C162.587 14.98 162.791 14.924 162.951 14.812C163.119 14.7 163.203 14.544 163.203 14.344C163.203 14.168 163.135 14.024 162.999 13.912C162.871 13.8 162.631 13.688 162.279 13.576L161.751 13.432C160.687 13.144 160.163 12.532 160.179 11.596C160.179 11.076 160.383 10.66 160.791 10.348C161.199 10.036 161.711 9.88 162.327 9.88C163.255 9.88 163.931 10.22 164.355 10.9L163.443 11.596C163.139 11.188 162.759 10.984 162.303 10.984C162.087 10.984 161.899 11.036 161.739 11.14C161.579 11.236 161.499 11.372 161.499 11.548C161.499 11.708 161.551 11.844 161.655 11.956C161.759 12.068 161.947 12.168 162.219 12.256L162.831 12.436C163.391 12.604 163.811 12.832 164.091 13.12C164.371 13.4 164.511 13.78 164.511 14.26C164.511 14.828 164.307 15.28 163.899 15.616C163.491 15.952 162.971 16.12 162.339 16.12ZM167.428 15.7L166.144 17.764H165.328L166.156 16C165.988 15.928 165.848 15.808 165.736 15.64C165.624 15.464 165.568 15.268 165.568 15.052C165.568 14.764 165.668 14.52 165.868 14.32C166.068 14.112 166.312 14.008 166.6 14.008C166.888 14.008 167.132 14.112 167.332 14.32C167.532 14.52 167.632 14.764 167.632 15.052C167.632 15.284 167.564 15.5 167.428 15.7ZM174.3 16L170.724 7.48H172.26L174.912 13.852L177.552 7.48H179.1L175.524 16H174.3ZM180.72 8.692C180.48 8.692 180.272 8.608 180.096 8.44C179.92 8.264 179.832 8.052 179.832 7.804C179.832 7.564 179.92 7.36 180.096 7.192C180.272 7.016 180.48 6.928 180.72 6.928C180.968 6.928 181.176 7.016 181.344 7.192C181.512 7.36 181.596 7.564 181.596 7.804C181.596 8.052 181.512 8.264 181.344 8.44C181.176 8.608 180.968 8.692 180.72 8.692ZM180.06 16V10H181.38V16H180.06ZM185.614 16.12C184.798 16.12 184.11 15.816 183.55 15.208C182.998 14.6 182.722 13.864 182.722 13C182.722 12.136 182.998 11.4 183.55 10.792C184.11 10.184 184.798 9.88 185.614 9.88C186.022 9.88 186.398 9.972 186.742 10.156C187.086 10.332 187.35 10.548 187.534 10.804V7H188.854V16H187.534V15.196C187.35 15.452 187.086 15.672 186.742 15.856C186.398 16.032 186.022 16.12 185.614 16.12ZM184.57 14.368C184.906 14.736 185.334 14.92 185.854 14.92C186.374 14.92 186.802 14.736 187.138 14.368C187.474 14 187.642 13.544 187.642 13C187.642 12.456 187.474 12 187.138 11.632C186.802 11.264 186.374 11.08 185.854 11.08C185.334 11.08 184.906 11.264 184.57 11.632C184.234 12 184.066 12.456 184.066 13C184.066 13.544 184.234 14 184.57 14.368ZM193.354 16.12C192.442 16.12 191.69 15.828 191.098 15.244C190.514 14.66 190.222 13.912 190.222 13C190.222 12.112 190.518 11.372 191.11 10.78C191.702 10.18 192.45 9.88 193.354 9.88C194.186 9.88 194.874 10.144 195.418 10.672C195.97 11.2 196.246 11.928 196.246 12.856C196.246 13.016 196.242 13.16 196.234 13.288H191.518C191.55 13.776 191.738 14.172 192.082 14.476C192.426 14.772 192.854 14.92 193.366 14.92C194.134 14.92 194.706 14.616 195.082 14.008L196.09 14.728C195.514 15.656 194.602 16.12 193.354 16.12ZM191.578 12.328H194.914C194.842 11.912 194.654 11.588 194.35 11.356C194.054 11.116 193.706 10.996 193.306 10.996C192.89 10.996 192.518 11.112 192.19 11.344C191.87 11.576 191.666 11.904 191.578 12.328ZM202.547 15.22C201.947 15.82 201.203 16.12 200.315 16.12C199.427 16.12 198.679 15.82 198.071 15.22C197.471 14.612 197.171 13.872 197.171 13C197.171 12.128 197.471 11.392 198.071 10.792C198.679 10.184 199.427 9.88 200.315 9.88C201.203 9.88 201.947 10.184 202.547 10.792C203.155 11.392 203.459 12.128 203.459 13C203.459 13.872 203.155 14.612 202.547 15.22ZM200.315 14.896C200.835 14.896 201.263 14.716 201.599 14.356C201.943 13.988 202.115 13.536 202.115 13C202.115 12.464 201.943 12.016 201.599 11.656C201.263 11.288 200.835 11.104 200.315 11.104C199.787 11.104 199.351 11.288 199.007 11.656C198.671 12.016 198.503 12.464 198.503 13C198.503 13.536 198.671 13.988 199.007 14.356C199.351 14.716 199.787 14.896 200.315 14.896ZM206.671 16.12C206.119 16.12 205.631 16.016 205.207 15.808C204.783 15.592 204.467 15.272 204.259 14.848L205.231 14.152C205.351 14.408 205.543 14.612 205.807 14.764C206.071 14.908 206.359 14.98 206.671 14.98C206.919 14.98 207.123 14.924 207.283 14.812C207.451 14.7 207.535 14.544 207.535 14.344C207.535 14.168 207.467 14.024 207.331 13.912C207.203 13.8 206.963 13.688 206.611 13.576L206.083 13.432C205.019 13.144 204.495 12.532 204.511 11.596C204.511 11.076 204.715 10.66 205.123 10.348C205.531 10.036 206.043 9.88 206.659 9.88C207.587 9.88 208.263 10.22 208.687 10.9L207.775 11.596C207.471 11.188 207.091 10.984 206.635 10.984C206.419 10.984 206.231 11.036 206.071 11.14C205.911 11.236 205.831 11.372 205.831 11.548C205.831 11.708 205.883 11.844 205.987 11.956C206.091 12.068 206.279 12.168 206.551 12.256L207.163 12.436C207.723 12.604 208.143 12.832 208.423 13.12C208.703 13.4 208.843 13.78 208.843 14.26C208.843 14.828 208.639 15.28 208.231 15.616C207.823 15.952 207.303 16.12 206.671 16.12ZM215.64 16.12C214.816 16.12 214.156 15.884 213.66 15.412C213.172 14.94 212.928 14.348 212.928 13.636C212.928 13.092 213.076 12.636 213.372 12.268C213.676 11.9 214.092 11.556 214.62 11.236C213.972 10.588 213.648 9.964 213.648 9.364C213.648 8.796 213.864 8.316 214.296 7.924C214.736 7.532 215.28 7.336 215.928 7.336C216.584 7.336 217.12 7.536 217.536 7.936C217.952 8.336 218.16 8.816 218.16 9.376C218.16 9.856 218.02 10.26 217.74 10.588C217.46 10.908 217.08 11.196 216.6 11.452L218.22 13.036L219.132 11.896H220.692L219.084 13.864L221.292 16H219.552L218.304 14.788C217.864 15.252 217.436 15.592 217.02 15.808C216.612 16.016 216.152 16.12 215.64 16.12ZM215.652 14.944C216.252 14.944 216.852 14.62 217.452 13.972L215.484 12.064C214.652 12.512 214.236 13.044 214.236 13.66C214.236 14.068 214.376 14.384 214.656 14.608C214.936 14.832 215.268 14.944 215.652 14.944ZM214.92 9.376C214.92 9.448 214.924 9.516 214.932 9.58C214.948 9.644 214.972 9.712 215.004 9.784C215.044 9.848 215.076 9.904 215.1 9.952C215.124 9.992 215.168 10.048 215.232 10.12C215.304 10.192 215.356 10.248 215.388 10.288C215.428 10.32 215.492 10.384 215.58 10.48C215.676 10.568 215.744 10.632 215.784 10.672L215.82 10.648C216.172 10.464 216.432 10.288 216.6 10.12C216.768 9.944 216.852 9.72 216.852 9.448C216.852 9.16 216.764 8.924 216.588 8.74C216.412 8.556 216.184 8.464 215.904 8.464C215.632 8.464 215.4 8.548 215.208 8.716C215.016 8.884 214.92 9.104 214.92 9.376ZM224.97 16V7.48H227.91C228.654 7.48 229.262 7.708 229.734 8.164C230.214 8.62 230.454 9.176 230.454 9.832C230.454 10.536 230.19 11.084 229.662 11.476C230.574 11.852 231.03 12.528 231.03 13.504C231.03 14.216 230.77 14.812 230.25 15.292C229.738 15.764 229.082 16 228.282 16H224.97ZM226.374 14.716H228.246C228.694 14.716 229.042 14.604 229.29 14.38C229.538 14.156 229.662 13.86 229.662 13.492C229.662 13.132 229.538 12.84 229.29 12.616C229.042 12.384 228.694 12.268 228.246 12.268H226.374V14.716ZM226.374 11.068H227.838C228.214 11.068 228.514 10.96 228.738 10.744C228.962 10.528 229.074 10.252 229.074 9.916C229.074 9.596 228.962 9.324 228.738 9.1C228.514 8.876 228.214 8.764 227.838 8.764H226.374V11.068ZM237.328 15.22C236.728 15.82 235.984 16.12 235.096 16.12C234.208 16.12 233.46 15.82 232.852 15.22C232.252 14.612 231.952 13.872 231.952 13C231.952 12.128 232.252 11.392 232.852 10.792C233.46 10.184 234.208 9.88 235.096 9.88C235.984 9.88 236.728 10.184 237.328 10.792C237.936 11.392 238.24 12.128 238.24 13C238.24 13.872 237.936 14.612 237.328 15.22ZM235.096 14.896C235.616 14.896 236.044 14.716 236.38 14.356C236.724 13.988 236.896 13.536 236.896 13C236.896 12.464 236.724 12.016 236.38 11.656C236.044 11.288 235.616 11.104 235.096 11.104C234.568 11.104 234.132 11.288 233.788 11.656C233.452 12.016 233.284 12.464 233.284 13C233.284 13.536 233.452 13.988 233.788 14.356C234.132 14.716 234.568 14.896 235.096 14.896ZM244.512 15.22C243.912 15.82 243.168 16.12 242.28 16.12C241.392 16.12 240.644 15.82 240.036 15.22C239.436 14.612 239.136 13.872 239.136 13C239.136 12.128 239.436 11.392 240.036 10.792C240.644 10.184 241.392 9.88 242.28 9.88C243.168 9.88 243.912 10.184 244.512 10.792C245.12 11.392 245.424 12.128 245.424 13C245.424 13.872 245.12 14.612 244.512 15.22ZM242.28 14.896C242.8 14.896 243.228 14.716 243.564 14.356C243.908 13.988 244.08 13.536 244.08 13C244.08 12.464 243.908 12.016 243.564 11.656C243.228 11.288 242.8 11.104 242.28 11.104C241.752 11.104 241.316 11.288 240.972 11.656C240.636 12.016 240.468 12.464 240.468 13C240.468 13.536 240.636 13.988 240.972 14.356C241.316 14.716 241.752 14.896 242.28 14.896ZM250.939 16L248.071 13.108V16H246.751V7H248.071V12.28L250.363 10H252.031L249.355 12.676L252.631 16H250.939ZM255.116 16.12C254.564 16.12 254.076 16.016 253.652 15.808C253.228 15.592 252.912 15.272 252.704 14.848L253.676 14.152C253.796 14.408 253.988 14.612 254.252 14.764C254.516 14.908 254.804 14.98 255.116 14.98C255.364 14.98 255.568 14.924 255.728 14.812C255.896 14.7 255.98 14.544 255.98 14.344C255.98 14.168 255.912 14.024 255.776 13.912C255.648 13.8 255.408 13.688 255.056 13.576L254.528 13.432C253.464 13.144 252.94 12.532 252.956 11.596C252.956 11.076 253.16 10.66 253.568 10.348C253.976 10.036 254.488 9.88 255.104 9.88C256.032 9.88 256.708 10.22 257.132 10.9L256.22 11.596C255.916 11.188 255.536 10.984 255.08 10.984C254.864 10.984 254.676 11.036 254.516 11.14C254.356 11.236 254.276 11.372 254.276 11.548C254.276 11.708 254.328 11.844 254.432 11.956C254.536 12.068 254.724 12.168 254.996 12.256L255.608 12.436C256.168 12.604 256.588 12.832 256.868 13.12C257.148 13.4 257.288 13.78 257.288 14.26C257.288 14.828 257.084 15.28 256.676 15.616C256.268 15.952 255.748 16.12 255.116 16.12ZM258.845 17.92H257.777C258.745 16.04 259.229 14.12 259.229 12.16C259.229 10.2 258.745 8.28 257.777 6.4H258.845C259.869 8.264 260.381 10.184 260.381 12.16C260.381 14.136 259.869 16.056 258.845 17.92Z" fill="#00292C" fill-opacity="0.65"/>
</svg>
