<svg width="518" height="26" viewBox="0 0 518 26" fill="none" xmlns="http://www.w3.org/2000/svg">
<rect width="26" height="26" rx="13" fill="#008E97"/>
<path d="M12.4695 17.6133V9.54825H10.5505L11.6777 8.08554H13.9456V17.6133H12.4695Z" fill="white"/>
<rect x="390" width="26" height="26" rx="13" fill="#008E97"/>
<path d="M405.968 16.0722V17.5215H399.661V16.9847C399.661 16.6448 399.71 16.3227 399.809 16.0185C399.916 15.7054 400.028 15.446 400.144 15.2402C400.261 15.0344 400.453 14.8063 400.721 14.5558C400.99 14.2964 401.196 14.113 401.339 14.0056C401.482 13.8893 401.732 13.7014 402.09 13.442C402.457 13.1826 402.69 13.0171 402.788 12.9455C403.352 12.534 403.759 12.1716 404.009 11.8585C404.26 11.5454 404.385 11.1697 404.385 10.7313C404.385 10.2929 404.251 9.94402 403.982 9.68458C403.714 9.41619 403.343 9.282 402.868 9.282C402.376 9.282 401.969 9.42961 401.647 9.72484C401.325 10.0111 401.16 10.4048 401.151 10.9057H399.661C399.661 10.0022 399.965 9.26411 400.574 8.69155C401.191 8.11899 401.96 7.83271 402.882 7.83271C403.732 7.83271 404.443 8.0832 405.016 8.58419C405.588 9.08518 405.874 9.78746 405.874 10.691C405.874 11.4067 405.709 12.0106 405.378 12.5026C405.056 12.9857 404.519 13.4957 403.768 14.0325C403.651 14.1219 403.437 14.274 403.123 14.4887C402.81 14.7034 402.578 14.8689 402.426 14.9852C402.282 15.1015 402.126 15.2626 401.956 15.4683C401.786 15.6651 401.67 15.8664 401.607 16.0722H405.968Z" fill="white"/>
<line x1="110.75" y1="12.25" x2="374.25" y2="12.25" stroke="#008E97" stroke-width="1.5" stroke-linecap="round"/>
<path d="M39.272 17V8.48H41.96C42.744 8.48 43.364 8.692 43.82 9.116C44.276 9.54 44.504 10.056 44.504 10.664C44.504 11.496 44.18 12.1 43.532 12.476C44.556 12.82 45.068 13.5 45.068 14.516C45.068 15.244 44.8 15.84 44.264 16.304C43.736 16.768 43.032 17 42.152 17H39.272ZM40.184 16.172H42.248C42.872 16.172 43.348 16.028 43.676 15.74C44.004 15.452 44.168 15.068 44.168 14.588C44.168 14.108 44.004 13.724 43.676 13.436C43.356 13.14 42.884 12.992 42.26 12.992H40.184V16.172ZM40.184 12.2H42.02C42.516 12.2 42.904 12.068 43.184 11.804C43.464 11.532 43.604 11.184 43.604 10.76C43.604 10.36 43.46 10.02 43.172 9.74C42.892 9.452 42.508 9.308 42.02 9.308H40.184V12.2ZM49.1351 17.12C48.2951 17.12 47.5871 16.816 47.0111 16.208C46.4351 15.6 46.1471 14.864 46.1471 14C46.1471 13.136 46.4351 12.4 47.0111 11.792C47.5871 11.184 48.2951 10.88 49.1351 10.88C49.5911 10.88 50.0191 10.984 50.4191 11.192C50.8271 11.4 51.1391 11.672 51.3551 12.008V11H52.1951V17H51.3551V15.992C51.1391 16.328 50.8271 16.6 50.4191 16.808C50.0191 17.016 49.5911 17.12 49.1351 17.12ZM47.6231 15.668C48.0391 16.116 48.5711 16.34 49.2191 16.34C49.8671 16.34 50.3951 16.116 50.8031 15.668C51.2191 15.212 51.4271 14.656 51.4271 14C51.4271 13.344 51.2191 12.792 50.8031 12.344C50.3951 11.888 49.8671 11.66 49.2191 11.66C48.5711 11.66 48.0391 11.888 47.6231 12.344C47.2151 12.792 47.0111 13.344 47.0111 14C47.0111 14.656 47.2151 15.212 47.6231 15.668ZM56.0086 17.12C55.4406 17.12 54.9486 16.996 54.5326 16.748C54.1246 16.492 53.8406 16.124 53.6806 15.644L54.4366 15.332C54.5326 15.652 54.7286 15.904 55.0246 16.088C55.3286 16.272 55.6606 16.364 56.0206 16.364C56.3566 16.364 56.6326 16.284 56.8486 16.124C57.0726 15.956 57.1846 15.728 57.1846 15.44C57.1846 15.2 57.0966 15 56.9206 14.84C56.7526 14.672 56.4646 14.52 56.0566 14.384L55.4086 14.18C54.4486 13.884 53.9686 13.316 53.9686 12.476C53.9686 11.988 54.1566 11.6 54.5326 11.312C54.9166 11.024 55.3966 10.88 55.9726 10.88C56.8766 10.88 57.5246 11.232 57.9166 11.936L57.2446 12.356C56.9246 11.868 56.4846 11.624 55.9246 11.624C55.6286 11.624 55.3686 11.704 55.1446 11.864C54.9206 12.016 54.8086 12.208 54.8086 12.44C54.8086 12.888 55.1206 13.212 55.7446 13.412L56.4286 13.628C57.4926 13.964 58.0246 14.544 58.0246 15.368C58.0246 15.92 57.8366 16.352 57.4606 16.664C57.0926 16.968 56.6086 17.12 56.0086 17.12ZM60.0558 9.2C59.8718 9.2 59.7158 9.14 59.5878 9.02C59.4678 8.892 59.4078 8.74 59.4078 8.564C59.4078 8.388 59.4678 8.24 59.5878 8.12C59.7158 7.992 59.8718 7.928 60.0558 7.928C60.2318 7.928 60.3798 7.992 60.4998 8.12C60.6198 8.24 60.6798 8.388 60.6798 8.564C60.6798 8.74 60.6198 8.892 60.4998 9.02C60.3798 9.14 60.2318 9.2 60.0558 9.2ZM59.6238 17V11H60.4638V17H59.6238ZM65.158 17.12C64.254 17.12 63.506 16.82 62.914 16.22C62.322 15.612 62.026 14.872 62.026 14C62.026 13.128 62.322 12.392 62.914 11.792C63.506 11.184 64.254 10.88 65.158 10.88C65.766 10.88 66.306 11.02 66.778 11.3C67.258 11.58 67.634 11.964 67.906 12.452L67.174 12.872C66.982 12.496 66.71 12.2 66.358 11.984C66.014 11.768 65.614 11.66 65.158 11.66C64.486 11.66 63.938 11.888 63.514 12.344C63.098 12.792 62.89 13.344 62.89 14C62.89 14.656 63.098 15.212 63.514 15.668C63.938 16.116 64.486 16.34 65.158 16.34C65.614 16.34 66.014 16.232 66.358 16.016C66.71 15.8 66.982 15.504 67.174 15.128L67.906 15.548C67.634 16.036 67.258 16.42 66.778 16.7C66.306 16.98 65.766 17.12 65.158 17.12ZM72.436 17V8.48H73.348V17H72.436ZM75.573 17V11H76.413V12.008C76.821 11.256 77.477 10.88 78.381 10.88C79.045 10.88 79.585 11.092 80.001 11.516C80.425 11.94 80.637 12.516 80.637 13.244V17H79.797V13.364C79.797 12.844 79.657 12.432 79.377 12.128C79.105 11.816 78.741 11.66 78.285 11.66C77.741 11.66 77.293 11.872 76.941 12.296C76.589 12.712 76.413 13.284 76.413 14.012V17H75.573ZM82.99 17V11.792H81.706V11H82.99V9.656C82.99 9.088 83.142 8.66 83.446 8.372C83.758 8.076 84.17 7.928 84.682 7.928C85.018 7.928 85.318 7.98 85.582 8.084V8.84C85.382 8.752 85.126 8.708 84.814 8.708C84.478 8.708 84.23 8.788 84.07 8.948C83.91 9.1 83.83 9.36 83.83 9.728V11H85.582V11.792H83.83V17H82.99ZM91.4958 16.22C90.9038 16.82 90.1558 17.12 89.2518 17.12C88.3478 17.12 87.5998 16.82 87.0078 16.22C86.4158 15.612 86.1198 14.872 86.1198 14C86.1198 13.128 86.4158 12.392 87.0078 11.792C87.5998 11.184 88.3478 10.88 89.2518 10.88C90.1558 10.88 90.9038 11.184 91.4958 11.792C92.0878 12.392 92.3838 13.128 92.3838 14C92.3838 14.872 92.0878 15.612 91.4958 16.22ZM87.6078 15.668C88.0318 16.116 88.5798 16.34 89.2518 16.34C89.9238 16.34 90.4678 16.116 90.8838 15.668C91.3078 15.212 91.5198 14.656 91.5198 14C91.5198 13.344 91.3078 12.792 90.8838 12.344C90.4678 11.888 89.9238 11.66 89.2518 11.66C88.5798 11.66 88.0318 11.888 87.6078 12.344C87.1918 12.792 86.9838 13.344 86.9838 14C86.9838 14.656 87.1918 15.212 87.6078 15.668Z" fill="#008E97"/>
<path d="M433.884 9.236C434.42 9.74 434.688 10.376 434.688 11.144C434.688 11.912 434.42 12.548 433.884 13.052C433.356 13.548 432.656 13.796 431.784 13.796H430.164V17H429.252V8.48H431.784C432.656 8.48 433.356 8.732 433.884 9.236ZM433.236 12.44C433.588 12.104 433.764 11.672 433.764 11.144C433.764 10.616 433.588 10.184 433.236 9.848C432.892 9.504 432.408 9.332 431.784 9.332H430.164V12.944H431.784C432.408 12.944 432.892 12.776 433.236 12.44ZM438.532 17.12C437.612 17.12 436.868 16.824 436.3 16.232C435.732 15.632 435.448 14.888 435.448 14C435.448 13.12 435.74 12.38 436.324 11.78C436.908 11.18 437.652 10.88 438.556 10.88C439.364 10.88 440.036 11.152 440.572 11.696C441.108 12.24 441.376 12.98 441.376 13.916V14.144H436.312C436.312 14.768 436.52 15.292 436.936 15.716C437.352 16.132 437.884 16.34 438.532 16.34C439.012 16.34 439.404 16.248 439.708 16.064C440.02 15.872 440.288 15.588 440.512 15.212L441.196 15.656C440.628 16.632 439.74 17.12 438.532 17.12ZM436.384 13.4H440.5C440.42 12.864 440.2 12.44 439.84 12.128C439.48 11.816 439.04 11.66 438.52 11.66C438 11.66 437.536 11.82 437.128 12.14C436.728 12.452 436.48 12.872 436.384 13.4ZM442.925 17V11H443.765V12.236C443.893 11.836 444.121 11.52 444.449 11.288C444.777 11.056 445.129 10.94 445.505 10.94C445.673 10.94 445.817 10.956 445.937 10.988V11.864C445.793 11.808 445.625 11.78 445.433 11.78C445.009 11.78 444.625 11.972 444.281 12.356C443.937 12.74 443.765 13.284 443.765 13.988V17H442.925ZM448.848 17.12C448.28 17.12 447.788 16.996 447.372 16.748C446.964 16.492 446.68 16.124 446.52 15.644L447.276 15.332C447.372 15.652 447.568 15.904 447.864 16.088C448.168 16.272 448.5 16.364 448.86 16.364C449.196 16.364 449.472 16.284 449.688 16.124C449.912 15.956 450.024 15.728 450.024 15.44C450.024 15.2 449.936 15 449.76 14.84C449.592 14.672 449.304 14.52 448.896 14.384L448.248 14.18C447.288 13.884 446.808 13.316 446.808 12.476C446.808 11.988 446.996 11.6 447.372 11.312C447.756 11.024 448.236 10.88 448.812 10.88C449.716 10.88 450.364 11.232 450.756 11.936L450.084 12.356C449.764 11.868 449.324 11.624 448.764 11.624C448.468 11.624 448.208 11.704 447.984 11.864C447.76 12.016 447.648 12.208 447.648 12.44C447.648 12.888 447.96 13.212 448.584 13.412L449.268 13.628C450.332 13.964 450.864 14.544 450.864 15.368C450.864 15.92 450.676 16.352 450.3 16.664C449.932 16.968 449.448 17.12 448.848 17.12ZM457.336 16.22C456.744 16.82 455.996 17.12 455.092 17.12C454.188 17.12 453.44 16.82 452.848 16.22C452.256 15.612 451.96 14.872 451.96 14C451.96 13.128 452.256 12.392 452.848 11.792C453.44 11.184 454.188 10.88 455.092 10.88C455.996 10.88 456.744 11.184 457.336 11.792C457.928 12.392 458.224 13.128 458.224 14C458.224 14.872 457.928 15.612 457.336 16.22ZM453.448 15.668C453.872 16.116 454.42 16.34 455.092 16.34C455.764 16.34 456.308 16.116 456.724 15.668C457.148 15.212 457.36 14.656 457.36 14C457.36 13.344 457.148 12.792 456.724 12.344C456.308 11.888 455.764 11.66 455.092 11.66C454.42 11.66 453.872 11.888 453.448 12.344C453.032 12.792 452.824 13.344 452.824 14C452.824 14.656 453.032 15.212 453.448 15.668ZM459.788 17V11H460.628V12.008C461.036 11.256 461.692 10.88 462.596 10.88C463.26 10.88 463.8 11.092 464.216 11.516C464.64 11.94 464.852 12.516 464.852 13.244V17H464.012V13.364C464.012 12.844 463.872 12.432 463.592 12.128C463.32 11.816 462.956 11.66 462.5 11.66C461.956 11.66 461.508 11.872 461.156 12.296C460.804 12.712 460.628 13.284 460.628 14.012V17H459.788ZM469.303 17.12C468.463 17.12 467.755 16.816 467.179 16.208C466.603 15.6 466.315 14.864 466.315 14C466.315 13.136 466.603 12.4 467.179 11.792C467.755 11.184 468.463 10.88 469.303 10.88C469.759 10.88 470.187 10.984 470.587 11.192C470.995 11.4 471.307 11.672 471.523 12.008V11H472.363V17H471.523V15.992C471.307 16.328 470.995 16.6 470.587 16.808C470.187 17.016 469.759 17.12 469.303 17.12ZM467.791 15.668C468.207 16.116 468.739 16.34 469.387 16.34C470.035 16.34 470.563 16.116 470.971 15.668C471.387 15.212 471.595 14.656 471.595 14C471.595 13.344 471.387 12.792 470.971 12.344C470.563 11.888 470.035 11.66 469.387 11.66C468.739 11.66 468.207 11.888 467.791 12.344C467.383 12.792 467.179 13.344 467.179 14C467.179 14.656 467.383 15.212 467.791 15.668ZM474.425 17V8H475.265V17H474.425ZM480.428 17V8.48H482.756C484.092 8.48 485.188 8.884 486.044 9.692C486.908 10.492 487.34 11.508 487.34 12.74C487.34 13.972 486.908 14.992 486.044 15.8C485.188 16.6 484.092 17 482.756 17H480.428ZM481.34 16.136H482.756C483.852 16.136 484.736 15.82 485.408 15.188C486.08 14.548 486.416 13.732 486.416 12.74C486.416 11.748 486.08 10.936 485.408 10.304C484.736 9.664 483.852 9.344 482.756 9.344H481.34V16.136ZM491.536 17.12C490.616 17.12 489.872 16.824 489.304 16.232C488.736 15.632 488.452 14.888 488.452 14C488.452 13.12 488.744 12.38 489.328 11.78C489.912 11.18 490.656 10.88 491.56 10.88C492.368 10.88 493.04 11.152 493.576 11.696C494.112 12.24 494.38 12.98 494.38 13.916V14.144H489.316C489.316 14.768 489.524 15.292 489.94 15.716C490.356 16.132 490.888 16.34 491.536 16.34C492.016 16.34 492.408 16.248 492.712 16.064C493.024 15.872 493.292 15.588 493.516 15.212L494.2 15.656C493.632 16.632 492.744 17.12 491.536 17.12ZM489.388 13.4H493.504C493.424 12.864 493.204 12.44 492.844 12.128C492.484 11.816 492.044 11.66 491.524 11.66C491.004 11.66 490.54 11.82 490.132 12.14C489.732 12.452 489.484 12.872 489.388 13.4ZM498.006 17.06C497.502 17.06 497.09 16.916 496.77 16.628C496.458 16.332 496.302 15.9 496.302 15.332V11.792H495.018V11H496.302V9.332H497.142V11H498.894V11.792H497.142V15.26C497.142 15.628 497.222 15.892 497.382 16.052C497.55 16.204 497.802 16.28 498.138 16.28C498.442 16.28 498.694 16.236 498.894 16.148V16.904C498.63 17.008 498.334 17.06 498.006 17.06ZM502.666 17.12C501.826 17.12 501.118 16.816 500.542 16.208C499.966 15.6 499.678 14.864 499.678 14C499.678 13.136 499.966 12.4 500.542 11.792C501.118 11.184 501.826 10.88 502.666 10.88C503.122 10.88 503.55 10.984 503.95 11.192C504.358 11.4 504.67 11.672 504.886 12.008V11H505.726V17H504.886V15.992C504.67 16.328 504.358 16.6 503.95 16.808C503.55 17.016 503.122 17.12 502.666 17.12ZM501.154 15.668C501.57 16.116 502.102 16.34 502.75 16.34C503.398 16.34 503.926 16.116 504.334 15.668C504.75 15.212 504.958 14.656 504.958 14C504.958 13.344 504.75 12.792 504.334 12.344C503.926 11.888 503.398 11.66 502.75 11.66C502.102 11.66 501.57 11.888 501.154 12.344C500.746 12.792 500.542 13.344 500.542 14C500.542 14.656 500.746 15.212 501.154 15.668ZM508.22 9.2C508.036 9.2 507.88 9.14 507.752 9.02C507.632 8.892 507.572 8.74 507.572 8.564C507.572 8.388 507.632 8.24 507.752 8.12C507.88 7.992 508.036 7.928 508.22 7.928C508.396 7.928 508.544 7.992 508.664 8.12C508.784 8.24 508.844 8.388 508.844 8.564C508.844 8.74 508.784 8.892 508.664 9.02C508.544 9.14 508.396 9.2 508.22 9.2ZM507.788 17V11H508.628V17H507.788ZM510.694 17V8H511.534V17H510.694ZM515.352 17.12C514.784 17.12 514.292 16.996 513.876 16.748C513.468 16.492 513.184 16.124 513.024 15.644L513.78 15.332C513.876 15.652 514.072 15.904 514.368 16.088C514.672 16.272 515.004 16.364 515.364 16.364C515.7 16.364 515.976 16.284 516.192 16.124C516.416 15.956 516.528 15.728 516.528 15.44C516.528 15.2 516.44 15 516.264 14.84C516.096 14.672 515.808 14.52 515.4 14.384L514.752 14.18C513.792 13.884 513.312 13.316 513.312 12.476C513.312 11.988 513.5 11.6 513.876 11.312C514.26 11.024 514.74 10.88 515.316 10.88C516.22 10.88 516.868 11.232 517.26 11.936L516.588 12.356C516.268 11.868 515.828 11.624 515.268 11.624C514.972 11.624 514.712 11.704 514.488 11.864C514.264 12.016 514.152 12.208 514.152 12.44C514.152 12.888 514.464 13.212 515.088 13.412L515.772 13.628C516.836 13.964 517.368 14.544 517.368 15.368C517.368 15.92 517.18 16.352 516.804 16.664C516.436 16.968 515.952 17.12 515.352 17.12Z" fill="#008E97"/>
</svg>
