<svg width="31" height="31" viewBox="0 0 31 31" fill="none" xmlns="http://www.w3.org/2000/svg">
<circle cx="15.5" cy="15.5" r="15.5" fill="#008E97"/>
<path d="M19.302 11.2V17.528C19.302 18.2467 19.1387 18.886 18.812 19.446C18.4853 20.0013 18.0467 20.426 17.496 20.72C16.95 21.0093 16.3433 21.154 15.676 21.154C15.0087 21.154 14.3997 21.0093 13.849 20.72C13.303 20.426 12.8667 20.0013 12.54 19.446C12.2133 18.886 12.05 18.2467 12.05 17.528V11.2H13.702V17.724C13.702 18.312 13.891 18.788 14.269 19.152C14.647 19.516 15.116 19.698 15.676 19.698C16.236 19.698 16.705 19.516 17.083 19.152C17.461 18.788 17.65 18.312 17.65 17.724V11.2H19.302Z" fill="white"/>
</svg>
