<svg width="301" height="124" viewBox="0 0 301 124" fill="none" xmlns="http://www.w3.org/2000/svg">
<rect width="301" height="124" rx="5" fill="#008E97"/>
<g clip-path="url(#clip0_2169_5084)">
<path d="M255.494 65L249.531 59" stroke="white" stroke-opacity="0.1" stroke-width="2" stroke-linecap="round" stroke-linejoin="round"/>
<path d="M250.525 65L255.494 59" stroke="white" stroke-opacity="0.1" stroke-width="2" stroke-linecap="round" stroke-linejoin="round"/>
<path d="M185.931 111L179.969 106" stroke="white" stroke-opacity="0.1" stroke-width="2" stroke-linecap="round" stroke-linejoin="round"/>
<path d="M179.969 111L184.938 106" stroke="white" stroke-opacity="0.1" stroke-width="2" stroke-linecap="round" stroke-linejoin="round"/>
<path d="M279.09 73.9961L274.862 67L270.645 74L266.425 81L274.874 80.9962L283.319 80.9923L279.09 73.9961Z" stroke="white" stroke-opacity="0.1" stroke-width="2" stroke-linecap="round" stroke-linejoin="round"/>
<path d="M214.614 124.5L216.738 117L208.79 119.017L200.838 121.029L206.663 126.513L212.487 132L214.614 124.5Z" stroke="white" stroke-opacity="0.1" stroke-width="2" stroke-linecap="round" stroke-linejoin="round"/>
<path d="M213.76 45.9952L220.712 41.9905L213.756 37.9971L206.8 34L206.804 42.0019L206.807 50L213.76 45.9952Z" stroke="white" stroke-opacity="0.1" stroke-width="2" stroke-linecap="round" stroke-linejoin="round"/>
<path d="M305.181 32.9962C305.182 34.1832 304.832 35.3438 304.178 36.3311C303.523 37.3183 302.591 38.088 301.502 38.5426C300.412 38.9972 299.213 39.1163 298.056 38.8849C296.899 38.6535 295.836 38.082 295.002 37.2426C294.168 36.4033 293.6 35.3339 293.37 34.1696C293.14 33.0054 293.259 31.7987 293.71 30.7022C294.162 29.6056 294.927 28.6686 295.908 28.0096C296.889 27.3506 298.043 26.9993 299.222 27C300.802 27 302.318 27.6317 303.436 28.7562C304.553 29.8808 305.181 31.4059 305.181 32.9962Z" stroke="white" stroke-opacity="0.1" stroke-width="2" stroke-linecap="round" stroke-linejoin="round"/>
<path d="M246.552 42C246.532 41.2192 246.671 40.4424 246.962 39.7154C247.252 38.9883 247.688 38.3257 248.244 37.7666C248.799 37.2074 249.463 36.7631 250.196 36.4597C250.929 36.1563 251.717 36 252.512 36C253.308 36 254.095 36.1563 254.829 36.4597C255.562 36.7631 256.225 37.2074 256.781 37.7666C257.336 38.3257 257.772 38.9883 258.063 39.7154C258.353 40.4424 258.493 41.2192 258.473 42" stroke="white" stroke-opacity="0.1" stroke-width="2" stroke-linecap="round" stroke-linejoin="round"/>
<path d="M192.888 80.4959C192.889 81.7818 192.539 83.0391 191.885 84.1087C191.23 85.1782 190.299 86.012 189.209 86.5044C188.119 86.9969 186.92 87.126 185.763 86.8753C184.606 86.6246 183.543 86.0055 182.709 85.0962C181.875 84.1869 181.307 83.0283 181.077 81.7671C180.847 80.5058 180.966 79.1986 181.417 78.0107C181.869 76.8228 182.634 75.8077 183.615 75.0937C184.596 74.3798 185.75 73.9992 186.929 74C188.509 74.0011 190.024 74.6858 191.142 75.9038C192.259 77.1218 192.887 78.7734 192.888 80.4959V80.4959Z" stroke="white" stroke-opacity="0.1" stroke-width="2" stroke-linecap="round" stroke-linejoin="round"/>
<path d="M239.594 -3H225.682V8H239.594V-3Z" stroke="white" stroke-opacity="0.1" stroke-width="2" stroke-linecap="round" stroke-linejoin="round"/>
<path d="M238.6 73H225.682V86H238.6V73Z" stroke="white" stroke-opacity="0.1" stroke-width="2" stroke-linecap="round" stroke-linejoin="round"/>
<path d="M295.244 62C292.883 62 293.289 57 290.275 57" stroke="white" stroke-opacity="0.1" stroke-width="2" stroke-linecap="round" stroke-linejoin="round"/>
<path d="M305.182 62C302.819 62 303.226 57 300.213 57" stroke="white" stroke-opacity="0.1" stroke-width="2" stroke-linecap="round" stroke-linejoin="round"/>
<path d="M295.244 62C297.605 62 297.199 57 300.213 57" stroke="white" stroke-opacity="0.1" stroke-width="2" stroke-linecap="round" stroke-linejoin="round"/>
<path d="M188.913 17C186.079 17 186.567 13 182.95 13" stroke="white" stroke-opacity="0.1" stroke-width="2" stroke-linecap="round" stroke-linejoin="round"/>
<path d="M199.844 17C197.481 17 197.888 13 194.875 13" stroke="white" stroke-opacity="0.1" stroke-width="2" stroke-linecap="round" stroke-linejoin="round"/>
<path d="M188.912 17C191.746 17 191.258 13 194.875 13" stroke="white" stroke-opacity="0.1" stroke-width="2" stroke-linecap="round" stroke-linejoin="round"/>
<path d="M199.844 17C202.205 17 201.798 13 204.813 13" stroke="white" stroke-opacity="0.1" stroke-width="2" stroke-linecap="round" stroke-linejoin="round"/>
<path d="M261.456 13C261.456 15.8514 257.481 15.3604 257.481 19" stroke="white" stroke-opacity="0.1" stroke-width="2" stroke-linecap="round" stroke-linejoin="round"/>
<path d="M261.456 2C261.456 4.85341 257.481 4.36201 257.481 8" stroke="white" stroke-opacity="0.1" stroke-width="2" stroke-linecap="round" stroke-linejoin="round"/>
<path d="M261.456 13C261.456 10.6238 257.481 11.033 257.481 8" stroke="white" stroke-opacity="0.1" stroke-width="2" stroke-linecap="round" stroke-linejoin="round"/>
<path d="M261.456 2C261.456 -0.376205 257.481 0.0330136 257.481 -3" stroke="white" stroke-opacity="0.1" stroke-width="2" stroke-linecap="round" stroke-linejoin="round"/>
<path d="M240.588 114C240.588 116.853 235.619 116.362 235.619 120" stroke="white" stroke-opacity="0.1" stroke-width="2" stroke-linecap="round" stroke-linejoin="round"/>
<path d="M240.588 103C240.588 105.853 235.619 105.358 235.619 109" stroke="white" stroke-opacity="0.1" stroke-width="2" stroke-linecap="round" stroke-linejoin="round"/>
<path d="M240.588 114C240.588 111.624 235.619 112.033 235.619 109" stroke="white" stroke-opacity="0.1" stroke-width="2" stroke-linecap="round" stroke-linejoin="round"/>
<path d="M240.588 103C240.588 100.149 235.619 100.64 235.619 97" stroke="white" stroke-opacity="0.1" stroke-width="2" stroke-linecap="round" stroke-linejoin="round"/>
<path d="M175 35H188.913" stroke="white" stroke-opacity="0.1" stroke-width="2" stroke-linecap="round" stroke-linejoin="round"/>
<path d="M263.443 117L273.381 108" stroke="white" stroke-opacity="0.1" stroke-width="2" stroke-linecap="round" stroke-linejoin="round"/>
<path d="M299.043 106.621C298.627 106.883 298.142 107.014 297.651 106.999C297.16 106.983 296.684 106.822 296.284 106.534C295.885 106.247 295.579 105.847 295.405 105.384C295.231 104.922 295.197 104.418 295.308 103.936C295.419 103.455 295.669 103.017 296.027 102.678C296.385 102.34 296.835 102.115 297.32 102.034C297.804 101.953 298.302 102.018 298.75 102.221C299.198 102.424 299.576 102.757 299.836 103.176C300.009 103.455 300.125 103.765 300.179 104.089C300.233 104.413 300.222 104.744 300.149 105.064C300.075 105.384 299.94 105.686 299.75 105.953C299.56 106.22 299.32 106.447 299.043 106.621V106.621Z" stroke="white" stroke-opacity="0.1" stroke-width="2" stroke-linecap="round" stroke-linejoin="round"/>
<path d="M279.168 41.6211C278.752 41.8828 278.267 42.0142 277.776 41.9988C277.285 41.9833 276.809 41.8217 276.41 41.5343C276.01 41.247 275.704 40.8467 275.53 40.3843C275.356 39.9218 275.322 39.4179 275.433 38.9362C275.544 38.4545 275.794 38.0167 276.152 37.6781C276.51 37.3396 276.96 37.1154 277.445 37.0341C277.929 36.9527 278.427 37.0178 278.875 37.2211C279.323 37.4244 279.701 37.7567 279.961 38.1761C280.134 38.4547 280.25 38.7647 280.304 39.0886C280.358 39.4125 280.347 39.7439 280.274 40.0638C280.2 40.3837 280.065 40.6859 279.875 40.9531C279.685 41.2203 279.445 41.4473 279.168 41.6211V41.6211Z" stroke="white" stroke-opacity="0.1" stroke-width="2" stroke-linecap="round" stroke-linejoin="round"/>
<path d="M194.7 61.6211C194.283 61.8828 193.798 62.0142 193.307 61.9988C192.816 61.9833 192.341 61.8217 191.941 61.5343C191.541 61.247 191.235 60.8467 191.061 60.3843C190.887 59.9218 190.854 59.4179 190.964 58.9362C191.075 58.4545 191.325 58.0167 191.683 57.6781C192.042 57.3396 192.491 57.1154 192.976 57.0341C193.461 56.9527 193.958 57.0178 194.406 57.2211C194.854 57.4244 195.232 57.7567 195.492 58.1761C195.665 58.4547 195.782 58.7647 195.835 59.0886C195.889 59.4125 195.879 59.7439 195.805 60.0638C195.732 60.3837 195.596 60.6859 195.406 60.9531C195.217 61.2203 194.977 61.4473 194.7 61.6211V61.6211Z" stroke="white" stroke-opacity="0.1" stroke-width="2" stroke-linecap="round" stroke-linejoin="round"/>
</g>
<g clip-path="url(#clip1_2169_5084)">
<path d="M33.8883 108L27.9258 113" stroke="white" stroke-opacity="0.1" stroke-width="2" stroke-linecap="round" stroke-linejoin="round"/>
<path d="M28.9189 107L33.8877 113" stroke="white" stroke-opacity="0.1" stroke-width="2" stroke-linecap="round" stroke-linejoin="round"/>
<path d="M40.8443 24L34.8818 30" stroke="white" stroke-opacity="0.1" stroke-width="2" stroke-linecap="round" stroke-linejoin="round"/>
<path d="M35.876 24L40.8447 30" stroke="white" stroke-opacity="0.1" stroke-width="2" stroke-linecap="round" stroke-linejoin="round"/>
<path d="M173.013 108L168.044 113" stroke="white" stroke-opacity="0.1" stroke-width="2" stroke-linecap="round" stroke-linejoin="round"/>
<path d="M168.044 108L173.013 113" stroke="white" stroke-opacity="0.1" stroke-width="2" stroke-linecap="round" stroke-linejoin="round"/>
<path d="M105.438 78L99.4756 84" stroke="white" stroke-opacity="0.1" stroke-width="2" stroke-linecap="round" stroke-linejoin="round"/>
<path d="M99.4756 78L105.438 84" stroke="white" stroke-opacity="0.1" stroke-width="2" stroke-linecap="round" stroke-linejoin="round"/>
<path d="M133.263 14L127.301 19" stroke="white" stroke-opacity="0.1" stroke-width="2" stroke-linecap="round" stroke-linejoin="round"/>
<path d="M127.301 14L133.263 20" stroke="white" stroke-opacity="0.1" stroke-width="2" stroke-linecap="round" stroke-linejoin="round"/>
<path d="M76.8637 99.0019L73.1327 106L69.4124 98.9981L65.6885 92L73.1434 92.0077L80.5947 92.0116L76.8637 99.0019Z" stroke="white" stroke-opacity="0.1" stroke-width="2" stroke-linecap="round" stroke-linejoin="round"/>
<path d="M64.4407 15.0039L60.2122 22L55.9958 15L51.7754 8L60.2243 8.00384L68.6691 8.0077L64.4407 15.0039Z" stroke="white" stroke-opacity="0.1" stroke-width="2" stroke-linecap="round" stroke-linejoin="round"/>
<path d="M135.248 42L137.238 50L129.787 47.849L122.332 45.702L127.793 39.853L133.253 34L135.248 42Z" stroke="white" stroke-opacity="0.1" stroke-width="2" stroke-linecap="round" stroke-linejoin="round"/>
<path d="M4.93043 131.498L7.05723 139L-0.892771 136.983L-8.84277 134.97L-3.01565 129.485L2.80755 124L4.93043 131.498Z" stroke="white" stroke-opacity="0.1" stroke-width="2" stroke-linecap="round" stroke-linejoin="round"/>
<path d="M143.206 122.255L150.157 126.51L143.202 130.753L136.244 135L136.252 126.498L136.256 118L143.206 122.255Z" stroke="white" stroke-opacity="0.1" stroke-width="2" stroke-linecap="round" stroke-linejoin="round"/>
<path d="M-0.889532 43.0048L6.06289 47.0095L-0.893358 51.0029L-7.84961 55L-7.84578 46.9981L-7.84195 39L-0.889532 43.0048Z" stroke="white" stroke-opacity="0.1" stroke-width="2" stroke-linecap="round" stroke-linejoin="round"/>
<path d="M90.5314 56.0038C90.5322 54.8168 90.183 53.6562 89.5281 52.6689C88.8733 51.6817 87.9421 50.912 86.8524 50.4574C85.7628 50.0028 84.5636 49.8837 83.4066 50.1151C82.2497 50.3465 81.1869 50.918 80.3528 51.7574C79.5187 52.5967 78.9508 53.6661 78.7208 54.8304C78.4909 55.9946 78.6093 57.2013 79.061 58.2978C79.5128 59.3944 80.2776 60.3314 81.2587 60.9904C82.2398 61.6494 83.3931 62.0007 84.5727 62C86.153 62 87.6687 61.3683 88.7862 60.2438C89.9037 59.1192 90.5314 57.5941 90.5314 56.0038Z" stroke="white" stroke-opacity="0.1" stroke-width="2" stroke-linecap="round" stroke-linejoin="round"/>
<path d="M60.7195 123.5C60.7195 122.214 60.3407 120.958 59.6309 119.889C58.9212 118.82 57.9124 117.987 56.7321 117.495C55.5518 117.003 54.253 116.874 53 117.125C51.747 117.376 50.596 117.995 49.6927 118.904C48.7893 119.813 48.1741 120.971 47.9249 122.232C47.6757 123.493 47.8036 124.8 48.2925 125.987C48.7814 127.175 49.6093 128.19 50.6715 128.905C51.7338 129.619 52.9826 130 54.2601 130C55.1084 130 55.9484 129.832 56.7321 129.505C57.5157 129.179 58.2278 128.7 58.8276 128.096C59.4274 127.493 59.9032 126.776 60.2278 125.987C60.5524 125.199 60.7195 124.354 60.7195 123.5V123.5Z" stroke="white" stroke-opacity="0.1" stroke-width="2" stroke-linecap="round" stroke-linejoin="round"/>
<path d="M31.9023 47C31.8823 47.7808 32.0218 48.5576 32.3123 49.2846C32.6029 50.0117 33.0388 50.6743 33.5943 51.2334C34.1497 51.7926 34.8136 52.2369 35.5467 52.5403C36.2798 52.8437 37.0673 53 37.8629 53C38.6585 53 39.446 52.8437 40.1791 52.5403C40.9122 52.2369 41.576 51.7926 42.1315 51.2334C42.687 50.6743 43.1229 50.0117 43.4134 49.2846C43.704 48.5576 43.8435 47.7808 43.8235 47" stroke="white" stroke-opacity="0.1" stroke-width="2" stroke-linecap="round" stroke-linejoin="round"/>
<path d="M120.344 87C118.763 87 117.246 87.5795 116.128 88.6109C115.01 89.6424 114.382 91.0413 114.382 92.5C114.382 93.9587 115.01 95.3576 116.128 96.3891C117.246 97.4205 118.763 98 120.344 98" stroke="white" stroke-opacity="0.1" stroke-width="2" stroke-linecap="round" stroke-linejoin="round"/>
<path d="M164.07 2.0113C164.072 0.823812 163.724 -0.337637 163.07 -1.32598C162.415 -2.31432 161.485 -3.08511 160.395 -3.54075C159.305 -3.99639 158.106 -4.11638 156.948 -3.88553C155.79 -3.65469 154.727 -3.0834 153.892 -2.24398C153.058 -1.40456 152.489 -0.334778 152.259 0.829912C152.029 1.9946 152.147 3.20182 152.599 4.2987C153.052 5.39558 153.817 6.3328 154.799 6.99168C155.78 7.65057 156.934 8.00148 158.115 8C159.693 7.999 161.206 7.36784 162.323 6.24507C163.439 5.1223 164.068 3.59964 164.07 2.0113Z" stroke="white" stroke-opacity="0.1" stroke-width="2" stroke-linecap="round" stroke-linejoin="round"/>
<path d="M160.095 98H147.176V87H160.095V98Z" stroke="white" stroke-opacity="0.1" stroke-width="2" stroke-linecap="round" stroke-linejoin="round"/>
<path d="M24.9447 92H11.0322V81H24.9447V92Z" stroke="white" stroke-opacity="0.1" stroke-width="2" stroke-linecap="round" stroke-linejoin="round"/>
<path d="M23.951 16H11.0322V3H23.951V16Z" stroke="white" stroke-opacity="0.1" stroke-width="2" stroke-linecap="round" stroke-linejoin="round"/>
<path d="M80.5947 27C78.2334 27 78.64 32 75.626 32" stroke="white" stroke-opacity="0.1" stroke-width="2" stroke-linecap="round" stroke-linejoin="round"/>
<path d="M90.5322 27C88.1692 27 88.5762 32 85.5635 32" stroke="white" stroke-opacity="0.1" stroke-width="2" stroke-linecap="round" stroke-linejoin="round"/>
<path d="M80.5947 27C82.9561 27 82.5494 32 85.5635 32" stroke="white" stroke-opacity="0.1" stroke-width="2" stroke-linecap="round" stroke-linejoin="round"/>
<path d="M90.5322 27C93.3659 27 92.8779 32 96.4947 32" stroke="white" stroke-opacity="0.1" stroke-width="2" stroke-linecap="round" stroke-linejoin="round"/>
<path d="M126.307 66C123.472 66 123.96 70 120.345 70" stroke="white" stroke-opacity="0.1" stroke-width="2" stroke-linecap="round" stroke-linejoin="round"/>
<path d="M138.232 66C135.396 66 135.885 70 132.27 70" stroke="white" stroke-opacity="0.1" stroke-width="2" stroke-linecap="round" stroke-linejoin="round"/>
<path d="M126.307 66C129.14 66 128.652 70 132.269 70" stroke="white" stroke-opacity="0.1" stroke-width="2" stroke-linecap="round" stroke-linejoin="round"/>
<path d="M138.231 66C140.593 66 140.186 70 143.2 70" stroke="white" stroke-opacity="0.1" stroke-width="2" stroke-linecap="round" stroke-linejoin="round"/>
<path d="M46.807 76C46.807 73.1486 42.832 73.6396 42.832 70" stroke="white" stroke-opacity="0.1" stroke-width="2" stroke-linecap="round" stroke-linejoin="round"/>
<path d="M46.807 87C46.807 84.1466 42.832 84.638 42.832 81" stroke="white" stroke-opacity="0.1" stroke-width="2" stroke-linecap="round" stroke-linejoin="round"/>
<path d="M46.807 76C46.807 78.3762 42.832 77.967 42.832 81" stroke="white" stroke-opacity="0.1" stroke-width="2" stroke-linecap="round" stroke-linejoin="round"/>
<path d="M46.807 87C46.807 89.3762 42.832 88.967 42.832 92" stroke="white" stroke-opacity="0.1" stroke-width="2" stroke-linecap="round" stroke-linejoin="round"/>
<path d="M139.226 -6C139.226 -3.14855 134.257 -3.63962 134.257 0" stroke="white" stroke-opacity="0.1" stroke-width="2" stroke-linecap="round" stroke-linejoin="round"/>
<path d="M93.5127 15H107.425" stroke="white" stroke-opacity="0.1" stroke-width="2" stroke-linecap="round" stroke-linejoin="round"/>
<path d="M95.501 117H108.42" stroke="white" stroke-opacity="0.1" stroke-width="2" stroke-linecap="round" stroke-linejoin="round"/>
<path d="M155.126 40L165.063 50" stroke="white" stroke-opacity="0.1" stroke-width="2" stroke-linecap="round" stroke-linejoin="round"/>
<path d="M64.5191 47.3789C64.1022 47.1172 63.6176 46.9858 63.1265 47.0012C62.6354 47.0167 62.1599 47.1783 61.7601 47.4657C61.3603 47.753 61.0541 48.1533 60.8803 48.6157C60.7065 49.0782 60.6729 49.5821 60.7837 50.0638C60.8945 50.5455 61.1448 50.9833 61.5028 51.3219C61.8609 51.6604 62.3107 51.8846 62.7953 51.9659C63.2799 52.0473 63.7777 51.9822 64.2255 51.7789C64.6734 51.5756 65.0513 51.2433 65.3115 50.8239C65.4843 50.5453 65.6009 50.2353 65.6546 49.9114C65.7083 49.5875 65.6981 49.2561 65.6245 48.9362C65.5509 48.6163 65.4154 48.3141 65.2257 48.0469C65.0361 47.7797 64.7959 47.5527 64.5191 47.3789V47.3789Z" stroke="white" stroke-opacity="0.1" stroke-width="2" stroke-linecap="round" stroke-linejoin="round"/>
<path d="M4.13059 102.377C3.79709 102.116 3.40965 101.985 3.01718 102.001C2.62472 102.017 2.24482 102.179 1.92547 102.467C1.60612 102.754 1.36163 103.154 1.22289 103.617C1.08414 104.079 1.05736 104.582 1.14591 105.064C1.23447 105.545 1.43439 105.983 1.72045 106.321C2.0065 106.66 2.36584 106.884 2.75311 106.966C3.14039 107.047 3.53821 106.983 3.89636 106.78C4.2545 106.578 4.5569 106.246 4.76538 105.827C4.90463 105.549 4.9987 105.238 5.04216 104.913C5.08563 104.589 5.07763 104.257 5.01863 103.936C4.95962 103.615 4.85079 103.312 4.69838 103.045C4.54597 102.777 4.353 102.55 4.13059 102.377V102.377Z" stroke="white" stroke-opacity="0.1" stroke-width="2" stroke-linecap="round" stroke-linejoin="round"/>
<path d="M134.082 103.455C133.665 103.141 133.18 102.983 132.689 103.001C132.198 103.02 131.722 103.214 131.323 103.559C130.923 103.904 130.617 104.384 130.443 104.939C130.269 105.494 130.235 106.099 130.346 106.677C130.457 107.255 130.707 107.78 131.065 108.186C131.423 108.593 131.873 108.861 132.358 108.959C132.842 109.057 133.34 108.979 133.788 108.735C134.236 108.491 134.614 108.092 134.874 107.589C135.047 107.254 135.163 106.882 135.217 106.494C135.271 106.105 135.261 105.707 135.187 105.323C135.113 104.94 134.978 104.577 134.788 104.256C134.599 103.936 134.358 103.663 134.082 103.455V103.455Z" stroke="white" stroke-opacity="0.1" stroke-width="2" stroke-linecap="round" stroke-linejoin="round"/>
<path d="M168.625 19.3014C168.124 19.0928 167.543 18.9882 166.954 19.0011C166.365 19.0139 165.795 19.1435 165.316 19.3735C164.837 19.6035 164.47 19.9236 164.262 20.2933C164.053 20.6631 164.013 21.066 164.146 21.451C164.279 21.8361 164.579 22.1861 165.008 22.4569C165.437 22.7277 165.977 22.9071 166.558 22.9725C167.139 23.0378 167.736 22.9862 168.273 22.8241C168.81 22.662 169.264 22.3968 169.577 22.0618C169.785 21.8387 169.926 21.5903 169.991 21.3307C170.056 21.0711 170.044 20.8054 169.955 20.549C169.867 20.2925 169.703 20.0503 169.475 19.8362C169.247 19.6221 168.958 19.4404 168.625 19.3014Z" stroke="white" stroke-opacity="0.1" stroke-width="2" stroke-linecap="round" stroke-linejoin="round"/>
</g>
<defs>
<clipPath id="clip0_2169_5084">
<rect width="127" height="124" fill="white" transform="translate(174)"/>
</clipPath>
<clipPath id="clip1_2169_5084">
<rect width="174" height="124" fill="white" transform="matrix(1 0 0 -1 0 124)"/>
</clipPath>
</defs>
</svg>
