<svg width="30" height="31" viewBox="0 0 30 31" fill="none" xmlns="http://www.w3.org/2000/svg">
<circle cx="15" cy="15.3359" r="12.85" stroke="#EAEEF1" stroke-width="4.3"/>
<mask id="path-2-inside-1_879_3189" fill="white">
<path d="M6.54611 27.7267C4.09544 26.0547 2.19562 23.6935 1.08689 20.9418C-0.0218385 18.19 -0.28968 15.1713 0.317237 12.2673C0.924154 9.36333 2.37857 6.70454 4.49657 4.62716C6.61456 2.54978 9.30101 1.14711 12.2162 0.59652L13.013 4.8154C10.9322 5.20839 9.01473 6.20957 7.50297 7.69234C5.99121 9.17511 4.9531 11.0729 4.5199 13.1456C4.0867 15.2184 4.27787 17.3731 5.06925 19.3372C5.86063 21.3013 7.21666 22.9867 8.96587 24.1801L6.54611 27.7267Z"/>
</mask>
<path d="M6.54611 27.7267C4.09544 26.0547 2.19562 23.6935 1.08689 20.9418C-0.0218385 18.19 -0.28968 15.1713 0.317237 12.2673C0.924154 9.36333 2.37857 6.70454 4.49657 4.62716C6.61456 2.54978 9.30101 1.14711 12.2162 0.59652L13.013 4.8154C10.9322 5.20839 9.01473 6.20957 7.50297 7.69234C5.99121 9.17511 4.9531 11.0729 4.5199 13.1456C4.0867 15.2184 4.27787 17.3731 5.06925 19.3372C5.86063 21.3013 7.21666 22.9867 8.96587 24.1801L6.54611 27.7267Z" stroke="#008E97" stroke-width="10" mask="url(#path-2-inside-1_879_3189)"/>
</svg>
