<svg width="146" height="40" viewBox="0 0 146 40" fill="none" xmlns="http://www.w3.org/2000/svg">
<rect width="40" height="40" rx="20" transform="matrix(-1 0 0 1 146 0)" fill="#F58220"/>
<path d="M128.026 14.9414L133.084 19.9997L128.026 25.0581" stroke="white" stroke-width="1.5" stroke-miterlimit="10" stroke-linecap="round" stroke-linejoin="round"/>
<path d="M118.917 20H132.942" stroke="white" stroke-width="1.5" stroke-miterlimit="10" stroke-linecap="round" stroke-linejoin="round"/>
<path d="M11.296 26H9.664L3.264 17.824V26H1.392V14.64H3.024L9.408 22.8V14.64H11.296V26ZM17.3313 26.16C16.1153 26.16 15.1126 25.7707 14.3233 24.992C13.5446 24.2133 13.1553 23.216 13.1553 22C13.1553 20.816 13.5499 19.8293 14.3393 19.04C15.1286 18.24 16.1259 17.84 17.3313 17.84C18.4406 17.84 19.3579 18.192 20.0833 18.896C20.8193 19.6 21.1873 20.5707 21.1873 21.808C21.1873 22.0213 21.1819 22.2133 21.1713 22.384H14.8832C14.9259 23.0347 15.1766 23.5627 15.6353 23.968C16.0939 24.3627 16.6646 24.56 17.3473 24.56C18.3713 24.56 19.1339 24.1547 19.6353 23.344L20.9792 24.304C20.2113 25.5413 18.9953 26.16 17.3313 26.16ZM14.9633 21.104H19.4113C19.3153 20.5493 19.0646 20.1173 18.6593 19.808C18.2646 19.488 17.8006 19.328 17.2673 19.328C16.7126 19.328 16.2166 19.4827 15.7793 19.792C15.3526 20.1013 15.0806 20.5387 14.9633 21.104ZM28.0128 26L25.8528 23.296L23.6928 26H21.5488L24.7328 22.016L21.7248 18H23.8207L25.8368 20.688L27.8528 18H29.9648L26.9568 22.016L30.1408 26H28.0128ZM34.8748 26.08C34.0641 26.08 33.4028 25.856 32.8908 25.408C32.3894 24.9493 32.1388 24.288 32.1388 23.424V19.568H30.4748V18H32.1388V15.776H33.8988V18H36.1868V19.568H33.8988V23.136C33.8988 23.6267 34.0054 23.9787 34.2188 24.192C34.4321 24.3947 34.7734 24.496 35.2428 24.496C35.6268 24.496 35.9414 24.4427 36.1868 24.336V25.904C35.8028 26.0213 35.3654 26.08 34.8748 26.08ZM41.8295 26V14.64H43.7015V24.208H48.9015V26H41.8295ZM53.8 26.16C52.584 26.16 51.5813 25.7707 50.792 24.992C50.0133 24.2133 49.624 23.216 49.624 22C49.624 20.816 50.0187 19.8293 50.808 19.04C51.5973 18.24 52.5947 17.84 53.8 17.84C54.9093 17.84 55.8267 18.192 56.552 18.896C57.288 19.6 57.656 20.5707 57.656 21.808C57.656 22.0213 57.6507 22.2133 57.64 22.384H51.352C51.3947 23.0347 51.6453 23.5627 52.104 23.968C52.5627 24.3627 53.1333 24.56 53.816 24.56C54.84 24.56 55.6027 24.1547 56.104 23.344L57.448 24.304C56.68 25.5413 55.464 26.16 53.8 26.16ZM51.432 21.104H55.88C55.784 20.5493 55.5333 20.1173 55.128 19.808C54.7333 19.488 54.2693 19.328 53.736 19.328C53.1813 19.328 52.6853 19.4827 52.248 19.792C51.8213 20.1013 51.5493 20.5387 51.432 21.104ZM62.0093 26.16C61.2733 26.16 60.6226 26.0213 60.0573 25.744C59.4919 25.456 59.0706 25.0293 58.7933 24.464L60.0893 23.536C60.2493 23.8773 60.5053 24.1493 60.8573 24.352C61.2093 24.544 61.5933 24.64 62.0093 24.64C62.3399 24.64 62.6119 24.5653 62.8253 24.416C63.0493 24.2667 63.1613 24.0587 63.1613 23.792C63.1613 23.5573 63.0706 23.3653 62.8893 23.216C62.7186 23.0667 62.3986 22.9173 61.9293 22.768L61.2253 22.576C59.8066 22.192 59.1079 21.376 59.1293 20.128C59.1293 19.4347 59.4013 18.88 59.9453 18.464C60.4893 18.048 61.1719 17.84 61.9933 17.84C63.2306 17.84 64.1319 18.2933 64.6973 19.2L63.4813 20.128C63.0759 19.584 62.5693 19.312 61.9613 19.312C61.6733 19.312 61.4226 19.3813 61.2093 19.52C60.9959 19.648 60.8893 19.8293 60.8893 20.064C60.8893 20.2773 60.9586 20.4587 61.0973 20.608C61.2359 20.7573 61.4866 20.8907 61.8493 21.008L62.6653 21.248C63.4119 21.472 63.9719 21.776 64.3453 22.16C64.7186 22.5333 64.9053 23.04 64.9053 23.68C64.9053 24.4373 64.6333 25.04 64.0893 25.488C63.5453 25.936 62.8519 26.16 62.0093 26.16ZM69.2749 26.16C68.5389 26.16 67.8882 26.0213 67.3229 25.744C66.7575 25.456 66.3362 25.0293 66.0589 24.464L67.3549 23.536C67.5149 23.8773 67.7709 24.1493 68.1229 24.352C68.4749 24.544 68.8589 24.64 69.2749 24.64C69.6055 24.64 69.8775 24.5653 70.0909 24.416C70.3149 24.2667 70.4269 24.0587 70.4269 23.792C70.4269 23.5573 70.3362 23.3653 70.1549 23.216C69.9842 23.0667 69.6642 22.9173 69.1949 22.768L68.4909 22.576C67.0722 22.192 66.3735 21.376 66.3949 20.128C66.3949 19.4347 66.6669 18.88 67.2109 18.464C67.7549 18.048 68.4375 17.84 69.2589 17.84C70.4962 17.84 71.3975 18.2933 71.9629 19.2L70.7469 20.128C70.3415 19.584 69.8349 19.312 69.2269 19.312C68.9389 19.312 68.6882 19.3813 68.4749 19.52C68.2615 19.648 68.1549 19.8293 68.1549 20.064C68.1549 20.2773 68.2242 20.4587 68.3629 20.608C68.5015 20.7573 68.7522 20.8907 69.1149 21.008L69.9309 21.248C70.6775 21.472 71.2375 21.776 71.6109 22.16C71.9842 22.5333 72.1709 23.04 72.1709 23.68C72.1709 24.4373 71.8989 25.04 71.3549 25.488C70.8109 25.936 70.1175 26.16 69.2749 26.16ZM80.5885 24.96C79.7885 25.76 78.7965 26.16 77.6125 26.16C76.4285 26.16 75.4312 25.76 74.6205 24.96C73.8205 24.1493 73.4205 23.1627 73.4205 22C73.4205 20.8373 73.8205 19.856 74.6205 19.056C75.4312 18.2453 76.4285 17.84 77.6125 17.84C78.7965 17.84 79.7885 18.2453 80.5885 19.056C81.3992 19.856 81.8045 20.8373 81.8045 22C81.8045 23.1627 81.3992 24.1493 80.5885 24.96ZM77.6125 24.528C78.3058 24.528 78.8765 24.288 79.3245 23.808C79.7832 23.3173 80.0125 22.7147 80.0125 22C80.0125 21.2853 79.7832 20.688 79.3245 20.208C78.8765 19.7173 78.3058 19.472 77.6125 19.472C76.9085 19.472 76.3272 19.7173 75.8685 20.208C75.4205 20.688 75.1965 21.2853 75.1965 22C75.1965 22.7147 75.4205 23.3173 75.8685 23.808C76.3272 24.288 76.9085 24.528 77.6125 24.528ZM83.5746 26V18H85.3346V19.088C85.836 18.256 86.6466 17.84 87.7666 17.84C88.6946 17.84 89.436 18.144 89.9906 18.752C90.5453 19.36 90.8226 20.1707 90.8226 21.184V26H89.0626V21.472C89.0626 20.832 88.9133 20.336 88.6146 19.984C88.316 19.6213 87.9106 19.44 87.3986 19.44C86.7906 19.44 86.2946 19.6693 85.9106 20.128C85.5266 20.5867 85.3346 21.232 85.3346 22.064V26H83.5746Z" fill="#00292C"/>
</svg>
