<svg width="32" height="32" viewBox="0 0 32 32" fill="none" xmlns="http://www.w3.org/2000/svg">
<path opacity="0.4" d="M28.8806 13.9207L27.5739 19.494C26.4539 24.3073 24.2406 26.254 20.0806 25.854C19.4139 25.8007 18.6939 25.6807 17.9206 25.494L15.6806 24.9607C10.1206 23.6407 8.40057 20.894 9.70723 15.3207L11.0139 9.734C11.2806 8.60066 11.6006 7.614 12.0006 6.80066C13.5606 3.57399 16.2139 2.70733 20.6672 3.76066L22.8939 4.28066C28.4806 5.58733 30.1872 8.34733 28.8806 13.9207Z" fill="white"/>
<path d="M20.0805 25.8541C19.2538 26.4141 18.2138 26.8808 16.9471 27.2941L14.8405 27.9874C9.54712 29.6941 6.76046 28.2674 5.04045 22.9741L3.33379 17.7074C1.62712 12.4141 3.04045 9.61411 8.33379 7.90745L10.4405 7.21411C10.9871 7.04078 11.5071 6.89411 12.0005 6.80078C11.6005 7.61411 11.2805 8.60078 11.0138 9.73412L9.70712 15.3208C8.40045 20.8941 10.1205 23.6408 15.6805 24.9608L17.9205 25.4941C18.6938 25.6808 19.4138 25.8008 20.0805 25.8541Z" fill="white"/>
<path d="M23.3208 14.013C23.2408 14.013 23.1608 13.9997 23.0675 13.9864L16.6008 12.3464C16.0675 12.213 15.7475 11.6664 15.8808 11.133C16.0141 10.5997 16.5608 10.2797 17.0941 10.413L23.5608 12.053C24.0941 12.1864 24.4141 12.733 24.2808 13.2664C24.1741 13.7064 23.7608 14.013 23.3208 14.013Z" fill="white"/>
<path d="M19.4138 18.5199C19.3338 18.5199 19.2538 18.5065 19.1605 18.4932L15.2805 17.5065C14.7472 17.3732 14.4272 16.8265 14.5605 16.2932C14.6938 15.7599 15.2405 15.4399 15.7738 15.5732L19.6538 16.5599C20.1872 16.6932 20.5072 17.2399 20.3738 17.7732C20.2672 18.2265 19.8672 18.5199 19.4138 18.5199Z" fill="white"/>
</svg>
