<svg width="173" height="40" viewBox="0 0 173 40" fill="none" xmlns="http://www.w3.org/2000/svg">
<rect width="40" height="40" rx="20" transform="matrix(1 0 0 -1 0 40)" fill="#C4C4C4"/>
<path d="M17.9743 25.0586L12.916 20.0003L17.9743 14.9419" stroke="white" stroke-width="1.5" stroke-miterlimit="10" stroke-linecap="round" stroke-linejoin="round"/>
<path d="M27.0826 20H13.0576" stroke="white" stroke-width="1.5" stroke-miterlimit="10" stroke-linecap="round" stroke-linejoin="round"/>
<path d="M61.84 15.712C62.576 16.416 62.944 17.296 62.944 18.352C62.944 19.408 62.576 20.2933 61.84 21.008C61.104 21.712 60.16 22.064 59.008 22.064H57.264V26H55.392V14.64H59.008C60.16 14.64 61.104 14.9973 61.84 15.712ZM60.528 19.76C60.912 19.3867 61.104 18.9173 61.104 18.352C61.104 17.7867 60.912 17.3227 60.528 16.96C60.1547 16.5867 59.6427 16.4 58.992 16.4H57.264V20.304H58.992C59.6427 20.304 60.1547 20.1227 60.528 19.76ZM64.4653 26V18H66.2253V19.424C66.3746 18.976 66.6466 18.6133 67.0413 18.336C67.4466 18.0587 67.8786 17.92 68.3373 17.92C68.6146 17.92 68.8439 17.9413 69.0253 17.984V19.792C68.7693 19.696 68.4759 19.648 68.1453 19.648C67.6119 19.648 67.1586 19.8667 66.7853 20.304C66.4119 20.7307 66.2253 21.328 66.2253 22.096V26H64.4653ZM73.8781 26.16C72.6621 26.16 71.6595 25.7707 70.8701 24.992C70.0915 24.2133 69.7021 23.216 69.7021 22C69.7021 20.816 70.0968 19.8293 70.8861 19.04C71.6755 18.24 72.6728 17.84 73.8781 17.84C74.9875 17.84 75.9048 18.192 76.6301 18.896C77.3661 19.6 77.7341 20.5707 77.7341 21.808C77.7341 22.0213 77.7288 22.2133 77.7181 22.384H71.4301C71.4728 23.0347 71.7235 23.5627 72.1821 23.968C72.6408 24.3627 73.2115 24.56 73.8941 24.56C74.9181 24.56 75.6808 24.1547 76.1821 23.344L77.5261 24.304C76.7581 25.5413 75.5421 26.16 73.8781 26.16ZM71.5101 21.104H75.9581C75.8621 20.5493 75.6115 20.1173 75.2061 19.808C74.8115 19.488 74.3475 19.328 73.8141 19.328C73.2595 19.328 72.7635 19.4827 72.3261 19.792C71.8995 20.1013 71.6275 20.5387 71.5101 21.104ZM81.8831 26L78.2671 18H80.2191L82.6511 23.616L85.0991 18H87.0671L83.4351 26H81.8831ZM89.1734 16.256C88.8534 16.256 88.576 16.144 88.3414 15.92C88.1067 15.6853 87.9894 15.4027 87.9894 15.072C87.9894 14.752 88.1067 14.48 88.3414 14.256C88.576 14.0213 88.8534 13.904 89.1734 13.904C89.504 13.904 89.7814 14.0213 90.0054 14.256C90.2294 14.48 90.3414 14.752 90.3414 15.072C90.3414 15.4027 90.2294 15.6853 90.0054 15.92C89.7814 16.144 89.504 16.256 89.1734 16.256ZM88.2934 26V18H90.0534V26H88.2934ZM99.0104 24.96C98.2104 25.76 97.2184 26.16 96.0344 26.16C94.8504 26.16 93.853 25.76 93.0424 24.96C92.2424 24.1493 91.8424 23.1627 91.8424 22C91.8424 20.8373 92.2424 19.856 93.0424 19.056C93.853 18.2453 94.8504 17.84 96.0344 17.84C97.2184 17.84 98.2104 18.2453 99.0104 19.056C99.821 19.856 100.226 20.8373 100.226 22C100.226 23.1627 99.821 24.1493 99.0104 24.96ZM96.0344 24.528C96.7277 24.528 97.2984 24.288 97.7464 23.808C98.205 23.3173 98.4344 22.7147 98.4344 22C98.4344 21.2853 98.205 20.688 97.7464 20.208C97.2984 19.7173 96.7277 19.472 96.0344 19.472C95.3304 19.472 94.749 19.7173 94.2904 20.208C93.8424 20.688 93.6184 21.2853 93.6184 22C93.6184 22.7147 93.8424 23.3173 94.2904 23.808C94.749 24.288 95.3304 24.528 96.0344 24.528ZM104.861 26.16C103.943 26.16 103.218 25.856 102.685 25.248C102.151 24.6293 101.885 23.808 101.885 22.784V18H103.645V22.496C103.645 23.136 103.783 23.6427 104.061 24.016C104.338 24.3787 104.733 24.56 105.245 24.56C105.842 24.56 106.317 24.336 106.669 23.888C107.021 23.4293 107.197 22.7787 107.197 21.936V18H108.957V26H107.197V24.912C106.727 25.744 105.949 26.16 104.861 26.16ZM113.869 26.16C113.133 26.16 112.482 26.0213 111.917 25.744C111.351 25.456 110.93 25.0293 110.653 24.464L111.949 23.536C112.109 23.8773 112.365 24.1493 112.717 24.352C113.069 24.544 113.453 24.64 113.869 24.64C114.199 24.64 114.471 24.5653 114.685 24.416C114.909 24.2667 115.021 24.0587 115.021 23.792C115.021 23.5573 114.93 23.3653 114.749 23.216C114.578 23.0667 114.258 22.9173 113.789 22.768L113.085 22.576C111.666 22.192 110.967 21.376 110.989 20.128C110.989 19.4347 111.261 18.88 111.805 18.464C112.349 18.048 113.031 17.84 113.853 17.84C115.09 17.84 115.991 18.2933 116.557 19.2L115.341 20.128C114.935 19.584 114.429 19.312 113.821 19.312C113.533 19.312 113.282 19.3813 113.069 19.52C112.855 19.648 112.749 19.8293 112.749 20.064C112.749 20.2773 112.818 20.4587 112.957 20.608C113.095 20.7573 113.346 20.8907 113.709 21.008L114.525 21.248C115.271 21.472 115.831 21.776 116.205 22.16C116.578 22.5333 116.765 23.04 116.765 23.68C116.765 24.4373 116.493 25.04 115.949 25.488C115.405 25.936 114.711 26.16 113.869 26.16ZM122.564 26V14.64H124.436V24.208H129.636V26H122.564ZM134.534 26.16C133.318 26.16 132.316 25.7707 131.526 24.992C130.748 24.2133 130.358 23.216 130.358 22C130.358 20.816 130.753 19.8293 131.542 19.04C132.332 18.24 133.329 17.84 134.534 17.84C135.644 17.84 136.561 18.192 137.286 18.896C138.022 19.6 138.39 20.5707 138.39 21.808C138.39 22.0213 138.385 22.2133 138.374 22.384H132.086C132.129 23.0347 132.38 23.5627 132.838 23.968C133.297 24.3627 133.868 24.56 134.55 24.56C135.574 24.56 136.337 24.1547 136.838 23.344L138.182 24.304C137.414 25.5413 136.198 26.16 134.534 26.16ZM132.166 21.104H136.614C136.518 20.5493 136.268 20.1173 135.862 19.808C135.468 19.488 135.004 19.328 134.47 19.328C133.916 19.328 133.42 19.4827 132.982 19.792C132.556 20.1013 132.284 20.5387 132.166 21.104ZM142.744 26.16C142.008 26.16 141.357 26.0213 140.792 25.744C140.226 25.456 139.805 25.0293 139.528 24.464L140.824 23.536C140.984 23.8773 141.24 24.1493 141.592 24.352C141.944 24.544 142.328 24.64 142.744 24.64C143.074 24.64 143.346 24.5653 143.56 24.416C143.784 24.2667 143.896 24.0587 143.896 23.792C143.896 23.5573 143.805 23.3653 143.624 23.216C143.453 23.0667 143.133 22.9173 142.664 22.768L141.96 22.576C140.541 22.192 139.842 21.376 139.864 20.128C139.864 19.4347 140.136 18.88 140.68 18.464C141.224 18.048 141.906 17.84 142.728 17.84C143.965 17.84 144.866 18.2933 145.432 19.2L144.216 20.128C143.81 19.584 143.304 19.312 142.696 19.312C142.408 19.312 142.157 19.3813 141.944 19.52C141.73 19.648 141.624 19.8293 141.624 20.064C141.624 20.2773 141.693 20.4587 141.832 20.608C141.97 20.7573 142.221 20.8907 142.584 21.008L143.4 21.248C144.146 21.472 144.706 21.776 145.08 22.16C145.453 22.5333 145.64 23.04 145.64 23.68C145.64 24.4373 145.368 25.04 144.824 25.488C144.28 25.936 143.586 26.16 142.744 26.16ZM150.009 26.16C149.273 26.16 148.623 26.0213 148.057 25.744C147.492 25.456 147.071 25.0293 146.793 24.464L148.089 23.536C148.249 23.8773 148.505 24.1493 148.857 24.352C149.209 24.544 149.593 24.64 150.009 24.64C150.34 24.64 150.612 24.5653 150.825 24.416C151.049 24.2667 151.161 24.0587 151.161 23.792C151.161 23.5573 151.071 23.3653 150.889 23.216C150.719 23.0667 150.399 22.9173 149.929 22.768L149.225 22.576C147.807 22.192 147.108 21.376 147.129 20.128C147.129 19.4347 147.401 18.88 147.945 18.464C148.489 18.048 149.172 17.84 149.993 17.84C151.231 17.84 152.132 18.2933 152.697 19.2L151.481 20.128C151.076 19.584 150.569 19.312 149.961 19.312C149.673 19.312 149.423 19.3813 149.209 19.52C148.996 19.648 148.889 19.8293 148.889 20.064C148.889 20.2773 148.959 20.4587 149.097 20.608C149.236 20.7573 149.487 20.8907 149.849 21.008L150.665 21.248C151.412 21.472 151.972 21.776 152.345 22.16C152.719 22.5333 152.905 23.04 152.905 23.68C152.905 24.4373 152.633 25.04 152.089 25.488C151.545 25.936 150.852 26.16 150.009 26.16ZM161.323 24.96C160.523 25.76 159.531 26.16 158.347 26.16C157.163 26.16 156.166 25.76 155.355 24.96C154.555 24.1493 154.155 23.1627 154.155 22C154.155 20.8373 154.555 19.856 155.355 19.056C156.166 18.2453 157.163 17.84 158.347 17.84C159.531 17.84 160.523 18.2453 161.323 19.056C162.134 19.856 162.539 20.8373 162.539 22C162.539 23.1627 162.134 24.1493 161.323 24.96ZM158.347 24.528C159.04 24.528 159.611 24.288 160.059 23.808C160.518 23.3173 160.747 22.7147 160.747 22C160.747 21.2853 160.518 20.688 160.059 20.208C159.611 19.7173 159.04 19.472 158.347 19.472C157.643 19.472 157.062 19.7173 156.603 20.208C156.155 20.688 155.931 21.2853 155.931 22C155.931 22.7147 156.155 23.3173 156.603 23.808C157.062 24.288 157.643 24.528 158.347 24.528ZM164.309 26V18H166.069V19.088C166.57 18.256 167.381 17.84 168.501 17.84C169.429 17.84 170.17 18.144 170.725 18.752C171.28 19.36 171.557 20.1707 171.557 21.184V26H169.797V21.472C169.797 20.832 169.648 20.336 169.349 19.984C169.05 19.6213 168.645 19.44 168.133 19.44C167.525 19.44 167.029 19.6693 166.645 20.128C166.261 20.5867 166.069 21.232 166.069 22.064V26H164.309Z" fill="#94A2AB" fill-opacity="0.54"/>
</svg>
