<svg width="34" height="34" viewBox="0 0 34 34" fill="none" xmlns="http://www.w3.org/2000/svg">
<path d="M2.83398 12.7487V9.20703C2.83398 5.67953 5.68148 2.83203 9.20898 2.83203H12.7507" stroke="white" stroke-width="1.5" stroke-linecap="round" stroke-linejoin="round"/>
<path d="M21.25 2.83203H24.7917C28.3192 2.83203 31.1667 5.67953 31.1667 9.20703V12.7487" stroke="white" stroke-width="1.5" stroke-linecap="round" stroke-linejoin="round"/>
<path d="M31.167 22.668V24.793C31.167 28.3205 28.3195 31.168 24.792 31.168H22.667" stroke="white" stroke-width="1.5" stroke-linecap="round" stroke-linejoin="round"/>
<path d="M12.7507 31.1667H9.20898C5.68148 31.1667 2.83398 28.3192 2.83398 24.7917V21.25" stroke="white" stroke-width="1.5" stroke-linecap="round" stroke-linejoin="round"/>
<path d="M14.8753 9.91797V12.7513C14.8753 14.168 14.167 14.8763 12.7503 14.8763H9.91699C8.50033 14.8763 7.79199 14.168 7.79199 12.7513V9.91797C7.79199 8.5013 8.50033 7.79297 9.91699 7.79297H12.7503C14.167 7.79297 14.8753 8.5013 14.8753 9.91797Z" stroke="white" stroke-width="1.5" stroke-linecap="round" stroke-linejoin="round"/>
<path d="M26.2083 9.91797V12.7513C26.2083 14.168 25.5 14.8763 24.0833 14.8763H21.25C19.8333 14.8763 19.125 14.168 19.125 12.7513V9.91797C19.125 8.5013 19.8333 7.79297 21.25 7.79297H24.0833C25.5 7.79297 26.2083 8.5013 26.2083 9.91797Z" stroke="white" stroke-width="1.5" stroke-linecap="round" stroke-linejoin="round"/>
<path d="M14.8753 21.25V24.0833C14.8753 25.5 14.167 26.2083 12.7503 26.2083H9.91699C8.50033 26.2083 7.79199 25.5 7.79199 24.0833V21.25C7.79199 19.8333 8.50033 19.125 9.91699 19.125H12.7503C14.167 19.125 14.8753 19.8333 14.8753 21.25Z" stroke="white" stroke-width="1.5" stroke-linecap="round" stroke-linejoin="round"/>
<path d="M26.2083 21.25V24.0833C26.2083 25.5 25.5 26.2083 24.0833 26.2083H21.25C19.8333 26.2083 19.125 25.5 19.125 24.0833V21.25C19.125 19.8333 19.8333 19.125 21.25 19.125H24.0833C25.5 19.125 26.2083 19.8333 26.2083 21.25Z" stroke="white" stroke-width="1.5" stroke-linecap="round" stroke-linejoin="round"/>
</svg>
