<svg width="28" height="29" viewBox="0 0 28 29" fill="none" xmlns="http://www.w3.org/2000/svg">
<path d="M13.9997 26.0013C20.443 26.0013 25.6663 20.778 25.6663 14.3346C25.6663 7.89131 20.443 2.66797 13.9997 2.66797C7.55635 2.66797 2.33301 7.89131 2.33301 14.3346C2.33301 20.778 7.55635 26.0013 13.9997 26.0013Z" fill="#008E97"/>
<path d="M14.0002 17.8459C13.7785 17.8459 13.5568 17.7642 13.3818 17.5892L9.26352 13.4709C8.92518 13.1326 8.92518 12.5726 9.26352 12.2342C9.60185 11.8959 10.1618 11.8959 10.5002 12.2342L14.0002 15.7342L17.5002 12.2342C17.8385 11.8959 18.3985 11.8959 18.7368 12.2342C19.0752 12.5726 19.0752 13.1326 18.7368 13.4709L14.6185 17.5892C14.4435 17.7642 14.2218 17.8459 14.0002 17.8459Z" fill="white"/>
</svg>
