<svg width="24" height="24" viewBox="0 0 24 24" fill="none" xmlns="http://www.w3.org/2000/svg">
<path opacity="0.4" d="M21.7605 15.92L15.3605 4.4C14.5005 2.85 13.3105 2 12.0005 2C10.6905 2 9.50047 2.85 8.64047 4.4L2.24047 15.92C1.43047 17.39 1.34047 18.8 1.99047 19.91C2.64047 21.02 3.92047 21.63 5.60047 21.63H18.4005C20.0805 21.63 21.3605 21.02 22.0105 19.91C22.6605 18.8 22.5705 17.38 21.7605 15.92Z" fill="#E45865"/>
<path d="M12 14.75C11.59 14.75 11.25 14.41 11.25 14V9C11.25 8.59 11.59 8.25 12 8.25C12.41 8.25 12.75 8.59 12.75 9V14C12.75 14.41 12.41 14.75 12 14.75Z" fill="#E45865"/>
<path d="M12 18.0025C11.94 18.0025 11.87 17.9925 11.8 17.9825C11.74 17.9725 11.68 17.9525 11.62 17.9225C11.56 17.9025 11.5 17.8725 11.44 17.8325C11.39 17.7925 11.34 17.7525 11.29 17.7125C11.11 17.5225 11 17.2625 11 17.0025C11 16.7425 11.11 16.4825 11.29 16.2925C11.34 16.2525 11.39 16.2125 11.44 16.1725C11.5 16.1325 11.56 16.1025 11.62 16.0825C11.68 16.0525 11.74 16.0325 11.8 16.0225C11.93 15.9925 12.07 15.9925 12.19 16.0225C12.26 16.0325 12.32 16.0525 12.38 16.0825C12.44 16.1025 12.5 16.1325 12.56 16.1725C12.61 16.2125 12.66 16.2525 12.71 16.2925C12.89 16.4825 13 16.7425 13 17.0025C13 17.2625 12.89 17.5225 12.71 17.7125C12.66 17.7525 12.61 17.7925 12.56 17.8325C12.5 17.8725 12.44 17.9025 12.38 17.9225C12.32 17.9525 12.26 17.9725 12.19 17.9825C12.13 17.9925 12.06 18.0025 12 18.0025Z" fill="#E45865"/>
</svg>
