<svg width="30" height="30" viewBox="0 0 30 30" fill="none" xmlns="http://www.w3.org/2000/svg">
<path d="M15.6248 18.4375H12.4998C11.9873 18.4375 11.5623 18.0125 11.5623 17.5C11.5623 16.9875 11.9873 16.5625 12.4998 16.5625H15.6248C18.8998 16.5625 21.5623 13.9 21.5623 10.625C21.5623 7.35 18.8998 4.6875 15.6248 4.6875H9.37481C6.09981 4.6875 3.43731 7.35 3.43731 10.625C3.43731 12 3.9248 13.3375 4.7998 14.4C5.1248 14.8 5.0748 15.3875 4.6748 15.725C4.2748 16.05 3.68731 16 3.34981 15.6C2.18731 14.2 1.5498 12.4375 1.5498 10.625C1.5498 6.3125 5.0498 2.8125 9.3623 2.8125H15.6123C19.9248 2.8125 23.4248 6.3125 23.4248 10.625C23.4248 14.9375 19.9373 18.4375 15.6248 18.4375Z" fill="#F58220"/>
<path opacity="0.4" d="M20.625 27.1875H14.375C10.0625 27.1875 6.5625 23.6875 6.5625 19.375C6.5625 15.0625 10.0625 11.5625 14.375 11.5625H17.5C18.0125 11.5625 18.4375 11.9875 18.4375 12.5C18.4375 13.0125 18.0125 13.4375 17.5 13.4375H14.375C11.1 13.4375 8.4375 16.1 8.4375 19.375C8.4375 22.65 11.1 25.3125 14.375 25.3125H20.625C23.9 25.3125 26.5625 22.65 26.5625 19.375C26.5625 18 26.075 16.6625 25.2 15.6C24.875 15.2 24.925 14.6125 25.325 14.275C25.725 13.9375 26.3125 14 26.65 14.4C27.8125 15.8 28.45 17.5625 28.45 19.375C28.4375 23.6875 24.9375 27.1875 20.625 27.1875Z" fill="#F58220"/>
</svg>
