<svg width="20" height="18" viewBox="0 0 20 18" fill="none" xmlns="http://www.w3.org/2000/svg">
<path d="M14.5648 13.4775H5.34176C2.0407 13.4775 1.03711 12.57 1.03711 9.585V4.83C1.03711 1.845 2.0407 0.9375 5.34176 0.9375H14.5565C17.8576 0.9375 18.8612 1.845 18.8612 4.83V9.5775C18.8695 12.57 17.8659 13.4775 14.5648 13.4775ZM5.34176 2.0625C2.7374 2.0625 2.28123 2.475 2.28123 4.83V9.5775C2.28123 11.9325 2.7374 12.345 5.34176 12.345H14.5565C17.1609 12.345 17.6171 11.9325 17.6171 9.5775V4.83C17.6171 2.475 17.1609 2.0625 14.5565 2.0625H5.34176Z" fill="#00292C" fill-opacity="0.4"/>
<path d="M9.95311 17.0616C9.61305 17.0616 9.33105 16.8066 9.33105 16.4991V12.9141C9.33105 12.6066 9.61305 12.3516 9.95311 12.3516C10.2932 12.3516 10.5752 12.6066 10.5752 12.9141V16.4991C10.5752 16.8066 10.2932 17.0616 9.95311 17.0616Z" fill="#00292C" fill-opacity="0.4"/>
<path d="M18.2474 10.3125H1.65917C1.31911 10.3125 1.03711 10.0575 1.03711 9.75C1.03711 9.4425 1.31911 9.1875 1.65917 9.1875H18.2474C18.5875 9.1875 18.8695 9.4425 18.8695 9.75C18.8695 10.0575 18.5875 10.3125 18.2474 10.3125Z" fill="#00292C" fill-opacity="0.4"/>
<path d="M13.6854 17.0625H6.22069C5.88063 17.0625 5.59863 16.8075 5.59863 16.5C5.59863 16.1925 5.88063 15.9375 6.22069 15.9375H13.6854C14.0255 15.9375 14.3075 16.1925 14.3075 16.5C14.3075 16.8075 14.0255 17.0625 13.6854 17.0625Z" fill="#00292C" fill-opacity="0.4"/>
</svg>
