<svg width="34" height="34" viewBox="0 0 34 34" fill="none" xmlns="http://www.w3.org/2000/svg">
<path d="M25.5003 10.142C25.4153 10.1279 25.3161 10.1279 25.2311 10.142C23.2761 10.0712 21.7178 8.47037 21.7178 6.48703C21.7178 4.4612 23.3469 2.83203 25.3728 2.83203C27.3986 2.83203 29.0278 4.47537 29.0278 6.48703C29.0136 8.47037 27.4553 10.0712 25.5003 10.142Z" stroke="white" stroke-width="1.5" stroke-linecap="round" stroke-linejoin="round"/>
<path d="M24.0415 20.4556C25.9824 20.7814 28.1215 20.4414 29.6232 19.4356C31.6207 18.1039 31.6207 15.9223 29.6232 14.5906C28.1074 13.5848 25.9399 13.2448 23.999 13.5848" stroke="white" stroke-width="1.5" stroke-linecap="round" stroke-linejoin="round"/>
<path d="M8.45719 10.142C8.54219 10.1279 8.64135 10.1279 8.72635 10.142C10.6814 10.0712 12.2397 8.47037 12.2397 6.48703C12.2397 4.4612 10.6105 2.83203 8.58469 2.83203C6.55886 2.83203 4.92969 4.47537 4.92969 6.48703C4.94385 8.47037 6.50219 10.0712 8.45719 10.142Z" stroke="white" stroke-width="1.5" stroke-linecap="round" stroke-linejoin="round"/>
<path d="M9.9167 20.4556C7.97587 20.7814 5.83671 20.4414 4.33504 19.4356C2.33754 18.1039 2.33754 15.9223 4.33504 14.5906C5.85087 13.5848 8.01837 13.2448 9.9592 13.5848" stroke="white" stroke-width="1.5" stroke-linecap="round" stroke-linejoin="round"/>
<path d="M16.9993 20.7241C16.9143 20.7099 16.8151 20.7099 16.7301 20.7241C14.7751 20.6532 13.2168 19.0524 13.2168 17.0691C13.2168 15.0432 14.846 13.4141 16.8718 13.4141C18.8976 13.4141 20.5268 15.0574 20.5268 17.0691C20.5126 19.0524 18.9543 20.6674 16.9993 20.7241Z" stroke="white" stroke-width="1.5" stroke-linecap="round" stroke-linejoin="round"/>
<path d="M12.877 25.1848C10.8795 26.5165 10.8795 28.6982 12.877 30.0298C15.1437 31.5457 18.8554 31.5457 21.122 30.0298C23.1195 28.6982 23.1195 26.5165 21.122 25.1848C18.8695 23.6832 15.1437 23.6832 12.877 25.1848Z" stroke="white" stroke-width="1.5" stroke-linecap="round" stroke-linejoin="round"/>
</svg>
