<svg width="24" height="24" viewBox="0 0 24 24" fill="none" xmlns="http://www.w3.org/2000/svg">
<path opacity="0.2" d="M8.24961 12.645L21.009 3.4294C20.9185 3.38668 20.8203 3.36298 20.7203 3.35976C20.6203 3.35653 20.5208 3.37385 20.4277 3.41065L3.12149 10.2075C2.42774 10.4794 2.52149 11.4919 3.25274 11.6419L8.24961 12.645Z" fill="#008E97"/>
<path opacity="0.2" d="M12.4594 16.3516L9.53437 19.2766C9.43002 19.3825 9.29653 19.4551 9.15085 19.485C9.00517 19.5149 8.85388 19.5008 8.71622 19.4446C8.57856 19.3883 8.46073 19.2924 8.37772 19.169C8.2947 19.0456 8.25025 18.9003 8.25 18.7516V12.6484L12.4594 16.3516Z" fill="#008E97"/>
<path d="M8.24961 12.6484L16.6777 20.064C16.7751 20.1502 16.8933 20.2096 17.0206 20.2364C17.1479 20.2631 17.28 20.2563 17.4039 20.2166C17.5277 20.1769 17.6391 20.1057 17.7272 20.0099C17.8152 19.9141 17.8768 19.797 17.9059 19.6702L21.4309 4.27649C21.4604 4.14392 21.4534 4.00581 21.4106 3.87691C21.3678 3.748 21.2908 3.63314 21.1878 3.54459C21.0848 3.45604 20.9597 3.39711 20.8258 3.37411C20.692 3.35111 20.5544 3.3649 20.4277 3.41399L3.12149 10.2109C2.42774 10.4827 2.52149 11.4952 3.25274 11.6452L8.24961 12.6484Z" stroke="#008E97" stroke-width="1.5" stroke-linecap="round" stroke-linejoin="round"/>
<path d="M8.25 12.6453L21.0094 3.42969" stroke="#008E97" stroke-width="1.5" stroke-linecap="round" stroke-linejoin="round"/>
<path d="M12.4594 16.3516L9.53437 19.2766C9.43002 19.3825 9.29653 19.4551 9.15085 19.485C9.00517 19.5149 8.85388 19.5008 8.71622 19.4446C8.57856 19.3883 8.46073 19.2924 8.37772 19.169C8.2947 19.0456 8.25025 18.9003 8.25 18.7516V12.6484" stroke="#008E97" stroke-width="1.5" stroke-linecap="round" stroke-linejoin="round"/>
</svg>
