<svg width="36" height="36" viewBox="0 0 36 36" fill="none" xmlns="http://www.w3.org/2000/svg">
<path opacity="0.4" d="M18 33C26.2843 33 33 26.2843 33 18C33 9.71573 26.2843 3 18 3C9.71573 3 3 9.71573 3 18C3 26.2843 9.71573 33 18 33Z" fill="#008E97"/>
<path d="M15.8702 23.3684C15.5702 23.3684 15.2852 23.2484 15.0752 23.0384L10.8302 18.7934C10.3952 18.3584 10.3952 17.6384 10.8302 17.2034C11.2652 16.7684 11.9852 16.7684 12.4202 17.2034L15.8702 20.6534L23.5802 12.9434C24.0152 12.5084 24.7352 12.5084 25.1702 12.9434C25.6052 13.3784 25.6052 14.0984 25.1702 14.5334L16.6652 23.0384C16.4552 23.2484 16.1702 23.3684 15.8702 23.3684Z" fill="#008E97"/>
</svg>
