<svg width="34" height="34" viewBox="0 0 34 34" fill="none" xmlns="http://www.w3.org/2000/svg">
<path d="M15.2317 23.8867V26.7626C15.2317 29.1993 12.9651 31.1684 10.1742 31.1684C7.3834 31.1684 5.10254 29.1993 5.10254 26.7626V23.8867C5.10254 26.3234 7.36923 28.0517 10.1742 28.0517C12.9651 28.0517 15.2317 26.3092 15.2317 23.8867Z" stroke="white" stroke-width="1.5" stroke-linecap="round" stroke-linejoin="round"/>
<path d="M15.2292 19.9893C15.2292 20.6976 15.0309 21.3493 14.6909 21.9159C13.8551 23.2901 12.1409 24.1543 10.1575 24.1543C8.17421 24.1543 6.46002 23.2759 5.62419 21.9159C5.28419 21.3493 5.08594 20.6976 5.08594 19.9893C5.08594 18.771 5.65257 17.6801 6.55924 16.8868C7.48007 16.0793 8.74086 15.5977 10.1434 15.5977C11.5459 15.5977 12.8067 16.0935 13.7276 16.8868C14.6626 17.666 15.2292 18.771 15.2292 19.9893Z" stroke="white" stroke-width="1.5" stroke-linecap="round" stroke-linejoin="round"/>
<path d="M15.2317 19.9878V23.8837C15.2317 26.3203 12.9651 28.0487 10.1742 28.0487C7.3834 28.0487 5.10254 26.3062 5.10254 23.8837V19.9878C5.10254 17.5512 7.36923 15.582 10.1742 15.582C11.5767 15.582 12.8376 16.0778 13.7584 16.8712C14.6651 17.6645 15.2317 18.7695 15.2317 19.9878Z" stroke="white" stroke-width="1.5" stroke-linecap="round" stroke-linejoin="round"/>
<path d="M31.1666 15.5426V18.461C31.1666 19.2402 30.5433 19.8776 29.75 19.906H26.9733C25.4433 19.906 24.0408 18.7868 23.9133 17.2568C23.8283 16.3643 24.1683 15.5285 24.7633 14.9476C25.2874 14.4093 26.01 14.0977 26.8033 14.0977H29.75C30.5433 14.126 31.1666 14.7634 31.1666 15.5426Z" stroke="white" stroke-width="1.5" stroke-linecap="round" stroke-linejoin="round"/>
<path d="M2.8335 14.8737V12.0404C2.8335 8.18703 5.15683 5.49536 8.76933 5.04203C9.13767 4.98536 9.52016 4.95703 9.91683 4.95703H22.6668C23.0352 4.95703 23.3893 4.97118 23.7293 5.02785C27.3843 5.45285 29.7502 8.1587 29.7502 12.0404V14.0945H26.8035C26.0101 14.0945 25.2876 14.4062 24.7635 14.9445C24.1685 15.5253 23.8285 16.3612 23.9135 17.2537C24.041 18.7837 25.4435 19.9028 26.9735 19.9028H29.7502V21.957C29.7502 26.207 26.9168 29.0404 22.6668 29.0404H19.1252" stroke="white" stroke-width="1.5" stroke-linecap="round" stroke-linejoin="round"/>
</svg>
